<svg width="212" height="217" viewBox="0 0 212 217" fill="none" xmlns="http://www.w3.org/2000/svg">
<path d="M190.871 118.292C172.621 118.292 155.204 118.083 137.829 118.333C95.2043 118.917 52.621 119.708 9.99596 120.417C0.704296 120.583 0.16263 120.542 0.120963 111.167C-0.129037 83.125 0.0792966 55.125 0.120963 27.0833C0.120963 21.2917 0.28763 15.4583 0.495963 9.66667C0.579296 7.54167 0.412629 5.29167 0.870963 3.29167C1.24596 1.45833 2.24596 0 5.4543 0C7.5793 0 8.4543 2 8.78763 3.41667C9.49596 6.45833 9.62096 9.66667 9.62096 12.7917C9.4543 44.4583 9.2043 76.1667 8.99597 107.833C8.99597 109.5 8.99597 111.125 8.99597 112.75C17.7876 112.75 26.496 112.958 35.2043 112.708C80.9543 111.542 126.704 110.25 172.454 109C178.913 108.833 185.371 108.458 191.829 108.292C199.996 108.083 200.038 108.542 199.954 116.75C199.829 127.875 200.413 138.958 200.579 150.083C200.704 158.042 200.621 166 201.413 174.083C202.746 170.167 203.871 166.167 205.579 162.458C206.329 160.833 208.204 157.833 209.746 158.458C212.371 158.542 212.121 162.333 211.746 163.917C208.038 180.042 204.079 196.125 199.996 212.167C199.121 215.375 197.204 215.583 196.704 215.75C194.288 216.458 192.579 216.625 189.746 211.042C189.204 209.958 188.371 208.792 187.954 207.542C184.038 195.75 180.079 184 176.413 172.125C175.954 170.667 175.163 167.417 177.746 167C180.288 166.042 181.871 168.625 182.538 170.083C185.579 176.625 188.079 183.417 190.913 190.417C190.871 166 190.871 141.958 190.871 118.292Z" fill="#7075CE"/>
</svg>
