<svg width="226" height="252" viewBox="0 0 226 252" fill="none" xmlns="http://www.w3.org/2000/svg">
<path d="M108.253 233.221C108.879 213.028 109.541 192.857 109.982 172.646C110.022 171.246 108.626 169.391 107.384 168.469C77.6369 146.645 64.5606 117.008 67.2367 80.5563C67.6812 74.4965 70.047 68.5069 74.2724 62.8437C79.831 55.3605 89.1985 54.2849 96.5714 60.0203C103.021 65.0315 106.441 71.9825 109.146 79.3709C115.077 95.7508 117.021 112.931 118.363 130.129C119.218 141.029 119.415 151.96 119.957 163.205C124.988 163.646 130.667 160.61 132.874 156.29C137.094 148.118 137.645 143.304 138.977 135.98C143.163 113 141.646 89.945 136.778 67.302C133.157 50.449 128.329 33.8745 124.019 17.1806C123.652 15.7232 123.135 14.2702 122.874 12.8791C122.463 10.7062 122.829 9.0189 124.529 8.26322C126.048 7.24701 128.014 9.21193 128.973 10.3512C130.554 12.2235 131.8 14.4756 132.631 16.7632C146.08 52.7247 154.296 89.5929 150.322 128.279C149.44 136.768 147.252 145.227 144.626 153.363C140.822 165.037 133.152 172.676 119.681 172.613C118.401 191.808 117.147 210.725 115.88 229.977C119.191 224.676 122.325 219.658 125.482 214.605C126.012 213.757 126.436 212.842 127.036 212.038C128.648 209.852 130.087 206.526 133.541 208.389C136.925 210.207 135.039 213.304 133.816 215.34C127.684 225.708 121.424 236.044 114.797 246.103C112.086 250.206 108.072 250.499 105.385 246.463C97.5032 234.858 90.1288 222.833 82.8471 210.817C82.1667 209.704 81.7729 206.953 84.0206 205.557C85.8665 204.646 88.2475 206.183 89.1267 207.371C94.4153 214.555 99.3991 221.992 104.463 229.379C105.368 230.682 106.23 232.055 107.114 233.394C108.227 235.858 108.196 234.807 108.253 233.221ZM109.22 160.576C110.426 161.476 109.957 158.53 109.943 158.08C109.244 134.504 107.807 111.008 101.269 88.2062C99.5273 82.1072 96.6549 76.088 93.1335 70.7934C88.428 63.7765 81.5515 64.6395 78.4221 72.5593C76.4005 77.6832 74.94 83.4031 74.8487 88.8974C74.3732 112.231 85.6731 138.105 97.5393 150.332C102.116 154.959 103.6 155.886 109.22 160.576Z" fill="#7075CE"/>
<circle cx="128.5" cy="14.5" r="10.5" fill="#FFAD00"/>
</svg>
