<svg width="159" height="108" viewBox="0 0 159 108" fill="none" xmlns="http://www.w3.org/2000/svg">
<path d="M143.416 45.7492C148.852 34.9661 154.482 18.9912 138.717 6.24679C122.95 -6.49869 107.38 3.09388 100.055 10.0296C95.8294 14.0312 91.9821 18.6736 88.6132 22.7389C86.6491 25.1089 84.8476 27.2828 83.2283 29.0192C72.3153 40.7209 61.346 43.8346 46.0478 48.177C40.0845 49.8697 33.4635 51.7491 25.9317 54.3966C5.43551 61.602 2.48648 68.3828 4.85993 74.6846C5.62012 74.3567 6.41681 74.033 7.24873 73.7139C21.0902 68.4056 44.6803 64.4013 72.0542 64.4013C107.007 64.4013 143.359 77.3886 156.96 87.7917C154.887 83.5049 149.507 78.9089 144.582 74.7019C140.572 71.2768 136.865 68.1095 135.489 65.5768C132.734 60.5071 134.57 58.2145 137.68 54.3311C139.39 52.1945 141.487 49.5763 143.416 45.7492Z" fill="#7075CE"/>
<path d="M143.619 104.408L143.433 104.413L142.618 104.431C115.431 104.971 60.4341 101.401 25.5454 96.7691C25.5448 96.7688 25.5443 96.7686 25.5437 96.7684L25.5393 96.7683C25.5413 96.7685 25.5433 96.7688 25.5454 96.7691C39.5488 102.578 59.4226 106.499 79.819 106.559C96.6935 106.608 108.284 106.888 116.577 107.088C133.989 107.507 136.86 107.576 143.568 104.432L143.619 104.408Z" fill="#7075CE"/>
<path fill-rule="evenodd" clip-rule="evenodd" d="M73.6746 69.2694L74.3417 69.3135L73.3543 85.5947L72.8787 86.2103L72.1472 85.6942L73.6746 69.2694Z" fill="#F2F2F2"/>
<ellipse cx="123.965" cy="29.5044" rx="18.4682" ry="18.9898" fill="#F2F2F2"/>
<path fill-rule="evenodd" clip-rule="evenodd" d="M75.6191 48.0093C75.6191 48.0093 75.578 46.9198 76.8408 46.8555C78.1026 46.7912 88.4098 48.0093 88.4098 48.0093C88.4098 48.0093 90.6277 48.3377 90.2615 50.9004C89.8943 53.4632 88.5554 59.3689 88.5554 59.3689C88.5554 59.3689 88.7126 60.3791 87.1022 60.111C85.4917 59.8429 80.7102 58.5645 75.6191 59.3759C75.6191 59.3759 74.7782 59.4773 74.8026 63.1537L74.3416 63.0664C74.3416 63.0664 75.0145 49.0406 75.6191 48.0093Z" fill="#F2F2F2"/>
<path fill-rule="evenodd" clip-rule="evenodd" d="M83.184 39.338C83.2836 39.2286 83.184 39.338 83.184 39.338C82.7796 39.7839 82.4359 40.1805 82.2142 40.4667C81.1565 41.8345 79.7394 43.1309 79.1671 44.122C79.1671 44.122 76.6338 45.309 75.6191 44.0748C75.6191 44.0748 77.9464 40.9367 79.7922 39.5348C79.7922 39.5348 81.5852 38.627 83.184 39.338ZM85.1509 37.2452L83.2777 36.6859C83.2777 36.6859 85.1772 35.4688 86.23 35.0079L87.1022 35.2509C87.1022 35.2509 86.2007 36.1567 85.1509 37.2452C85.1245 37.2744 85.1509 37.2452 85.1509 37.2452Z" fill="#F2F2F2"/>
<path fill-rule="evenodd" clip-rule="evenodd" d="M54.0505 89.4489C54.0505 89.4489 50.7554 88.6977 49.9711 84.8235C49.9711 84.8235 50.5718 83.7058 52.9264 81.118C52.9264 81.118 55.9031 79.1528 55.4128 76.0377C55.4128 76.0377 52.1656 75.1721 53.2516 70.0988L53.944 68.7984C53.944 68.7984 53.1774 63.1658 53.8268 59.8308C53.8268 59.8308 53.2262 55.577 55.7283 55.2717C55.7283 55.2717 56.7811 55.1131 56.8973 54.6893C56.8973 54.6893 55.3562 50.2999 59.8682 48.172C64.3792 46.0451 67.8891 49.7094 67.7475 53.6148C67.7475 53.6148 67.3569 56.288 65.765 57.484C65.765 57.484 69.1841 59.6832 71.0876 62.5743C71.0876 62.5743 73.2156 64.8438 74.1512 64.4612C74.1512 64.4612 77.0039 64.3969 76.6152 65.4222C76.2275 66.4465 75.9541 67.9147 71.7771 68.1376C71.7771 68.1376 67.7387 67.6054 66.6859 67.5753L65.9457 67.3091C65.9457 67.3091 66.8569 69.2965 65.8656 71.1914C64.8743 73.0853 64.1536 73.7411 64.26 74.1086L66.4555 84.6648C66.4555 84.6648 66.2973 86.4473 68.2378 86.135C70.1783 85.8217 69.6637 87.0398 69.2769 87.332C68.8902 87.6252 65.6927 90.437 63.009 86.851C60.3252 83.264 59.9307 82.5269 59.9307 82.5269L54.5642 86.3901C54.5642 86.3901 54.1471 86.8068 54.4509 87.7769C54.4509 87.7769 55.031 89.2129 54.0505 89.4489Z" fill="#F2F2F2"/>
<path fill-rule="evenodd" clip-rule="evenodd" d="M103.143 31.0426C102.186 8.94714 124.305 10.0224 124.352 10.0296C150.76 14.0464 144.475 48.4943 124.009 49.5843C123.995 49.585 103.969 50.1087 103.143 31.0426ZM103.902 31.0162C103.325 17.7077 111.855 13.3369 118.05 11.915C118.071 11.9377 118.098 11.9619 118.13 11.9879C118.556 12.3363 118.978 12.6571 119.55 12.7704C119.886 12.8367 120.211 12.9575 120.536 13.0785C120.787 13.1717 121.038 13.2651 121.294 13.3336C121.634 13.4243 121.987 13.4648 122.339 13.5052C122.44 13.5169 122.542 13.5285 122.643 13.5414C122.736 13.5533 122.831 13.5539 122.926 13.5545C123.046 13.5552 123.165 13.556 123.281 13.5793C123.433 13.6101 123.584 13.6542 123.734 13.6983L123.734 13.6984C123.92 13.753 124.106 13.8076 124.295 13.8366C124.43 13.8572 124.57 13.8501 124.709 13.8431C124.876 13.8346 125.041 13.8262 125.197 13.8654C125.605 13.9683 126.001 14.1264 126.396 14.2839L126.396 14.284L126.396 14.2841L126.465 14.3118L126.563 14.3506L126.652 14.3858C127.07 14.5515 127.491 14.7182 127.888 14.9281C128.27 15.1296 128.627 15.0902 128.83 14.7377C129.139 14.2017 129.465 13.702 130.154 13.6367C130.288 13.624 130.417 13.5655 130.547 13.5071C130.606 13.4805 130.665 13.454 130.724 13.4317L130.654 13.4031C130.483 13.3341 130.312 13.2651 130.142 13.1941C130.139 13.1929 130.14 13.1842 130.14 13.1746V13.1745C130.141 13.1635 130.142 13.1515 130.137 13.1481C129.726 12.8393 129.045 13.0921 128.814 13.5468C128.673 13.8268 128.399 14.1046 128.12 14.2264C127.834 14.3508 127.594 14.1964 127.339 14.0332C127.234 13.9659 127.127 13.897 127.013 13.8456C126.526 13.6958 126.086 13.5477 125.649 13.3958C125.511 13.3481 125.375 13.2972 125.238 13.2462L125.238 13.2461C124.947 13.1374 124.656 13.0287 124.357 12.9525C124.207 12.9143 124.048 12.917 123.889 12.9198C123.764 12.9219 123.639 12.9241 123.518 12.9068C123.279 12.8727 123.04 12.8272 122.802 12.7818C122.538 12.7314 122.274 12.681 122.008 12.6459C121.832 12.6228 121.651 12.6176 121.471 12.6125C121.179 12.6043 120.887 12.596 120.618 12.5103C120.52 12.4788 120.424 12.4427 120.329 12.4066C120.08 12.3123 119.834 12.2189 119.543 12.2146C119.285 12.2108 118.984 12.0285 118.785 11.8359C118.76 11.8112 118.735 11.7901 118.711 11.7723C121.847 11.1374 124.236 11.2465 124.251 11.2489C148.128 15.0497 143.213 47.5767 124.009 48.5995C123.996 48.6002 104.676 48.9067 103.902 31.0162ZM50.0347 86.0799L50.0549 86.1404C50.1789 86.5138 50.3906 86.8566 50.6084 87.2095L50.6085 87.2097L50.6087 87.2099L50.6088 87.2101L50.6089 87.2103C50.6938 87.3477 50.7796 87.4867 50.8615 87.6296C50.9139 87.6955 50.9615 87.7602 51.0073 87.8225L51.0078 87.8231L51.0079 87.8233L51.0084 87.824L51.0087 87.8244C51.0922 87.938 51.1701 88.044 51.2616 88.1357C51.8436 88.7192 52.4793 89.2303 53.2353 89.5557C53.286 89.5777 53.3512 89.5648 53.4161 89.5519C53.4814 89.5389 53.5465 89.526 53.5965 89.5486C54.2751 89.8569 54.9487 89.4613 54.9216 88.6921C54.9122 88.4277 54.8352 88.1665 54.7578 87.9041C54.7038 87.7209 54.6497 87.5372 54.6182 87.3514C54.5857 87.1586 54.6188 86.9116 54.7155 86.7469C54.9689 86.3151 55.3712 86.052 55.7952 85.7959C55.9955 85.6752 56.1656 85.5037 56.3365 85.3316C56.4697 85.1974 56.6033 85.0627 56.7519 84.9514C56.9874 84.7751 57.2379 84.6203 57.4885 84.4655L57.4886 84.4654C57.672 84.3521 57.8554 84.2387 58.033 84.1169C58.1553 84.0328 58.2701 83.9391 58.3848 83.8454C58.6548 83.625 58.9245 83.405 59.2907 83.3105C59.7542 83.192 60.2382 83.3427 60.5142 83.7865C60.6323 83.9766 60.7727 84.1518 60.9132 84.3272L60.9133 84.3273C61.0199 84.4604 61.1266 84.5936 61.2238 84.7335C61.4592 85.0719 61.6812 85.4224 61.8885 85.7799C61.9716 85.9231 62.0441 86.0749 62.1165 86.2264L62.1165 86.2265L62.1165 86.2265C62.2421 86.4894 62.3673 86.7516 62.547 86.9668C62.792 87.2598 63.0738 87.5201 63.356 87.7806C63.5477 87.9576 63.7396 88.1348 63.9202 88.3225C64.429 88.8507 65.0848 88.9893 65.7484 89.0475C66.089 89.0765 66.4338 89.0078 66.7704 88.9406L66.7705 88.9406C66.9817 88.8985 67.1898 88.8569 67.3915 88.8407C67.6582 88.8194 67.8707 88.7111 68.0794 88.6048C68.2737 88.5058 68.4647 88.4085 68.693 88.3848C68.9067 88.3626 69.1043 88.1763 69.3018 87.9901C69.3901 87.9069 69.4783 87.8237 69.568 87.7551C70.1342 87.3223 70.1528 86.519 69.5864 86.1102C69.5286 86.0689 69.4431 86.0657 69.3583 86.0625C69.2701 86.0592 69.1827 86.0559 69.128 86.0098C68.6924 85.6433 68.2258 85.7407 67.7489 85.8471C67.3273 85.9405 66.8143 85.4605 66.8203 85.0197C66.8228 84.8402 66.7761 84.6587 66.7301 84.4799L66.7301 84.4797C66.7223 84.4495 66.7146 84.4194 66.7071 84.3893L66.6955 84.3418C66.6686 84.2287 66.6349 84.1166 66.6012 84.0048C66.5408 83.8038 66.4805 83.6034 66.4608 83.3989C66.4436 83.2195 66.4011 83.0465 66.3586 82.8733L66.3586 82.8733C66.3029 82.6462 66.2471 82.4189 66.2482 82.1768C66.2488 82.0315 66.1942 81.8876 66.139 81.7423L66.139 81.7423C66.0985 81.6355 66.0576 81.5279 66.0383 81.4186C66.0104 81.2606 65.9993 81.0997 65.9881 80.9389V80.9388V80.9387C65.9765 80.7715 65.9648 80.6043 65.9345 80.4405C65.8935 80.2193 65.8396 80.0007 65.7856 79.7823C65.7245 79.5348 65.6634 79.2874 65.6214 79.0366C65.5902 78.8509 65.5901 78.6599 65.59 78.4686C65.5899 78.3444 65.5898 78.22 65.5812 78.0967C65.5762 78.0241 65.5759 77.9458 65.5756 77.8667V77.8664C65.5749 77.6431 65.5742 77.413 65.4651 77.2863C65.3311 77.1312 65.3368 76.9696 65.3426 76.8048C65.3474 76.6675 65.3523 76.5281 65.2767 76.3885C65.1321 76.1211 65.1237 75.7739 65.1154 75.4293C65.1122 75.3004 65.1091 75.1718 65.0989 75.0479C65.0918 74.9621 65.1018 74.8658 65.1117 74.771L65.1117 74.7709C65.1285 74.6095 65.1448 74.4528 65.0751 74.361C64.8191 74.026 64.9666 73.6932 65.0756 73.447L65.094 73.4053C65.2722 72.9982 65.484 72.6065 65.6959 72.2149C65.9229 71.7952 66.1499 71.3756 66.3352 70.9372C66.5078 70.529 66.5627 70.0633 66.6167 69.6061C66.6275 69.5145 66.6383 69.4232 66.65 69.3328C66.671 69.1695 66.6651 69.0021 66.6592 68.835C66.6526 68.6487 66.6461 68.4627 66.6769 68.283C66.6987 68.1559 66.8686 68.0467 67.0127 67.954L67.0135 67.9535L67.0146 67.9528L67.0151 67.9524C67.0359 67.939 67.0562 67.926 67.0754 67.9133C67.0899 67.9037 67.1228 67.9333 67.1625 67.969L67.1625 67.9691C67.2085 68.0104 67.2635 68.0599 67.3095 68.066C67.4403 68.0832 67.5833 68.0818 67.7253 68.0804C68.0017 68.0777 68.2747 68.0749 68.448 68.2103C68.7587 68.4529 69.085 68.44 69.3962 68.4278C69.5249 68.4227 69.651 68.4177 69.7724 68.431C70.4535 68.5055 71.147 68.4615 71.8402 68.4175L71.8404 68.4175L71.8406 68.4175L71.8407 68.4175L71.8409 68.4175L71.841 68.4174L71.8412 68.4174L71.8414 68.4174L71.8415 68.4174L71.8417 68.4174L71.8418 68.4174L71.842 68.4174L71.8422 68.4174L71.8423 68.4174L71.8425 68.4173L71.8426 68.4173L71.8428 68.4173C72.1145 68.4001 72.3861 68.3829 72.6569 68.3728C72.8361 68.3662 73.0168 68.3589 73.1934 68.3296C74.0723 68.1839 74.9362 67.9729 75.6314 67.3619C75.8461 67.1733 76.0262 66.9431 76.2063 66.713L76.2063 66.7129C76.2818 66.6165 76.3572 66.5201 76.4351 66.4268C76.6423 66.1787 76.7202 65.896 76.8085 65.5727C76.9721 64.9746 76.6086 64.2243 75.9793 64.2725C75.7206 64.2923 75.5456 64.2089 75.3379 64.1064C75.2136 64.0449 75.0462 64.044 74.9031 64.0605C74.804 64.0719 74.7041 64.0915 74.6044 64.111C74.2005 64.1902 73.8008 64.2685 73.4765 63.8022C73.4088 63.7048 73.2751 63.652 73.1466 63.6013C73.1088 63.5864 73.0716 63.5717 73.0365 63.5561C72.9642 63.5238 72.8854 63.5002 72.8069 63.4766C72.6668 63.4345 72.5278 63.3928 72.4286 63.303C72.0211 62.9345 71.6416 62.5302 71.2746 62.1179C71.0876 61.9078 70.9104 61.6885 70.7333 61.4692L70.7332 61.4691L70.7331 61.469L70.733 61.4688L70.7329 61.4687L70.7328 61.4686L70.7327 61.4685L70.7326 61.4684L70.7325 61.4683L70.7324 61.4682L70.7323 61.468L70.7322 61.4679L70.7322 61.4678L70.7321 61.4677L70.732 61.4676L70.7319 61.4675L70.7318 61.4674L70.7317 61.4672L70.7316 61.4671L70.7315 61.467L70.7314 61.4669C70.5475 61.2392 70.3635 61.0114 70.1686 60.794C69.7848 60.3658 69.3827 59.9528 68.9662 59.5582C68.6242 59.2342 68.2595 58.9326 67.8857 58.6478C67.6138 58.4409 67.3211 58.2618 67.0294 58.0834L66.9462 58.0324C66.5598 57.7954 66.5279 57.3785 66.5195 57.0046C66.5175 56.917 66.669 56.8258 66.8207 56.7345C66.8905 56.6924 66.9604 56.6504 67.0154 56.6086C67.0283 56.5987 67.0421 56.5871 67.0496 56.573C67.1139 56.4529 67.1786 56.3329 67.2433 56.213L67.2434 56.2128L67.2435 56.2126L67.2436 56.2125L67.2436 56.2123L67.2437 56.2121L67.2438 56.2119L67.2439 56.2118L67.244 56.2116L67.2441 56.2114L67.2442 56.2113L67.2443 56.2111L67.2444 56.2109L67.2445 56.2107L67.2446 56.2106L67.2447 56.2104L67.2447 56.2102L67.2448 56.2101L67.2449 56.2099L67.245 56.2097L67.2451 56.2095C67.4354 55.8568 67.6256 55.504 67.8058 55.1458C67.8527 55.0526 67.8712 54.9438 67.8896 54.8355C67.8964 54.7956 67.9032 54.7557 67.9114 54.7167C67.9402 54.5793 67.9736 54.442 68.0071 54.3047L68.0072 54.3042C68.0951 53.9437 68.183 53.5831 68.1867 53.2218C68.1885 53.044 68.1532 52.8035 68.1192 52.5946C68.0548 52.1985 67.9869 51.8007 67.8814 51.4149C67.8435 51.2765 67.7782 51.1465 67.7126 51.0161C67.6627 50.9168 67.6128 50.8173 67.5747 50.7138C67.5281 50.587 67.4946 50.4505 67.4612 50.3146L67.4612 50.3145L67.4612 50.3144C67.3988 50.0605 67.3369 49.8084 67.1912 49.6246C67.0588 49.4577 66.9481 49.271 66.8371 49.084C66.5789 48.6488 66.3194 48.2115 65.7834 48.0152C65.5672 47.936 65.3622 47.814 65.1583 47.6928C64.886 47.5307 64.6157 47.37 64.3237 47.3141C63.5704 47.1701 62.7818 47.1832 62.0093 47.1966C61.4005 47.2071 60.7683 47.234 60.1943 47.4146C59.7807 47.5447 59.3628 47.7547 58.9666 48.0277C58.8952 48.077 58.8223 48.1259 58.7491 48.175L58.7475 48.1761L58.7471 48.1764C58.369 48.4302 57.9825 48.6896 57.7352 49.0309C57.6401 49.1621 57.5305 49.2876 57.4198 49.4142L57.4198 49.4143L57.4197 49.4143L57.4197 49.4144L57.4196 49.4145L57.4196 49.4145L57.4195 49.4146L57.4195 49.4146L57.4194 49.4147L57.4194 49.4147L57.4193 49.4148L57.4193 49.4149L57.4192 49.4149L57.4192 49.415L57.4192 49.415L57.4191 49.4151L57.4191 49.4151L57.419 49.4152L57.419 49.4153L57.4189 49.4153L57.4189 49.4154C57.0838 49.799 56.7397 50.1928 56.7626 50.7829C56.3859 51.0034 56.3752 51.3825 56.3653 51.7341C56.3622 51.8441 56.3592 51.9513 56.3451 52.0502L56.3434 52.0617C56.2847 52.4723 56.2218 52.9122 56.3133 53.3971C56.4255 53.9913 56.5524 54.5245 56.854 55.0347C57.0324 55.3365 57.1798 55.6573 56.6851 55.8251C56.6159 55.8486 56.5306 55.9101 56.5075 55.9747C56.3898 56.3042 56.2306 56.6029 55.8914 56.7203C55.58 56.8281 55.6033 57.0525 55.6262 57.2726C55.632 57.329 55.6378 57.3851 55.638 57.4389C55.6381 57.4675 55.8987 57.5599 55.962 57.5132C56.1553 57.3707 56.3422 57.2186 56.5289 57.0665L56.529 57.0665L56.529 57.0665L56.529 57.0664L56.5291 57.0664L56.5291 57.0664L56.5291 57.0664L56.5292 57.0663L56.5292 57.0663L56.5292 57.0663L56.5293 57.0663L56.5293 57.0662L56.5294 57.0662L56.5294 57.0662L56.5294 57.0662L56.5295 57.0662L56.5295 57.0661L56.5295 57.0661L56.5296 57.0661L56.5296 57.0661L56.5296 57.066C56.7854 56.8578 57.041 56.6496 57.3128 56.4667C57.477 56.3562 57.7665 56.3408 57.9617 56.4036C58.1733 56.4718 58.372 56.5804 58.5711 56.6893C58.6923 56.7556 58.8137 56.8219 58.9382 56.8793C59.2588 57.0271 59.5827 57.1674 59.9065 57.3078C60.0758 57.3811 60.2451 57.4545 60.414 57.5289C60.6344 57.6261 60.6746 57.7535 60.4693 57.9176C60.363 58.0024 60.2565 58.087 60.1499 58.1716L60.1498 58.1717L60.1497 58.1718L60.1495 58.1719L60.1494 58.172L60.1493 58.1721L60.1492 58.1722L60.149 58.1723L60.1489 58.1724L60.1488 58.1725L60.1487 58.1726L60.1485 58.1727L60.1484 58.1728L60.1483 58.1729L60.1482 58.173L60.148 58.1731L60.1479 58.1732L60.1478 58.1733L60.1477 58.1734L60.1475 58.1735L60.1474 58.1736C59.872 58.3922 59.5966 58.6107 59.3257 58.8351C58.5728 59.4591 58.194 60.3252 58.0903 61.2636C58.0186 61.9118 58.0886 62.6252 58.2901 63.2423C58.4493 63.7297 58.7748 64.1678 59.0921 64.5947L59.0921 64.5948L59.0922 64.5949L59.0922 64.595L59.0923 64.595L59.0924 64.5951C59.1492 64.6716 59.2057 64.7476 59.261 64.8236C59.6727 65.3895 60.2591 65.7249 60.8423 66.0586L60.8423 66.0586L60.8424 66.0586L60.8425 66.0587L60.8425 66.0587L60.8426 66.0588L60.8426 66.0588L60.8427 66.0588L60.8427 66.0589L60.8428 66.0589L60.8429 66.0589L60.8429 66.059L60.843 66.059L60.843 66.059L60.8431 66.0591L60.8431 66.0591L60.8432 66.0591L60.8433 66.0592L60.8433 66.0592L60.8434 66.0592L60.8434 66.0593C61.0098 66.1544 61.1759 66.2495 61.3376 66.3497C61.7127 66.5821 62.1477 66.7249 62.5702 66.8598C62.778 66.9261 62.9932 66.9668 63.2087 67.0075C63.3808 67.0401 63.5531 67.0726 63.7218 67.1183C63.876 67.16 64.0258 67.2184 64.1757 67.2768C64.3153 67.3311 64.4549 67.3855 64.5981 67.4265C64.856 67.5003 65.1175 67.5607 65.3791 67.6212C65.5093 67.6512 65.6395 67.6813 65.7693 67.7131C65.7722 67.7138 65.7728 67.7214 65.7734 67.7301C65.7742 67.7405 65.7751 67.7524 65.7801 67.7565C65.9539 67.8983 66.199 68.9659 66.1316 69.1724C66.0093 69.5471 65.9055 69.9285 65.8019 70.3094L65.7808 70.3871C65.7584 70.4694 65.7441 70.5561 65.73 70.6425C65.7045 70.7982 65.6791 70.953 65.6061 71.0797L65.5367 71.2005C65.2169 71.7569 64.8939 72.3188 64.4967 72.8141C64.1017 73.3065 63.6401 73.7706 63.0517 74.029C62.9367 74.0795 62.8379 74.1574 62.7383 74.2359C62.5336 74.3973 62.3254 74.5614 61.9653 74.4966C61.7719 74.4618 61.5351 74.6783 61.2993 74.894C61.1952 74.9892 61.0913 75.0842 60.9914 75.1574C60.967 75.1748 60.9487 75.2014 60.9304 75.2281L60.9186 75.2451C60.9143 75.2511 60.91 75.2571 60.9055 75.2628L60.9161 75.2662L60.9274 75.2703L60.9477 75.278C60.9769 75.2895 61.0062 75.301 61.0356 75.301C61.1369 75.3023 61.2388 75.2994 61.3406 75.2965C61.5494 75.2906 61.758 75.2847 61.9615 75.315C62.1593 75.3441 62.5126 75.5139 62.5037 75.5781C62.4566 75.9138 62.4375 76.2512 62.4183 76.5894C62.3877 77.1313 62.3569 77.6753 62.2103 78.2182C62.1178 78.5598 61.9677 78.8667 61.8184 79.1718L61.8184 79.1719C61.7053 79.4032 61.5926 79.6334 61.5059 79.8771C61.2776 80.5188 60.7202 81.0822 60.2015 81.5592C59.7576 81.9678 59.2658 82.321 58.774 82.6742C58.5284 82.8505 58.2829 83.0269 58.0433 83.2101C57.7588 83.4285 57.4798 83.6545 57.2009 83.8805L57.2006 83.8808C57.0385 84.0122 56.8763 84.1436 56.713 84.2736L56.6645 84.3119C56.4144 84.5101 56.1639 84.7086 55.9076 84.8992C55.8036 84.9763 55.7013 85.0574 55.5989 85.1386L55.5988 85.1387L55.5986 85.1388C55.3305 85.3514 55.0618 85.5644 54.7621 85.7076C54.2804 85.9365 53.9836 86.3121 53.9874 86.7901C53.9902 87.1396 54.0825 87.4878 54.175 87.8368C54.2212 88.0111 54.2675 88.1857 54.3027 88.3607C54.3238 88.4654 54.3252 88.5743 54.3267 88.6833C54.3273 88.7332 54.328 88.7831 54.3305 88.8326C54.2328 88.8296 54.1322 88.8343 54.0315 88.8389C53.8043 88.8495 53.5771 88.8601 53.3839 88.7814C53.1521 88.6875 52.9425 88.5388 52.7322 88.3895C52.5848 88.2849 52.4371 88.18 52.2811 88.0936C51.7193 87.7822 51.4105 87.254 51.1146 86.7188C50.903 86.3356 50.7266 85.9304 50.5513 85.5277L50.5513 85.5275L50.5274 85.4726L50.508 85.4287C50.4386 85.2715 50.3498 85.0706 50.4037 84.9624C50.5804 84.609 50.8127 84.2786 51.059 83.9693C51.5477 83.3552 52.0517 82.754 52.5557 82.1528L52.556 82.1525L52.73 81.9448C52.8019 81.859 52.8721 81.7708 52.9423 81.6825L52.9426 81.6821L52.9429 81.6818L52.9432 81.6814C53.1475 81.4247 53.3524 81.1672 53.5997 80.9657C54.2771 80.4144 54.8202 79.7647 55.2958 79.0266C55.666 78.4512 55.8114 77.8727 55.6732 77.2059C55.6644 77.1635 55.6916 77.1137 55.7189 77.0637C55.7316 77.0402 55.7444 77.0168 55.7535 76.9941L55.5804 76.9489L55.4047 76.9029L55.3431 76.8867C55.2443 76.8608 55.1455 76.835 55.0468 76.8093C55.0354 76.8587 55.0197 76.9086 55.004 76.9585C54.9698 77.0669 54.9357 77.1755 54.9462 77.2793C55.0288 78.0907 54.7772 78.6972 54.1794 79.2867C53.4131 80.0425 52.7098 80.8667 52.0068 81.6906L52.0061 81.6914L52.006 81.6915L52.0059 81.6917L52.0058 81.6918L52.0057 81.6919L52.0056 81.692L52.0055 81.6921L52.0054 81.6922L52.0053 81.6923L52.0052 81.6925L52.0051 81.6926L52.005 81.6927L52.0049 81.6928L52.0048 81.6929L52.0047 81.693L52.0046 81.6931L52.0045 81.6933L52.0044 81.6934L52.0043 81.6935L52.0042 81.6936C51.7712 81.9667 51.5383 82.2397 51.3031 82.5102C51.1775 82.6544 51.0453 82.7904 50.9135 82.9259C50.4616 83.3906 50.0149 83.8499 49.8602 84.618C49.7421 85.2041 49.8857 85.6339 50.0347 86.0799ZM72.067 67.5339L72.0664 67.534C71.8681 67.5493 71.6692 67.5647 71.4689 67.5766C68.448 67.7565 65.0254 66.8368 64.7841 66.7218C64.5206 66.5962 64.2323 66.5251 63.9442 66.4541C63.8297 66.4259 63.7153 66.3977 63.6025 66.3661C63.505 66.3388 63.4069 66.3138 63.3089 66.2888L63.3086 66.2888L63.3085 66.2887L63.3085 66.2887L63.3084 66.2887L63.3083 66.2887L63.3082 66.2887L63.3081 66.2886L63.3081 66.2886L63.308 66.2886L63.3079 66.2886L63.3078 66.2885L63.3077 66.2885L63.3077 66.2885L63.3076 66.2885L63.3075 66.2884L63.3074 66.2884L63.3073 66.2884L63.3073 66.2884L63.3072 66.2884L63.3071 66.2883C63.1539 66.2493 63.0007 66.2103 62.8501 66.1625C62.4436 66.0336 62.0392 65.8965 61.6379 65.7518C61.4939 65.6999 61.3544 65.6268 61.2242 65.5446C61.1285 65.4842 61.0306 65.4262 60.9326 65.3681L60.9323 65.3679C60.6596 65.2063 60.3863 65.0443 60.1602 64.8303C59.9356 64.6176 59.773 64.3302 59.6137 64.0488C59.5845 63.9972 59.5554 63.9457 59.526 63.895C59.3508 63.5922 59.1914 63.2732 59.0635 62.9489C58.5257 61.5858 59.1993 60.113 59.4821 59.6399C59.8398 59.0413 60.5061 58.7123 61.0496 58.6113C61.5157 58.5247 62.1312 58.5049 62.6959 58.7053C63.0845 58.8431 63.4227 59.0518 63.7592 59.2594L63.7592 59.2594L63.7593 59.2595C63.9592 59.3828 64.1585 59.5058 64.3674 59.6134C65.0693 59.9746 65.6976 60.4433 66.3205 60.9079L66.3939 60.9626C66.7534 61.2306 67.0623 61.5689 67.3718 61.9079C67.5619 62.1163 67.7524 62.3249 67.955 62.5176C68.2692 62.8164 68.6082 63.0879 68.9468 63.3591L68.9469 63.3592L69.0319 63.4273L69.1171 63.4958L69.187 63.5522C69.2707 63.6199 69.3535 63.6901 69.4363 63.7604L69.4365 63.7606C69.6872 63.9732 69.9387 64.1867 70.2216 64.3352C70.5803 64.5236 70.9661 64.6583 71.3512 64.7928C71.4749 64.836 71.5984 64.8792 71.721 64.9241C72.0177 65.0329 72.318 65.1358 72.6234 65.213C72.6576 65.2216 72.6919 65.2306 72.7264 65.2396C72.9655 65.3018 73.2124 65.3661 73.4486 65.3463C74.1363 65.2885 74.1679 65.2638 74.7407 64.8159L74.8373 64.7404C74.9066 64.6864 75.0218 64.6471 75.1028 64.6645C75.5766 64.7663 76.0631 64.8892 76.3703 65.2952C76.4369 65.3832 76.2775 65.7405 76.1373 65.8891L76.059 65.9724C75.641 66.4171 75.2321 66.8523 74.6251 67.1086C74.0983 67.3312 73.5997 67.4581 73.0465 67.4741C72.719 67.4835 72.3937 67.5087 72.067 67.5339ZM57.0999 54.139C57.097 54.0881 57.094 54.0374 57.0884 53.9886C57.0628 53.7695 57.0403 53.5499 57.0177 53.3304C57.0085 53.2402 56.9992 53.15 56.9897 53.0598C57.0434 52.6029 57.0908 52.2453 57.1528 51.8904C57.1639 51.8269 57.1733 51.7622 57.1827 51.6972L57.1827 51.697C57.213 51.4878 57.2435 51.2762 57.3337 51.0983C57.4365 50.8952 57.5652 50.7061 57.6939 50.517C57.8173 50.3355 57.9409 50.154 58.0416 49.9601C58.3844 49.3001 58.9794 48.9736 59.5661 48.6517L59.5662 48.6517C59.7237 48.5653 59.8805 48.4792 60.0317 48.3871C60.3559 48.1896 60.76 48.1246 61.159 48.0604L61.1591 48.0604H61.1592C61.2873 48.0398 61.4149 48.0193 61.5392 47.9945C61.8668 47.9292 62.2059 47.889 62.5388 47.8956C63.0714 47.9061 63.5851 48.0324 64.1068 48.1668C64.8168 48.3498 65.3871 48.7254 65.9089 49.2031C66.0158 49.301 66.0778 49.4502 66.1399 49.5999L66.14 49.6C66.1703 49.673 66.2006 49.7461 66.2363 49.8134C66.3098 49.9522 66.3845 50.0904 66.4592 50.2286L66.46 50.2302C66.5858 50.463 66.7116 50.6957 66.8321 50.9314C67.0001 51.2599 66.7203 51.6295 66.3509 51.6496C66.0926 51.6637 64.1816 51.83 63.4912 52.4521C62.9026 52.9824 62.7596 53.1862 62.5291 53.5146C62.4893 53.5713 62.4468 53.6318 62.399 53.6984C62.2296 53.9342 62.0858 55.0159 62.1779 55.3042C62.2586 55.5567 62.3691 55.7989 62.4796 56.0413L62.4797 56.0414C62.568 56.2349 62.6563 56.4286 62.7296 56.6278C62.782 56.7702 62.7946 56.9281 62.8071 57.0861C62.8128 57.1577 62.8185 57.2294 62.828 57.2996C62.7604 57.2976 62.6923 57.2984 62.6243 57.2992C62.4698 57.301 62.3153 57.3028 62.1674 57.2719C62.0027 57.2376 61.844 57.1736 61.6852 57.1096C61.6144 57.081 61.5435 57.0525 61.4721 57.0265C61.1647 56.9148 60.8572 56.8032 60.5496 56.6917L60.0883 56.5243C59.989 56.4883 59.8884 56.4549 59.7878 56.4214L59.7877 56.4214C59.5662 56.3478 59.3446 56.2742 59.136 56.1723C58.3496 55.7882 57.614 55.3238 57.1725 54.5116C57.1154 54.4066 57.1076 54.2721 57.0999 54.139ZM65.2138 80.4859L65.2139 80.4864C65.2625 80.6932 65.311 80.8999 65.3556 81.1073C65.3629 81.1416 65.3409 81.1819 65.3188 81.2223C65.3123 81.2342 65.3058 81.246 65.3001 81.2577C65.2968 81.2646 65.2937 81.2713 65.291 81.278C65.3561 81.6576 65.4177 81.9378 65.487 82.2159C65.5361 82.4131 65.5869 82.61 65.6376 82.807C65.7347 83.1839 65.8318 83.5609 65.918 83.9401C65.9658 84.151 65.9887 84.379 65.9686 84.5929C65.9146 85.1693 66.5614 86.4195 67.0775 86.5059C67.4288 86.5648 67.7896 86.5594 68.1512 86.5539H68.1514H68.1515H68.1517H68.1519H68.152H68.1522H68.1523H68.1525H68.1527H68.1528H68.153H68.1531H68.1533H68.1535H68.1536H68.1538H68.1539H68.1541H68.1543H68.1544C68.3773 86.5506 68.6004 86.5472 68.8218 86.5591C68.9965 86.5682 69.1862 86.6525 69.3261 86.761C69.3698 86.7951 69.314 87.0592 69.2323 87.1506C69.0415 87.3645 68.8223 87.5603 68.588 87.722C67.7582 88.2964 66.8109 88.2874 65.8671 88.2542C65.0326 88.2251 64.2718 88.0283 63.7652 87.247C63.5274 86.8802 63.276 86.5225 63.0246 86.1649L63.0245 86.1648L63.0244 86.1647L63.0244 86.1646C62.8691 85.9437 62.7138 85.7228 62.5617 85.4997C62.4343 85.3124 62.3103 85.1228 62.1863 84.9334L62.1861 84.933C62.0343 84.701 61.8826 84.4691 61.7246 84.2414C61.6054 84.0701 61.4788 83.9027 61.3522 83.7355C61.0796 83.3754 60.8073 83.0157 60.6104 82.6166C60.5079 82.4087 60.7142 81.9448 60.9035 81.6988C61.1051 81.4367 61.3334 81.1959 61.5615 80.9553C61.8221 80.6804 62.0824 80.4058 62.3024 80.1001C62.4083 79.9527 62.4452 79.7505 62.4818 79.5496C62.5202 79.3383 62.5585 79.1285 62.6764 78.9854C62.9766 78.6222 62.9807 78.2173 62.9847 77.8197C62.9864 77.6479 62.9881 77.4775 63.0137 77.3124C63.0508 77.0725 63.0853 76.8314 63.1199 76.59C63.1922 76.0845 63.2647 75.5779 63.3618 75.079C63.3975 74.8961 63.5878 74.7413 63.771 74.5924L63.7711 74.5923C63.8322 74.5426 63.8925 74.4936 63.946 74.4444C63.97 74.4223 64.1571 74.5107 64.1815 74.58C64.2636 74.8129 64.3264 75.058 64.3599 75.304C64.3998 75.5971 64.4333 75.8913 64.4668 76.1856L64.4668 76.1857L64.4669 76.1858L64.4669 76.1859L64.4669 76.186L64.4669 76.1861L64.4669 76.1862L64.467 76.1864L64.467 76.1865L64.467 76.1866L64.467 76.1867L64.4671 76.1868L64.4671 76.1869L64.4671 76.187L64.4671 76.1872L64.4672 76.1873L64.4672 76.1874L64.4672 76.1875L64.4672 76.1878L64.4673 76.1881L64.4673 76.1885L64.4674 76.1888L64.4674 76.1891L64.4675 76.1894L64.4675 76.1898L64.4676 76.1901L64.4676 76.1904L64.4677 76.1907L64.4677 76.191L64.4678 76.1914L64.4678 76.1917L64.4678 76.192L64.4679 76.1923L64.4679 76.1926L64.468 76.193L64.468 76.1933L64.4681 76.1936L64.4681 76.1939C64.5118 76.5773 64.5554 76.9607 64.6135 77.3415C64.6439 77.5405 64.6975 77.7357 64.7511 77.931C64.7981 78.1025 64.8452 78.274 64.8766 78.4482C64.9079 78.6221 64.9229 78.7991 64.9379 78.9761V78.9762V78.9763C64.9536 79.161 64.9692 79.3457 65.0034 79.5267C65.0639 79.8474 65.1386 80.1656 65.2133 80.4836L65.2133 80.4837L65.2134 80.4838L65.2134 80.484L65.2134 80.4841L65.2134 80.4842L65.2135 80.4843L65.2135 80.4844L65.2135 80.4845L65.2135 80.4846L65.2135 80.4848L65.2136 80.4849L65.2136 80.485L65.2136 80.4851L65.2136 80.4852L65.2137 80.4853L65.2137 80.4854L65.2137 80.4856L65.2137 80.4857L65.2138 80.4858L65.2138 80.4859ZM64.6646 57.2888C64.4815 57.3444 64.1812 57.1919 64.0109 57.0419C63.8597 56.9087 63.7466 56.7299 63.6335 56.551C63.5848 56.4739 63.536 56.3969 63.4842 56.3235C63.4381 56.2524 63.3924 56.185 63.3483 56.1199L63.3481 56.1196L63.3481 56.1196C63.2048 55.9081 63.078 55.721 63.007 55.5137C62.9637 55.3876 62.9637 55.2472 62.9636 55.1058V55.1057C62.9636 54.9926 62.9636 54.8789 62.9414 54.7714C62.8388 54.2727 63.1008 53.9611 63.3711 53.6396L63.3713 53.6394C63.4109 53.5923 63.4506 53.545 63.4894 53.4969C63.8025 53.1088 64.1876 52.8208 64.6127 52.602C64.8565 52.4765 65.1519 52.4242 65.4282 52.4057C65.6061 52.3938 65.7867 52.4019 65.9667 52.41C66.2268 52.4218 66.4858 52.4335 66.7345 52.3846C67.0124 52.33 67.0998 52.4653 67.1917 52.6177C67.2772 52.7596 67.3303 52.9438 67.335 53.1113C67.3473 53.5539 67.3328 53.9978 67.3101 54.4402C67.3083 54.475 67.2712 54.5068 67.2334 54.5391C67.1962 54.5709 67.1584 54.6034 67.1526 54.6398C67.0188 55.4867 66.5141 56.1243 65.9441 56.6682C65.612 56.9851 65.1153 57.1521 64.6646 57.2888ZM70.5418 63.6263L70.5257 63.6439L70.5159 63.6542L70.3922 63.544L70.3088 63.4695L70.3066 63.4675C70.027 63.2175 69.7744 62.9917 69.5098 62.7818C69.4428 62.7287 69.3615 62.6941 69.2803 62.6595C69.1919 62.6219 69.1038 62.5844 69.035 62.5233C68.8025 62.3166 68.5775 62.1011 68.3525 61.8855C68.162 61.703 67.9714 61.5204 67.7763 61.3433C67.3768 60.9808 66.9668 60.6303 66.5529 60.2853C66.4662 60.213 66.3801 60.1393 66.294 60.0656L66.2938 60.0654C66.0004 59.8142 65.7062 59.5623 65.3824 59.3625C65.0755 59.1732 64.7487 59.0184 64.4218 58.8635C64.224 58.7698 64.0262 58.676 63.8326 58.5746C63.6182 58.4623 63.4169 58.3235 63.2162 58.1853L63.1257 58.123C63.1208 58.1197 63.1869 57.9438 63.2304 57.9384C63.3873 57.9187 63.5465 57.8898 63.706 57.8608L63.7061 57.8608L63.7062 57.8607L63.7063 57.8607L63.7064 57.8607L63.7065 57.8607L63.7066 57.8607L63.7067 57.8607L63.7068 57.8607L63.7069 57.8607L63.707 57.8607L63.707 57.8606L63.7071 57.8606L63.7072 57.8606L63.7073 57.8606L63.7074 57.8606L63.7075 57.8606L63.7076 57.8606L63.7077 57.8606L63.7078 57.8606L63.7079 57.8605H63.7079C64.1204 57.7856 64.5348 57.7103 64.9156 57.7937C65.4542 57.9117 65.9985 58.1112 66.5087 58.4722C67.3502 59.0677 68.0936 59.7491 68.7998 60.4879C69.5758 61.3 70.3413 62.1227 71.1068 62.9453L71.3876 63.2471C71.7267 63.6114 72.056 63.9854 72.3849 64.3595C72.4148 64.3934 72.4356 64.4807 72.4155 64.508L72.4154 64.5081C72.3487 64.5984 72.2334 64.7545 72.1872 64.7378C72.0347 64.6826 71.8963 64.5791 71.7619 64.4787L71.7377 64.4606C71.5354 64.3096 71.3344 64.1566 71.1334 64.0036L71.1329 64.0032C70.9498 63.8639 70.7667 63.7245 70.5825 63.5866C70.5798 63.5845 70.561 63.6052 70.5419 63.6262L70.5418 63.6263ZM158.554 88.1106C158.467 88.1141 158.375 88.1275 158.282 88.141C158.079 88.1706 157.876 88.2003 157.724 88.1236L157.679 88.1004L157.638 88.079C156.114 87.2887 135.584 76.6387 114.64 70.0859C96.4859 64.4057 77.4181 62.7973 76.6021 62.7285L76.5786 62.7265C76.4915 62.7189 95.9558 62.223 114.927 68.0727C136.737 74.7977 158.463 87.9978 158.554 88.1106ZM90.5125 50.8661C90.5356 50.6461 90.559 50.4235 90.5854 50.1978C90.5712 50.1385 90.5577 50.0804 90.5445 50.0235L90.5443 50.0227C90.4826 49.758 90.4269 49.5188 90.3398 49.2925L90.3223 49.2466L90.3041 49.1984C90.1707 48.8435 90.0371 48.488 89.589 48.3774C89.4902 48.3531 89.4059 48.275 89.3203 48.1957C89.2498 48.1305 89.1785 48.0644 89.0974 48.0268C88.8606 47.9171 88.6027 47.8407 88.3463 47.7944C88.2167 47.771 88.0838 47.7676 87.9508 47.7642C87.8199 47.7609 87.6889 47.7576 87.5612 47.7351C87.3319 47.6948 87.104 47.6442 86.8762 47.5936C86.5259 47.5158 86.1758 47.438 85.8214 47.398C85.6849 47.3826 85.5485 47.3693 85.4122 47.3561C85.0318 47.319 84.6523 47.2821 84.273 47.1995C83.9218 47.1229 83.5564 47.1123 83.1921 47.1016H83.1919H83.1918H83.1917H83.1916H83.1915H83.1914C83.075 47.0982 82.9588 47.0948 82.8432 47.0893C82.7901 47.0867 82.7353 47.1048 82.6809 47.1228C82.6206 47.1427 82.5608 47.1624 82.5045 47.1537C82.1022 47.0912 81.7019 47.0161 81.3015 46.9409L81.1595 46.9143L80.9953 46.8836C80.8172 46.8506 80.6402 46.8534 80.461 46.8562C80.261 46.8594 80.0584 46.8626 79.8488 46.816C79.4891 46.7358 79.1142 46.7329 78.7364 46.73C78.4822 46.728 78.2267 46.726 77.9737 46.7005C77.4511 46.6477 76.9222 46.6603 76.3933 46.6729C76.1771 46.678 75.9608 46.6831 75.745 46.6838C75.426 46.6849 75.0295 47.0626 75.0068 47.3839C75.0003 47.4753 75.0052 47.5756 75.0102 47.6756C75.0205 47.8858 75.0308 48.0949 74.9354 48.219C74.6939 48.5331 74.7268 48.8709 74.7598 49.2101C74.7869 49.4883 74.8141 49.7676 74.69 50.0355C74.567 50.301 74.5826 50.6198 74.5981 50.9385C74.6056 51.094 74.6132 51.2496 74.6047 51.3988C74.5904 51.6495 74.5685 51.9002 74.5465 52.1511V52.1511V52.1512V52.1513V52.1514V52.1514V52.1515V52.1516V52.1516V52.1517V52.1518V52.1518V52.1519V52.152V52.152V52.1521V52.1522V52.1522V52.1523C74.5036 52.6442 74.4606 53.1369 74.4743 53.6312C74.4762 53.6981 74.4934 53.7657 74.5104 53.8329C74.5319 53.9177 74.5532 54.0017 74.5435 54.0827C74.5019 54.4278 74.4513 54.7718 74.4006 55.1157L74.4006 55.1159L74.4006 55.1161L74.4006 55.1163L74.4005 55.1165L74.4005 55.1166L74.4005 55.1168L74.4005 55.117L74.4004 55.1172L74.4004 55.1174L74.4004 55.1176L74.4004 55.1177L74.4003 55.1179L74.4003 55.1181L74.4003 55.1183L74.4003 55.1185L74.4003 55.1187L74.4002 55.1188L74.4002 55.119C74.3578 55.407 74.3154 55.695 74.2783 55.9838C74.2515 56.1917 74.2528 56.3996 74.2541 56.6086C74.2557 56.8763 74.2573 57.1458 74.2001 57.4197C74.1337 57.7372 74.1324 58.0659 74.131 58.3975V58.3976C74.13 58.6478 74.129 58.8997 74.1 59.1498C74.0627 59.4716 74.0689 59.7964 74.0751 60.1224C74.0834 60.562 74.0918 61.0037 73.9938 61.4433C73.9332 61.7152 73.9172 61.9972 73.901 62.2796V62.2798C73.8907 62.4608 73.8804 62.6421 73.8583 62.821C73.8501 62.8871 73.8091 62.9612 73.771 63.0299C73.7257 63.1118 73.6846 63.1861 73.7085 63.23C73.7843 63.3694 73.9635 63.4763 74.1211 63.5363C74.5505 63.6995 75.1286 63.4849 75.153 63.1713C75.1639 63.0309 75.1796 62.8897 75.1953 62.7483V62.7483V62.7482V62.7481V62.7481V62.748V62.7479V62.7479V62.7478V62.7477V62.7477V62.7476V62.7475V62.7474V62.7474V62.7473V62.7472V62.7472V62.7471C75.2364 62.3783 75.2776 62.0087 75.2336 61.6507C75.1927 61.3169 75.2665 61.0072 75.34 60.6993C75.4022 60.4383 75.4641 60.1787 75.4555 59.9068C75.4529 59.8233 75.5513 59.6644 75.6081 59.6619C76.3408 59.6297 77.0746 59.611 77.8081 59.6068C78.0696 59.6053 78.3312 59.613 78.5927 59.6207C78.88 59.6292 79.1673 59.6376 79.4545 59.6338C79.7559 59.6299 80.0574 59.6167 80.3589 59.6036C80.8454 59.5823 81.3318 59.5611 81.817 59.5786C82.1218 59.5896 82.4243 59.6529 82.7273 59.7163C82.9383 59.7605 83.1497 59.8047 83.3623 59.8314C83.494 59.8479 83.6262 59.851 83.7587 59.8541H83.7588C83.9741 59.8591 84.1903 59.8642 84.4067 59.9267C84.5341 59.9634 84.6721 59.9589 84.8106 59.9544C84.939 59.9502 85.0678 59.946 85.1886 59.9747C85.3865 60.0216 85.5786 60.0933 85.7709 60.165C85.9359 60.2266 86.101 60.2881 86.2699 60.3342C86.4629 60.3867 86.6622 60.4142 86.8616 60.4417C86.9621 60.4555 87.0626 60.4694 87.1623 60.4864C87.2508 60.5016 87.3435 60.5284 87.436 60.5552C87.6364 60.6133 87.836 60.6711 87.9913 60.6094C88.2974 60.488 88.5975 60.2155 88.7759 59.9267C88.9572 59.6332 89.0311 59.259 89.1009 58.9054L89.1113 58.8529C89.1326 58.745 89.1212 58.6245 89.1099 58.5063C89.0952 58.3516 89.0808 58.2007 89.141 58.0871C89.3228 57.7431 89.3707 57.3766 89.4185 57.0109C89.4419 56.8312 89.4654 56.6518 89.5047 56.4753C89.5234 56.3911 89.5136 56.2922 89.5042 56.1963C89.4916 56.0694 89.4796 55.9477 89.5349 55.8723C89.782 55.5351 89.8175 55.1502 89.853 54.765C89.8753 54.5223 89.8977 54.2795 89.973 54.0482C90.0769 53.7294 90.1364 53.3858 90.196 53.0424L90.196 53.042L90.1961 53.0417L90.1962 53.0414C90.222 52.8925 90.2478 52.7437 90.2772 52.597C90.39 52.0338 90.4503 51.4595 90.5125 50.8661ZM88.7205 56.8568C88.6541 57.2068 88.5881 57.555 88.4368 57.88C88.4291 57.9535 88.4241 58.0211 88.4195 58.0836L88.4195 58.0842C88.4071 58.2524 88.3975 58.3833 88.3436 58.4906C88.2596 58.6576 88.2486 58.8513 88.2376 59.0445C88.2198 59.3599 88.202 59.674 87.8666 59.8686C87.8522 59.877 87.8373 59.8858 87.8221 59.8949C87.7152 59.9585 87.592 60.0319 87.4971 60.0103C87.4006 59.9883 87.3101 59.9362 87.2198 59.8842C87.1251 59.8297 87.0307 59.7752 86.9295 59.7558C86.7513 59.7214 86.5691 59.7069 86.3871 59.6924C86.1783 59.6758 85.9696 59.6592 85.7673 59.6127C85.5948 59.573 85.4292 59.5018 85.2635 59.4305C85.095 59.358 84.9265 59.2855 84.7509 59.2464C84.5271 59.1966 84.2968 59.1793 84.0662 59.162H84.0661C83.8868 59.1485 83.7073 59.135 83.5305 59.1061C82.0163 58.8591 80.4961 58.8963 78.976 58.9334C78.065 58.9557 77.1539 58.978 76.2442 58.939C75.9292 58.9256 75.6644 58.9078 75.6415 58.494C75.6332 58.3453 75.6073 58.1897 75.5814 58.0345C75.5281 57.7148 75.4751 57.3968 75.5776 57.1443C75.7936 56.6122 75.768 56.0865 75.7425 55.5633C75.7318 55.3435 75.7212 55.1242 75.7284 54.905C75.7967 52.8405 75.8146 50.7738 75.8305 48.7079C75.8307 48.6777 75.8307 48.6476 75.8308 48.6178V48.6176V48.6175C75.8315 48.2796 75.8322 47.9662 76.0744 47.6846C76.2137 47.5227 76.3368 47.4623 76.5522 47.4782C76.8054 47.497 77.0597 47.5006 77.314 47.5043H77.3141C77.6023 47.5085 77.8903 47.5126 78.1766 47.5387C78.4637 47.5648 78.7491 47.6109 79.0345 47.657C79.3348 47.7055 79.6351 47.754 79.9373 47.7792C80.1317 47.7955 80.3332 47.7809 80.5335 47.7664C80.8442 47.7439 81.152 47.7216 81.4252 47.8151C81.9781 48.0043 82.5361 48.018 83.093 48.0318C83.3817 48.0389 83.6701 48.046 83.9573 48.0775C84.1803 48.1021 84.4149 48.0838 84.6474 48.0657C84.997 48.0384 85.3419 48.0116 85.6351 48.1312C86.1178 48.3281 86.5997 48.3317 87.0749 48.3354C87.2633 48.3368 87.4506 48.3382 87.6365 48.3517C88.4198 48.4084 89.1003 48.6383 89.5347 49.2282C89.7869 49.5707 90.0299 50.1379 89.7124 50.6705C89.6846 50.7172 89.6919 50.785 89.6993 50.8539C89.7034 50.8926 89.7076 50.9318 89.7057 50.9678C89.6963 51.1388 89.6981 51.3144 89.7 51.4901C89.7043 51.8932 89.7086 52.2964 89.5768 52.6453C89.4503 52.9802 89.3898 53.3241 89.3295 53.667C89.2789 53.9547 89.2285 54.2416 89.1392 54.5219C89.0769 54.7176 89.0783 54.9378 89.0796 55.1564V55.1565C89.0811 55.4037 89.0826 55.6488 88.992 55.8539C88.8494 56.177 88.7848 56.5178 88.7205 56.8568ZM74.7024 59.0227L74.7023 59.0226C74.6893 59.0091 74.6763 58.9957 74.6665 58.9846C74.8474 59.0033 75.0517 59.0413 75.0949 59.1481C75.142 59.2646 75.1351 59.4042 75.1282 59.5439C75.1252 59.6031 75.1223 59.6624 75.1235 59.7199C75.1098 59.7201 75.0944 59.7221 75.0789 59.7241C75.0451 59.7285 75.0112 59.7329 74.9963 59.7177C74.9752 59.6962 74.9603 59.6636 74.946 59.6322C74.9275 59.5919 74.91 59.5535 74.8811 59.5429C74.5441 59.4188 74.5351 59.3963 74.755 59.0864C74.7587 59.0811 74.7306 59.0519 74.7024 59.0227ZM111.094 96.5921C111.353 96.714 111.589 96.838 111.819 96.9589C111.936 97.0205 112.051 97.0812 112.168 97.1404C112.255 97.1852 112.347 97.2229 112.438 97.2605C112.588 97.3226 112.738 97.3843 112.868 97.4769C113.028 97.5907 113.163 97.744 113.297 97.8967C113.339 97.9447 113.381 97.9926 113.424 98.0392C113.443 98.0613 113.429 98.1617 113.414 98.1667C113.394 98.1729 113.373 98.1802 113.352 98.1881L113.33 98.1966L113.296 98.2101L113.295 98.2104C113.183 98.2542 113.068 98.2995 112.983 98.2672C112.843 98.2131 112.698 98.1694 112.554 98.1258C112.124 97.9963 111.695 97.8668 111.375 97.4618C111.115 97.1324 110.755 96.8593 110.391 96.6544C110.227 96.563 109.927 96.6976 109.86 96.9778C109.689 97.6838 107.822 100.484 105.028 100.484C102.233 100.484 97.8356 100.188 96.6668 98.7455C95.0244 96.7179 95.6572 92.846 95.7181 92.4734L95.7214 92.4528C95.741 92.3263 95.6501 92.1666 95.573 92.0481C95.5492 92.012 95.3826 92.033 95.3124 92.0782C95.0987 92.2169 94.891 92.3647 94.6832 92.5126L94.6829 92.5129L94.6825 92.5131L94.6822 92.5133L94.6818 92.5136L94.6815 92.5138L94.6811 92.514L94.6808 92.5143L94.6805 92.5145L94.6801 92.5147L94.6798 92.5149L94.6794 92.5152L94.6791 92.5154L94.6787 92.5156L94.6784 92.5159L94.6781 92.5161L94.6777 92.5163L94.6774 92.5165C94.5922 92.5772 94.5069 92.6378 94.4212 92.6978L94.354 92.7451C94.3184 92.7703 94.2829 92.7956 94.2474 92.821L94.1329 92.9034L94.1324 92.9037C93.8716 93.0916 93.6105 93.2796 93.3329 93.4359C93.2479 93.4839 93.1076 93.437 92.9766 93.3932L92.9411 93.3814C92.9248 93.3761 92.9087 93.3709 92.893 93.3661C92.8831 93.3631 92.8734 93.3602 92.8639 93.3576C92.7896 93.3362 92.7194 93.2991 92.6493 93.262L92.6491 93.2619C92.6174 93.2451 92.5857 93.2283 92.5536 93.213C92.6108 93.1606 92.6665 93.1058 92.7222 93.051C92.8458 92.9296 92.9694 92.8081 93.1095 92.7119C93.2993 92.5823 93.4983 92.4665 93.6974 92.3506L93.6974 92.3506L93.6976 92.3505L93.6977 92.3504L93.6979 92.3503L93.698 92.3502L93.6981 92.3501L93.6983 92.35L93.6984 92.3499L93.6985 92.3498L93.6987 92.3497L93.6988 92.3496L93.699 92.3495L93.6991 92.3495L93.6992 92.3494L93.6994 92.3493C93.8436 92.2654 93.9878 92.1815 94.1286 92.0923C94.4949 91.8593 94.8557 91.6163 95.2122 91.3683C95.2554 91.3382 95.2994 91.3085 95.3435 91.2788L95.344 91.2784L95.3441 91.2783C95.5265 91.1553 95.7111 91.0307 95.8533 90.8692C96.4578 90.1823 97.1375 89.5998 97.8426 89.0204C98.1704 88.7518 98.5296 88.5676 98.8871 88.3842L98.8871 88.3841L98.8872 88.3841L98.8873 88.384L98.8874 88.384L98.8875 88.384L98.8876 88.3839L98.8877 88.3839L98.8878 88.3838L98.8879 88.3838L98.888 88.3837L98.8881 88.3837L98.8882 88.3836L98.8882 88.3836L98.8883 88.3835L98.8884 88.3835L98.8885 88.3835L98.8886 88.3834C99.1387 88.2551 99.388 88.1272 99.625 87.971C99.7919 87.8615 100.003 87.8252 100.215 87.7887C100.331 87.7685 100.448 87.7484 100.559 87.716C100.772 87.6531 100.983 87.5837 101.194 87.5143C101.35 87.4628 101.507 87.4112 101.664 87.3625C101.709 87.3489 101.759 87.3506 101.808 87.3523L101.819 87.3527L101.841 87.3533L101.856 87.3534C102.05 87.3534 102.245 87.3481 102.44 87.3427C102.898 87.3301 103.356 87.3175 103.806 87.3745C104.088 87.4106 104.357 87.5461 104.626 87.6817C104.747 87.7426 104.868 87.8036 104.99 87.8555C104.984 87.8666 104.978 87.8802 104.973 87.8937L104.972 87.8938C104.961 87.9209 104.95 87.9476 104.933 87.9529C104.284 88.1377 103.652 88.2472 102.987 87.9329C102.782 87.8358 102.508 87.8712 102.252 87.9043C102.2 87.9109 102.15 87.9175 102.101 87.9228C101.862 87.949 101.626 88.0094 101.391 88.0695C101.338 88.083 101.285 88.0965 101.232 88.1096C101.184 88.1216 101.134 88.1329 101.085 88.1442C100.903 88.1858 100.72 88.2277 100.556 88.3074C99.9619 88.5946 99.374 88.8989 98.7958 89.2203C98.6043 89.3266 98.4212 89.4481 98.238 89.5696L98.2379 89.5697L98.2378 89.5697L98.2377 89.5698L98.2376 89.5698L98.2375 89.5699L98.2375 89.5699L98.2374 89.57L98.2373 89.57L98.2372 89.57L98.2371 89.5701L98.237 89.5701L98.2369 89.5702C98.0711 89.6803 97.9053 89.7903 97.7333 89.8891C97.6384 89.9436 97.536 89.986 97.4337 90.0284L97.4336 90.0284C97.1684 90.1383 96.9042 90.2478 96.7752 90.5659C96.765 90.5903 96.7347 90.6064 96.7046 90.6224L96.6953 90.6274L96.6845 90.6334C96.6783 90.6369 96.6723 90.6405 96.6668 90.6442C96.7343 90.6461 96.8031 90.6529 96.8718 90.6597H96.8719H96.872H96.8721H96.8722H96.8723C97.0269 90.675 97.1812 90.6902 97.3211 90.6492C97.5571 90.5811 97.7816 90.4705 98.0061 90.36C98.0826 90.3223 98.1592 90.2846 98.2362 90.2486C98.3475 90.1967 98.4574 90.1406 98.5673 90.0845L98.5673 90.0844C98.7806 89.9756 98.9938 89.8668 99.2167 89.7886C99.349 89.7423 99.4925 89.7333 99.6369 89.7243H99.637C99.74 89.7178 99.8433 89.7113 99.9433 89.6912C100.13 89.6545 100.314 89.6036 100.498 89.5526L100.499 89.5523L100.609 89.5221C100.643 89.5127 100.678 89.5035 100.712 89.4944L100.777 89.4773C100.822 89.4663 100.871 89.4633 100.918 89.4633C101.117 89.463 101.319 89.4733 101.521 89.4837C102.004 89.5084 102.486 89.5332 102.932 89.4121C103.112 89.3634 103.273 89.3793 103.432 89.3948H103.432C103.561 89.4075 103.689 89.42 103.822 89.397C104.08 89.3531 104.372 89.476 104.65 89.5931L104.65 89.5932C104.715 89.6206 104.779 89.6476 104.842 89.6721C105.147 89.7906 105.467 89.9182 105.718 90.122C106.013 90.3628 106.282 90.6352 106.551 90.9077L106.552 90.9079C106.665 91.023 106.779 91.1381 106.895 91.2508C106.886 91.2606 106.876 91.2718 106.866 91.2838C106.852 91.3001 106.838 91.3179 106.824 91.3356C106.771 91.402 106.718 91.4682 106.695 91.4586C106.582 91.4125 99.629 90.52 96.9129 92.0481C95.9276 92.6025 96.8342 96.6283 96.9101 96.9651L96.9129 96.9778C97.3211 98.7994 103.686 99.8495 106.108 99.4331C109.024 98.9318 109.199 95.7982 109.255 94.782C109.265 94.6036 109.272 94.4905 109.289 94.4682C109.445 94.2624 109.694 94.1519 109.916 94.3427C110.021 94.4331 110.091 94.6088 110.109 94.7534C110.125 94.8904 110.167 95.0209 110.208 95.1476L110.208 95.1478C110.24 95.2485 110.271 95.3469 110.289 95.4443C110.343 95.752 110.535 95.945 110.73 96.1399C110.866 96.2764 111.003 96.4138 111.094 96.5921ZM40.3512 77.8308L40.3511 77.8307C40.2598 77.8097 40.1687 77.7886 40.1079 77.8235C39.8956 77.9454 30.8658 82.0997 24.561 78.5455C24.4837 78.5019 24.3727 78.443 24.2398 78.3723L24.2397 78.3723L24.2396 78.3722C23.4503 77.9526 21.8867 77.1215 21.9804 76.6506C22.2356 75.368 25.8036 73.6057 26.2677 73.3765C26.2978 73.3616 26.3148 73.3532 26.3171 73.3518C26.297 73.3193 26.2787 73.2805 26.2605 73.2417C26.2201 73.156 26.1797 73.0703 26.1198 73.052C25.9473 72.9995 25.7462 72.9927 25.5681 73.0275C25.3602 73.0682 23.0975 73.5868 22.7011 73.8453C22.2843 74.117 21.1438 75.546 21.1647 76.0069C21.1738 76.2039 21.1099 76.4039 21.0457 76.605C21.0121 76.7104 20.9783 76.8161 20.955 76.9217C20.9413 76.9835 20.9386 77.051 20.9359 77.1179C20.9317 77.2238 20.9276 77.3282 20.8797 77.4058C20.8274 77.4905 20.7658 77.6265 20.6911 77.7913C20.5443 78.1151 20.3472 78.55 20.0718 78.9258C19.8653 79.2077 19.5845 79.4446 19.3711 79.6247C19.2435 79.7323 19.14 79.8196 19.0908 79.8842C19.0612 79.9229 19.0222 79.9617 18.9823 80.0014L18.9822 80.0014C18.872 80.111 18.7551 80.2273 18.8117 80.3662C18.8882 80.554 19.1576 80.4619 19.3024 80.4124L19.3056 80.4114C19.5165 80.3401 19.7171 80.2015 19.8894 80.0519C20.1307 79.842 20.3582 79.61 20.5617 79.362C20.7702 79.1069 20.9738 78.8378 21.1229 78.5455C21.2874 78.2212 21.6513 78.0869 21.9804 78.3196C31.2384 84.8657 39.9744 78.6259 40.3823 78.2533C40.4383 78.2024 40.4482 78.0983 40.4582 77.9939C40.4627 77.9458 40.4673 77.8977 40.4764 77.8547C40.4367 77.8505 40.3939 77.8406 40.3512 77.8308ZM81.6181 41.5896L81.6174 41.5904L81.6173 41.5905L81.617 41.5907C81.1634 42.0512 80.7188 42.5026 80.2988 42.977C80.151 43.1438 80.0588 43.363 79.9667 43.5819C79.9269 43.6765 79.8872 43.7709 79.843 43.8611C79.6051 44.3463 79.254 44.5285 78.6364 44.8039C78.2793 44.9632 77.9054 45.1154 77.5753 45.0489C77.3434 45.0021 77.1107 45.0057 76.8812 45.0093C76.6269 45.0132 76.3766 45.0171 76.1363 44.9523C75.844 44.8734 75.5237 44.615 75.3763 44.3447C75.2487 44.1105 75.3917 43.8066 75.6461 43.5549C75.9268 43.2772 76.1686 42.9586 76.4107 42.6396L76.4108 42.6395C76.5507 42.4552 76.6907 42.2707 76.8383 42.094C76.9964 41.9048 77.1531 41.7142 77.3099 41.5235L77.3099 41.5235C77.828 40.8934 78.3464 40.263 78.9132 39.6831C79.3817 39.2037 79.9645 38.8948 80.6516 38.696C81.2766 38.5153 81.754 38.5599 82.313 38.8058C82.5213 38.8974 82.7618 38.9104 83.0029 38.9235C83.1205 38.9298 83.2382 38.9362 83.3524 38.9517C83.7168 39.0012 83.9325 39.3542 83.6981 39.5259C83.4907 39.6779 83.1037 39.8273 82.9305 39.7286C81.9789 39.1861 81.0305 39.3142 80.0988 39.6785C79.8506 39.7755 79.6448 39.9977 79.4429 40.2157L79.4429 40.2157C79.3783 40.2854 79.3142 40.3547 79.2492 40.4193C78.7506 40.9149 78.2535 41.4135 77.7805 41.9346C77.5973 42.1363 77.4406 42.3636 77.2839 42.5906C77.226 42.6747 77.168 42.7587 77.1087 42.8413L76.9906 43.0056C76.791 43.2827 76.5913 43.5599 76.4055 43.8465C76.2673 44.0595 76.2854 44.0999 76.5014 44.1707C77.0405 44.3473 77.5667 44.3127 78.1027 44.1121C78.7572 43.8673 79.1337 43.354 79.5247 42.8212C79.5725 42.756 79.6205 42.6906 79.6692 42.6253C79.9881 42.1984 80.375 41.8251 80.7618 41.4519L80.7619 41.4518C80.9306 41.2891 81.0992 41.1264 81.2622 40.9592C81.2908 40.93 81.3201 40.9015 81.3495 40.873L81.3496 40.8729C81.4019 40.8221 81.4542 40.7714 81.502 40.7163C81.7392 40.4424 81.9784 40.1788 82.382 40.201C82.4005 40.202 82.4187 40.1784 82.4384 40.1529C82.4533 40.1336 82.4691 40.1131 82.4864 40.1017C82.512 40.0849 82.5427 40.0762 82.5735 40.0675C82.587 40.0637 82.6005 40.0598 82.6135 40.0553C82.6123 40.0637 82.6115 40.0722 82.6108 40.0809L82.6096 40.0983V40.0984C82.6074 40.1298 82.6053 40.1613 82.5927 40.1874C82.4598 40.4626 82.3224 40.7356 82.162 41.0344C81.98 41.2223 81.7984 41.4067 81.6181 41.5896ZM85.7511 37.1337C86.4231 36.4804 87.0997 35.8224 87.5579 34.9339C87.4473 34.896 87.3359 34.8873 87.2255 34.8787C87.1734 34.8747 87.1215 34.8707 87.0699 34.8636C86.984 34.8518 86.8975 34.8295 86.8113 34.8072C86.6604 34.7682 86.5106 34.7294 86.367 34.7484C86.101 34.7834 85.8262 34.8954 85.5955 35.0412C85.257 35.255 84.8969 35.4251 84.5361 35.5955L84.536 35.5955C84.0037 35.8469 83.4699 36.099 83.0016 36.4934C82.8731 36.6017 82.8098 36.7228 82.7495 36.8383C82.701 36.9312 82.6543 37.0205 82.5771 37.0966L82.6091 37.103L82.6471 37.1103L82.6928 37.1189C82.7781 37.1348 82.8635 37.1508 82.9471 37.1737C83.1463 37.2282 83.3449 37.2849 83.5436 37.3416C83.7126 37.3898 83.8816 37.4381 84.0509 37.485C84.0965 37.4976 84.142 37.511 84.1876 37.5245C84.3335 37.5676 84.4798 37.6108 84.6286 37.6273C84.6687 37.6317 84.7122 37.6379 84.7571 37.6442L84.7572 37.6443C84.9527 37.672 85.1752 37.7036 85.2657 37.612C85.425 37.4508 85.5878 37.2925 85.7508 37.134L85.7511 37.1337ZM85.7528 35.6685C85.7691 35.6756 85.7854 35.6827 85.7999 35.687C85.9096 35.6034 86.0692 35.5815 86.1167 35.6464C86.1797 35.7325 86.2109 35.9567 86.1594 35.9997C85.8263 36.2782 85.4791 36.5445 85.1102 36.7691C84.9688 36.8551 84.7569 36.842 84.5801 36.8297C84.525 36.8259 84.4191 36.6509 84.4402 36.5989L84.4499 36.575L84.4667 36.5329L84.4667 36.5328L84.467 36.5321C84.5393 36.35 84.633 36.1145 84.7418 36.1001C85.0795 36.0551 85.3307 35.8812 85.589 35.7023L85.6649 35.65C85.6824 35.638 85.7176 35.6533 85.7528 35.6685ZM101.401 69.0016C100.355 68.8739 99.3204 68.8738 98.2891 68.8737C97.9711 68.8737 97.6534 68.8737 97.3358 68.8699C97.1405 68.8676 96.9178 68.8266 96.7606 68.7211C96.6668 68.6588 96.6307 68.4246 96.657 68.2859C96.6746 68.1976 96.8553 68.0806 96.9608 68.0827C97.164 68.0868 97.507 68.0702 97.92 68.0501C98.9025 68.0023 100.281 67.9353 101.118 68.0827C103.038 68.4212 104.033 69.6819 103.976 69.6766C103.887 69.6685 103.797 69.6644 103.706 69.6604C103.476 69.6501 103.245 69.6398 103.038 69.5625C102.879 69.5031 102.724 69.4317 102.569 69.3599C102.204 69.1915 101.835 69.0214 101.401 69.0016ZM90.4538 33.4193C90.8259 33.2671 90.8406 33.0411 90.4878 32.8251C90.3874 32.8534 90.2983 32.8858 90.2144 32.9163L90.2142 32.9163L90.214 32.9164L90.2139 32.9164L90.2138 32.9165C90.1166 32.9518 90.0264 32.9846 89.9336 33.0057C89.7327 33.0517 89.5307 33.0929 89.3288 33.1341C89.022 33.1967 88.7154 33.2592 88.4128 33.3384C88.3051 33.3665 88.1487 33.5504 88.1617 33.6396C88.1848 33.7954 88.2867 33.9428 88.3823 34.0812L88.4123 34.1247C88.43 34.1505 88.559 34.1115 88.628 34.0815C88.715 34.0436 88.8005 34.0013 88.886 33.959C89.0242 33.8907 89.1623 33.8224 89.3066 33.7726C89.467 33.7173 89.6312 33.6726 89.7952 33.6279C90.0182 33.5671 90.241 33.5064 90.4538 33.4193ZM91.562 32.2225C91.5675 31.9022 91.5693 31.9019 92.0186 31.8232L92.0653 31.815C92.1603 31.7983 92.2511 31.7578 92.3422 31.717C92.4173 31.6835 92.4925 31.6498 92.5706 31.6294C92.6101 31.619 92.7341 31.7425 92.7245 31.7759C92.7191 31.7947 92.7136 31.8151 92.7078 31.8363L92.7066 31.8407L92.7063 31.8421C92.6651 31.9936 92.613 32.1858 92.5338 32.2029C92.4456 32.2217 92.3577 32.2675 92.2693 32.3136C92.042 32.432 91.8111 32.5523 91.562 32.2225ZM94.1645 31.0032C94.201 30.999 94.2374 30.9948 94.2721 30.9924C94.5431 30.9419 94.5504 30.768 94.5575 30.5997C94.5607 30.5254 94.5638 30.4521 94.5895 30.3911C94.5496 30.3985 94.5091 30.4043 94.4685 30.41C94.3772 30.4229 94.2859 30.4358 94.202 30.4686L94.1809 30.4767L94.1457 30.49C94.0125 30.54 93.8491 30.6014 93.8234 30.6929C93.7216 31.0544 93.9456 31.0285 94.1645 31.0032ZM97.2996 29.7873C97.2804 29.7959 97.2617 29.8046 97.2436 29.8131L97.2433 29.8133C97.1624 29.8512 97.0926 29.8839 97.032 29.8709C96.9463 29.8523 96.8649 29.8119 96.7834 29.7715C96.7489 29.7544 96.7143 29.7372 96.6795 29.7218C96.7269 29.7076 96.7741 29.6925 96.8214 29.6774C96.9298 29.6427 97.0384 29.6079 97.1492 29.585C97.3123 29.5512 97.3504 29.5988 97.2996 29.7873ZM113.468 16.2819C113.489 16.3717 113.511 16.4635 113.536 16.5569C113.562 16.6479 113.591 16.7229 113.618 16.7918L113.618 16.7919L113.619 16.7921C113.641 16.8492 113.662 16.9021 113.678 16.9565C113.871 17.6143 113.95 18.2856 113.935 18.9749C113.932 19.1253 113.967 19.2758 114.002 19.4269C114.029 19.5419 114.056 19.6572 114.066 19.7732C114.079 19.9164 114.076 20.0644 114.073 20.2118V20.2119V20.212V20.2121V20.2122V20.2123V20.2123V20.2124V20.2125C114.067 20.4754 114.062 20.7364 114.145 20.9651C114.276 21.3254 114.245 21.6725 114.215 22.0102C114.209 22.0745 114.204 22.1384 114.199 22.2021C114.159 22.7493 113.954 23.2234 113.391 23.5295C113.23 23.6173 113.069 23.6413 112.91 23.6649C112.769 23.686 112.629 23.7068 112.493 23.7721C112.307 23.8613 112.105 23.8919 111.899 23.923C111.639 23.9626 111.373 24.0029 111.128 24.1649C110.983 24.2602 110.791 24.2773 110.598 24.2944C110.413 24.3109 110.226 24.3275 110.081 24.4143C109.752 24.6105 109.521 24.5917 109.253 24.3886C109.131 24.2957 109.011 24.1995 108.89 24.1033L108.89 24.103C108.779 24.0144 108.668 23.9258 108.555 23.8395C108.423 23.7385 108.288 23.6417 108.147 23.5543C107.998 23.4613 107.816 23.4112 107.646 23.364C107.485 23.3195 107.334 23.2776 107.228 23.2051C106.936 23.0051 106.7 23.081 106.471 23.155C106.363 23.1899 106.256 23.2244 106.145 23.2295C106.056 23.2335 105.972 23.3729 105.888 23.512C105.85 23.5751 105.812 23.6382 105.774 23.6886C105.833 23.7197 105.895 23.7619 105.957 23.8041C106.094 23.8976 106.231 23.9909 106.338 23.9629L106.377 23.9525L106.433 23.9373C106.673 23.8704 106.883 23.8124 107.131 23.9804C107.243 24.0563 107.372 24.1063 107.5 24.1564C107.615 24.2011 107.73 24.2459 107.833 24.3092C107.869 24.3309 107.905 24.3526 107.941 24.3744C108.226 24.5464 108.517 24.7225 108.74 24.9607C109.086 25.3303 109.46 25.4659 109.959 25.3126C110.306 25.2054 110.658 25.1103 111.01 25.0152L111.01 25.0152C111.281 24.9418 111.552 24.8685 111.822 24.7896C111.967 24.7472 112.112 24.7085 112.257 24.6698L112.258 24.6697C112.878 24.5047 113.494 24.3405 114.029 23.8989C114.847 23.2219 114.874 22.3045 114.774 21.406C114.756 21.2456 114.735 21.0852 114.715 20.9245V20.9245V20.9244V20.9243V20.9243V20.9242V20.9242V20.9241V20.924C114.669 20.57 114.622 20.2147 114.606 19.8548C114.594 19.5683 114.601 19.2803 114.608 18.9923V18.9922V18.9922V18.9921V18.992V18.992V18.9919V18.9919V18.9918C114.627 18.2783 114.645 17.5644 114.359 16.8706C114.276 16.6675 114.229 16.4486 114.181 16.2296L114.181 16.2295C114.136 16.0185 114.091 15.8074 114.012 15.61C113.871 15.2502 113.649 14.9172 113.427 14.5991L113.401 14.5605C113.253 14.3483 113.066 14.0792 112.872 14.0549C112.704 14.0338 112.521 14.1379 112.338 14.2421C112.258 14.2873 112.179 14.3326 112.1 14.3676C112.141 14.3953 112.182 14.4228 112.223 14.4503C112.32 14.5159 112.418 14.5816 112.513 14.65C112.565 14.6876 112.615 14.7327 112.656 14.7827C112.712 14.8509 112.772 14.9173 112.832 14.9837C112.979 15.1454 113.125 15.3073 113.218 15.4967C113.336 15.7333 113.399 15.9978 113.468 16.2819ZM105.41 25.9295L105.406 25.9211C105.373 25.9065 105.339 25.9035 105.316 25.9015C105.3 25.9 105.289 25.8991 105.287 25.8946C105.252 25.7939 105.222 25.6913 105.192 25.5886L105.192 25.5884L105.169 25.5117C105.156 25.5579 105.138 25.6045 105.12 25.6511C105.08 25.7543 105.04 25.8576 105.047 25.9572C105.097 26.6409 105.158 27.3022 105.484 27.9516C105.63 28.244 105.687 28.5817 105.744 28.9211L105.744 28.9212V28.9213L105.744 28.9217C105.792 29.2082 105.84 29.4958 105.943 29.7584L105.983 29.8605C106.17 30.3395 106.355 30.8146 106.447 31.3207C106.481 31.5103 106.441 31.733 106.376 31.9189C106.301 32.1359 106.149 32.3098 105.996 32.4843C105.766 32.7478 105.535 33.0124 105.565 33.428C105.567 33.4654 105.533 33.5056 105.499 33.5459C105.483 33.565 105.467 33.5842 105.454 33.603C105.478 33.5939 105.502 33.5861 105.527 33.5783L105.527 33.5783L105.527 33.5783L105.527 33.5782L105.527 33.5782C105.584 33.5601 105.641 33.5419 105.686 33.5077C105.713 33.4873 105.73 33.4523 105.746 33.4173C105.762 33.3839 105.778 33.3505 105.803 33.3298C105.876 33.2707 105.948 33.2135 106.021 33.1567L106.021 33.1566L106.021 33.1565C106.454 32.8176 106.869 32.492 107.063 31.8552C107.233 31.2985 107.174 30.8646 106.986 30.404C106.879 30.144 106.749 29.8903 106.619 29.6372L106.619 29.6371C106.387 29.1838 106.155 28.7326 106.061 28.2511C105.936 27.613 105.79 26.9891 105.601 26.3718C105.557 26.2284 105.49 26.0926 105.41 25.9295ZM119.493 46.9844C119.288 46.9414 119.103 46.8969 118.925 46.8541C118.826 46.8302 118.728 46.8068 118.631 46.7844L118.562 46.7685L118.445 46.7412C118.192 46.6818 117.938 46.6224 117.682 46.583C117.543 46.5617 117.401 46.5574 117.26 46.5531C117.155 46.5499 117.051 46.5467 116.947 46.5367C116.791 46.5216 116.626 46.505 116.485 46.4424C116.36 46.387 116.244 46.3084 116.129 46.2299L116.129 46.2299C116.079 46.196 116.029 46.1621 115.978 46.1301L116.025 46.1282L116.086 46.1262L116.175 46.1237C116.328 46.1196 116.481 46.1156 116.632 46.0974C116.706 46.0884 116.78 46.0659 116.853 46.0436C116.951 46.0139 117.048 45.9844 117.145 45.9868L117.248 45.9894H117.248C117.905 46.0059 118.564 46.0224 119.217 46.0898C119.641 46.1336 120.061 46.2265 120.48 46.3192L120.591 46.3438C120.653 46.3575 120.715 46.3711 120.778 46.3845C121.145 46.4632 121.51 46.5578 121.874 46.6522L121.997 46.6841C122.322 46.768 122.645 46.8577 122.967 46.9476L122.968 46.9476L122.968 46.9477L122.968 46.9477L122.968 46.9478L122.968 46.9478L123.103 46.9853C123.149 46.9982 123.194 47.0165 123.239 47.0348C123.253 47.0406 123.267 47.0463 123.281 47.0518L123.302 47.06C123.286 47.0836 123.269 47.1136 123.252 47.1437C123.216 47.2096 123.179 47.2758 123.143 47.2755C122.969 47.2743 122.795 47.3067 122.621 47.3391C122.258 47.4067 121.894 47.4745 121.526 47.2389C121.46 47.197 121.384 47.2055 121.298 47.2152C121.187 47.2276 121.06 47.242 120.913 47.1568C120.653 47.0061 120.312 47.0031 119.955 46.9999C119.802 46.9986 119.647 46.9972 119.493 46.9844ZM42.4274 64.0022C47.9438 63.2895 52.5434 62.6952 52.5319 62.5412C52.5312 62.5318 52.5388 62.5063 52.5498 62.4693C52.621 62.2294 52.8367 61.5032 51.8853 61.4908C47.802 61.4376 35.947 62.8675 24.8063 65.3231C8.99952 68.6557 -0.107156 73.3003 0.00095174 73.6164C0.0500917 73.7601 3.98056 72.5747 8.80439 71.1199L8.80449 71.1199C14.593 69.3741 21.6679 67.2405 24.8662 66.5497L25.2225 66.4737C28.2727 65.831 35.9768 64.8357 42.4274 64.0022ZM28.9685 74.0567C29.9713 74.0567 31.4186 74.1686 33.2706 74.8143L33.7354 74.978C34.0895 75.1037 34.7473 75.2891 35.7009 75.5314C35.9223 75.5876 36.0575 75.8178 36.0027 76.0455C35.948 76.2732 33.1237 75.6601 33.1237 75.6601C31.2144 74.9909 30.4525 74.8079 29.5601 74.8483C28.6915 74.8876 26.8561 75.5808 25.4622 76.1073L25.4621 76.1073L25.462 76.1073C24.4777 76.4791 23.7136 76.7677 23.6655 76.6842C23.5492 76.4824 23.6868 76.2262 23.8104 76.1024C25.0614 74.8483 25.7547 74.4943 28.9685 74.0567ZM97.1117 66.7564C97.1793 66.6955 97.2308 66.6142 97.2561 66.5184C97.3244 66.2597 95.3767 65.871 94.0652 66.375C93.7991 66.4773 93.5632 66.6363 93.3051 66.8681C93.2617 66.9071 93.1659 67.0427 93.0472 67.2106L93.0471 67.2108C92.8524 67.4864 92.5964 67.8488 92.41 68.0136C92.11 68.2789 91.601 68.5614 91.2518 68.7422C91.1105 68.8154 90.5732 68.9377 89.9676 69.0756L89.9675 69.0756C88.9973 69.2964 87.8517 69.5572 87.8777 69.72C87.9198 69.9845 88.3936 69.9445 88.6509 69.9011C89.0982 69.8258 89.4843 69.7681 89.8202 69.7179L89.8203 69.7179C90.6799 69.5895 91.2107 69.5101 91.599 69.3091C92.021 69.0905 92.3856 68.8327 92.7409 68.5185C92.7973 68.4686 92.8769 68.3935 92.9665 68.3072L93.2516 68.0288C93.2069 68.4014 93.3285 68.7601 93.6354 69.0146L93.752 69.1103C97.4088 72.0834 101.364 72.5335 105.538 70.4565L105.603 70.4236L105.634 70.5943C105.742 71.1607 105.897 71.6325 106.102 72.0112C106.406 72.5717 106.924 73.122 107.653 73.6723L108.212 72.8897L108.119 72.8187C107.541 72.3701 107.145 71.9406 106.927 71.5389C106.697 71.1133 106.534 70.4748 106.45 69.6281L106.379 68.9025L105.755 69.2508L105.631 69.3193C101.547 71.5534 97.7768 71.2015 94.2279 68.259C94.207 68.2416 94.1858 67.949 94.2279 67.8225C94.3021 67.6 94.4715 67.1554 94.9064 67.0016C95.1901 66.9012 97.1117 66.7564 97.1117 66.7564ZM126.643 41.2167L126.447 40.8515C126.299 40.5794 126.108 40.2304 126.013 40.0701L125.982 40.0193C125.597 39.4056 125.527 38.6278 125.625 37.3684L125.666 36.9029L125.704 36.4977C125.815 35.25 125.787 34.7745 125.565 34.5288L125.531 34.4933C125.31 34.2738 125.052 34.2767 124.119 34.4897L123.891 34.5426C122.813 34.7966 122.101 34.8585 121.277 34.657L120.564 34.4749C120.383 34.4293 120.204 34.3844 120.075 34.352L120.073 34.3516L119.95 34.3207C119.918 34.3127 119.897 34.3073 119.888 34.3051L119.695 34.2544C117.996 33.7968 117.281 33.3052 117.014 32.1144C116.95 31.8302 116.976 31.5363 117.077 31.1698L117.099 31.0901C117.164 30.8691 117.481 29.9918 117.481 29.9923C117.552 29.7844 117.612 29.5947 117.665 29.404L117.734 29.1561C117.791 28.9444 117.851 28.7195 117.912 28.4789L118.557 25.8831C118.673 25.4254 118.772 25.0457 118.812 24.9176L118.995 24.3642L119.072 24.1399C119.123 23.9966 119.171 23.8645 119.221 23.7359C119.624 22.6976 120.052 22.0564 120.655 21.8794C121.211 21.7162 121.62 21.7385 122.068 21.9221C122.161 21.9604 122.403 22.0792 122.587 22.1693L122.587 22.1694C122.686 22.2179 122.768 22.258 122.801 22.2729C123.249 22.4769 123.709 22.6066 124.332 22.6709L124.451 22.6822C124.751 22.7084 124.998 22.6746 125.731 22.5098L126.257 22.39C126.816 22.2653 127.182 22.2035 127.583 22.1779C127.947 22.1546 128.286 22.1709 128.608 22.2335C129.139 22.3367 129.952 22.6765 131.07 23.255C131.244 23.3454 131.315 23.5643 131.227 23.7438C131.139 23.9234 130.926 23.9957 130.751 23.9052L130.543 23.7984C129.589 23.3139 128.894 23.0301 128.476 22.9489C128.216 22.8982 127.936 22.8847 127.627 22.9045C127.248 22.9287 126.89 22.9915 126.306 23.1243L125.866 23.2248C125.085 23.4003 124.803 23.4396 124.429 23.4107L124.391 23.4076C123.626 23.3409 123.061 23.1874 122.514 22.9387L121.903 22.6425C121.861 22.6226 121.827 22.6071 121.805 22.5983C121.503 22.4742 121.254 22.4606 120.849 22.5794C120.537 22.6712 120.202 23.173 119.879 24.0058C119.82 24.1568 119.763 24.3144 119.702 24.4929L119.487 25.1365C119.392 25.4221 118.696 28.2676 118.673 28.3656L118.559 28.8102C118.485 29.0953 118.415 29.3588 118.346 29.6049C118.3 29.7695 118.25 29.9326 118.192 30.1042L118.148 30.2347C118.091 30.4015 118.04 30.5495 117.995 30.6811C117.675 31.6083 117.637 31.72 117.662 31.8151C117.665 31.8281 117.67 31.8408 117.675 31.8553C117.683 31.8767 117.692 31.902 117.701 31.9377L117.704 31.9506C117.898 32.8161 118.437 33.1732 119.971 33.5756L121.362 33.9286C122.062 34.1145 122.67 34.0758 123.622 33.8588L124.225 33.7183C124.626 33.6269 124.728 33.6152 124.959 33.6056C125.423 33.5866 125.794 33.7127 126.084 34.0333C126.507 34.5021 126.547 35.0363 126.411 36.552L126.34 37.3156L126.323 37.5294C126.251 38.5362 126.308 39.1604 126.551 39.5816L126.627 39.708C126.7 39.832 126.81 40.0293 126.918 40.2261L127.262 40.8629L127.308 40.9448C127.768 41.7599 128.148 42.2167 128.552 42.3746L128.595 42.3904C129.111 42.5644 129.75 42.2191 130.573 41.1192L130.68 40.9764C130.804 40.8177 130.932 40.718 131.517 40.345L132.422 39.7736L132.531 39.7031C133.095 39.3348 133.428 39.0608 133.502 38.9059C134.366 37.0905 134.918 34.2569 134.751 31.0355C134.731 30.6317 134.522 30.0131 134.121 29.1979L134.073 29.1016L134.051 29.0887C133.104 28.5354 132.415 28.0097 131.982 27.5029L131.931 27.4421C131.487 26.8987 131.04 26.0118 130.58 24.7738C130.51 24.586 130.602 24.3756 130.784 24.3038C130.967 24.232 131.172 24.3261 131.241 24.5139C131.676 25.6826 132.09 26.5052 132.473 26.9737C132.826 27.4054 133.435 27.8823 134.299 28.3958L134.511 28.5197L134.603 28.5726L134.652 28.6686C135.159 29.6641 135.429 30.4326 135.458 30.9969C135.631 34.3413 135.056 37.2985 134.137 39.2262C133.982 39.5531 133.599 39.8683 132.91 40.3179L132.738 40.4286L132.006 40.8908C131.398 41.277 131.276 41.3702 131.193 41.4832C130.182 42.8623 129.254 43.3786 128.375 43.0822C127.715 42.86 127.227 42.2701 126.643 41.2167ZM137.348 19.3829C137.171 19.2987 136.96 19.3784 136.879 19.5609C136.702 19.9552 136.425 20.2027 136.029 20.3228C135.746 20.409 135.428 20.4587 135.039 20.4848C134.903 20.4939 134.787 20.4993 134.613 20.5044L134.015 20.5201C133.057 20.5522 132.64 20.6355 132.221 20.9454C131.667 21.3563 131.434 22.6698 131.628 23.4263L131.639 23.4677C131.646 23.4962 131.653 23.5267 131.66 23.56L131.684 23.6697C131.689 23.6928 131.734 23.9128 131.759 24.0341L131.793 24.187C131.823 24.3191 131.852 24.4369 131.885 24.5517C132.016 25.0107 132.19 25.3824 132.445 25.6887C132.481 25.7309 132.579 25.9145 132.688 26.1244L133.06 26.8548C133.36 27.3993 133.673 27.7952 134.068 28.06C134.234 28.1716 134.387 28.2178 134.673 28.2708L134.8 28.2946C135.032 28.3392 135.141 28.3673 135.279 28.4228L135.387 28.4676C135.494 28.51 135.621 28.5412 135.805 28.5741L135.937 28.5964C135.93 28.5953 136.246 28.6447 136.424 28.674L136.615 28.7074C136.797 28.7415 136.958 28.7778 137.112 28.8205C137.261 28.8622 137.4 28.9091 137.529 28.9625L137.611 28.9954C137.741 29.0459 137.85 29.0774 138.042 29.124L138.221 29.1664C138.302 29.186 138.36 29.2015 138.412 29.2182L138.473 29.239C138.701 29.3232 138.894 29.4704 139.136 29.7788C139.457 30.1872 139.457 30.3787 139.21 30.5541C139.05 30.6685 139.009 30.8952 139.121 31.0606C139.232 31.2259 139.452 31.2673 139.613 31.1529C140.242 30.7056 140.242 30.0281 139.687 29.3214C139.366 28.9127 139.067 28.6849 138.712 28.5538C138.641 28.5276 138.575 28.5072 138.494 28.4857L138.388 28.4589L138.167 28.4061C138.029 28.372 137.948 28.348 137.857 28.3127L137.699 28.2495C137.571 28.2005 137.437 28.1569 137.296 28.1177C137.088 28.0597 136.871 28.0131 136.622 27.9695L135.943 27.8597C135.782 27.8311 135.683 27.8068 135.627 27.7823C135.407 27.687 135.273 27.6469 134.997 27.5921L134.751 27.5454C134.588 27.5135 134.512 27.4889 134.454 27.4501C134.172 27.2611 132.661 24.6841 132.564 24.3464C132.528 24.2206 132.496 24.0876 132.461 23.9275L132.363 23.4525C132.354 23.412 132.346 23.3748 132.337 23.3398L132.313 23.2401C132.185 22.7438 132.364 21.7372 132.635 21.5361C132.909 21.3331 133.265 21.2703 134.139 21.2447L134.638 21.232C134.818 21.2267 134.94 21.221 135.085 21.2112L135.214 21.2016C135.595 21.17 135.923 21.1142 136.23 21.021C136.822 20.8413 137.259 20.4498 137.521 19.8659C137.603 19.6834 137.526 19.4672 137.348 19.3829Z" fill="#00160A"/>
<path fill-rule="evenodd" clip-rule="evenodd" d="M54.6459 57.2273C54.776 56.9648 54.8871 56.736 55.0419 56.5447C55.1986 56.3512 55.3966 56.1923 55.5832 56.0262C55.6017 56.0098 55.7045 56.0509 55.7039 56.0619C55.701 56.1197 55.6946 56.1951 55.6583 56.2307C55.381 56.5019 55.3579 56.8622 55.273 57.217C55.18 57.6058 55.2743 57.9101 55.4466 58.2342C55.5614 58.4503 55.6452 58.6876 55.7171 58.9237C55.8684 59.4212 56.0178 59.9202 56.1388 60.4261C56.2205 60.7672 56.2957 61.1205 56.2988 61.4689C56.3147 63.2261 56.3055 64.9834 56.3063 66.7406C56.3068 67.6384 56.2945 68.5365 56.32 69.4335C56.3284 69.7261 56.4826 70.0149 56.4875 70.3069C56.4914 70.5429 56.3762 70.7828 56.3004 71.0163C56.2896 71.0498 56.1726 71.0884 56.1558 71.0714C56.0357 70.9498 55.8347 70.8159 55.8327 70.6831C55.8172 69.6508 55.8557 68.6178 55.8456 67.5853C55.8411 67.1195 55.7369 66.6552 55.7256 66.189C55.6991 65.1029 55.8178 63.9973 55.6551 62.9356C55.528 62.1061 55.5589 61.3163 55.5714 60.5007C55.5742 60.3176 55.0775 60.0893 54.7809 59.9479C54.3958 59.7642 54.1511 60.0098 53.9686 60.3392C53.952 60.369 53.8829 60.3836 53.8828 60.4054C53.8739 62.3239 53.8619 64.2424 53.8692 66.1609C53.8714 66.7162 53.9335 67.271 53.9603 67.8265C53.9702 68.0344 53.9487 68.1426 54.2594 68.0939C54.7846 68.0116 55.4743 68.8097 55.3223 69.2654C55.2052 69.6162 54.9931 69.9334 54.8756 70.2841C54.6102 71.0758 54.0302 71.8412 54.286 72.7011C54.4803 73.3541 54.9008 73.9644 55.3302 74.5016C55.5013 74.7155 55.9696 74.6703 56.2965 74.7647C56.407 74.7969 56.5357 74.8762 56.5859 74.9726C56.6183 75.0359 56.5478 75.2005 56.4766 75.2568C56.4337 75.2909 56.3012 75.2026 56.2083 75.1714C56.0558 75.1202 55.9057 75.0449 55.7493 75.0258C55.0135 74.9384 54.9726 74.8923 54.6382 74.0497C54.5184 73.7477 54.2937 73.4905 54.1663 73.1906C54.0462 72.9076 53.9782 72.5985 53.9114 72.2953C53.8472 72.003 53.7617 71.6999 53.7805 71.408C53.8024 71.0641 53.8998 70.7173 54.0143 70.3902C54.1164 70.0983 54.2918 69.834 54.4192 69.5501C54.4339 69.5171 54.3582 69.4224 54.3055 69.3838C54.2769 69.3629 54.1985 69.3852 54.159 69.4129C53.7781 69.68 53.5968 70.1111 53.3557 70.4888C53.2764 70.613 53.3009 70.8074 53.2787 70.9699C53.2457 71.2127 53.1823 71.4565 53.1877 71.6985C53.1977 72.1462 53.149 72.6334 53.3027 73.0315C53.6223 73.859 53.9317 74.7326 54.5837 75.3482C54.8236 75.5751 55.2221 75.6836 55.622 75.7388C56.1488 75.8111 56.6481 75.6544 57.1646 75.7147C57.4007 75.7428 57.6574 75.5309 57.9044 75.5319C58.2056 75.5329 58.4414 75.3632 58.7079 75.319C59.0124 75.2678 59.2639 75.1333 59.5293 75.0037C59.9625 74.7928 60.4324 74.6422 60.8277 74.3741C61.1793 74.1351 61.4476 73.7683 61.7583 73.4642C62.2378 72.9945 62.6422 72.4755 62.9643 71.8711C63.1061 71.605 63.3309 71.4027 63.2382 71.0657C63.2238 71.0133 63.1875 70.9295 63.1567 70.9273C63.0883 70.9225 62.995 70.9376 62.9503 70.9839C61.9344 72.0381 60.9436 73.1192 59.8986 74.1421C59.6167 74.4173 59.1762 74.5247 58.8033 74.6984C58.5956 74.7948 58.3733 74.8571 58.1646 74.9515C57.7102 75.1564 57.3497 74.8712 56.9623 74.7225C56.9805 74.6814 56.991 74.6121 57.0178 74.604C57.6488 74.4313 58.2883 74.2877 58.9109 74.088C59.1988 73.9955 59.4679 73.8166 59.7204 73.6392C59.9649 73.4673 60.1673 73.2334 60.4054 73.0503C61.2955 72.3657 62.024 71.56 62.3726 70.4408C62.4669 70.1379 63.1007 69.9458 63.4654 70.0577C63.6848 70.1251 63.9359 70.1194 64.129 70.2285C64.2527 70.2985 64.3856 70.5352 64.3612 70.6675C64.2316 71.3733 63.8011 71.8966 63.3209 72.3989C63.0019 72.7326 62.8047 73.194 62.4731 73.5094C61.9111 74.0438 61.3244 74.5719 60.6765 74.9836C60.0217 75.4004 59.2947 75.7107 58.5716 75.9929C58.0536 76.1947 57.4959 76.3443 56.9458 76.3915C56.0068 76.4729 55.0826 76.3955 54.2497 75.8221C53.728 75.4626 53.3762 74.9646 53.1047 74.4263C52.9523 74.125 53.0987 73.6711 52.9653 73.3495C52.7008 72.7116 52.652 72.0572 52.7077 71.3997C52.7455 70.9511 53.0159 70.5156 53.0174 70.0737C53.0193 69.5773 53.3743 69.3336 53.5292 68.9588C53.5604 68.8833 53.477 68.7655 53.4766 68.6671C53.4723 67.5458 53.4745 66.4245 53.4736 65.3032C53.4732 64.7387 53.5075 64.1703 53.4542 63.6111C53.4231 63.286 53.2272 62.981 53.1494 62.6558C53.1098 62.4904 53.1771 62.3005 53.1791 62.1215C53.1844 61.6137 53.1361 61.1006 53.1923 60.5994C53.2628 59.9687 53.4337 59.3507 53.5263 58.7216C53.578 58.3702 53.5595 58.0077 53.5715 57.6502C53.5951 56.947 53.735 56.2527 54.2115 55.7469C54.5833 55.3523 55.028 54.9793 55.6451 54.9776C55.7966 54.9772 56.0035 54.6955 56.0876 54.7395C56.2791 54.8399 56.4651 55.0405 56.5404 55.2444C56.5738 55.3349 56.3592 55.5703 56.2127 55.6726C55.9522 55.8543 55.6479 55.848 55.3298 55.8339C54.8072 55.8106 54.3305 56.5139 54.1289 57.1312C53.9636 57.6376 54.2164 58.0887 54.1039 58.571C54.0704 58.7145 54.3457 58.938 54.4901 59.1159C54.5051 59.1345 54.6388 59.0918 54.639 59.0766C54.6423 58.7722 54.6626 58.4634 54.6201 58.1645C54.5799 57.8816 54.3946 57.5975 54.7383 57.3832C54.7075 57.348 54.6767 57.3127 54.6459 57.2273Z" fill="#2D46BE"/>
<path fill-rule="evenodd" clip-rule="evenodd" d="M73.9829 80.2236C73.891 80.7367 73.7933 81.1987 73.7127 81.6626C73.6995 81.7399 73.7814 81.8293 73.7843 81.9147C73.8089 82.6447 73.6792 83.3668 73.6565 84.0968C73.6455 84.4473 73.6757 84.8309 73.5822 85.1753C73.4661 85.6021 73.6336 86.1625 73.1024 86.4135C72.8975 86.5099 72.5964 86.6927 72.4767 86.6144C72.2451 86.4627 71.86 86.3794 71.9208 85.9114C71.9743 85.4997 71.8623 85.0599 71.9475 84.6612C72.0932 83.9793 71.9385 83.2914 72.0528 82.6287C72.1222 82.227 72.047 81.8263 72.1377 81.4467C72.284 80.8342 72.262 80.2105 72.3408 79.597C72.4157 79.0135 72.4608 78.4281 72.535 77.8476C72.6117 77.2471 72.6561 76.6446 72.7353 76.0491C72.8061 75.5159 72.7942 74.9515 72.9436 74.4584C73.076 74.0211 72.7655 73.5174 73.1801 73.1399C73.237 73.0881 73.0883 72.8421 73.111 72.6988C73.2996 71.508 73.1521 70.31 73.2112 69.1175C73.2153 69.0333 73.3446 68.9125 73.4375 68.8842C73.7295 68.7952 74.0301 68.7279 74.3318 68.6859C74.4018 68.676 74.5595 68.8004 74.5584 68.8608C74.5404 69.8845 74.4829 70.9077 74.4782 71.9312C74.4748 72.6699 74.5539 73.4089 74.5612 74.1481C74.5648 74.5076 74.4799 74.8682 74.4504 75.2297C74.4197 75.6052 74.5338 75.9627 74.3187 76.3634C74.1566 76.6647 74.2988 77.1306 74.2717 77.5203C74.221 78.2493 74.178 78.9824 74.0544 79.6994C74.0284 79.851 73.973 80.0077 73.9829 80.2236ZM72.6156 85.4957C72.776 85.7447 72.7675 85.7377 72.9153 85.5479C73.0896 85.3239 72.9574 85.0628 73.0144 84.8359C73.1673 84.2253 73.1292 83.5997 73.2015 82.9841C73.2595 82.4901 73.3421 81.997 73.3681 81.5019C73.4015 80.8623 73.3372 80.2135 73.4128 79.5809C73.4777 79.0376 73.4573 78.4923 73.6444 77.94C73.8342 77.3797 73.7528 76.7219 73.7864 76.1063C73.7945 75.9557 73.7324 75.7699 73.7976 75.6605C74.0197 75.2879 73.8209 74.8993 73.8755 74.5237C73.8828 74.4735 73.7587 74.4042 73.6955 74.343C73.659 74.4143 73.6003 74.4815 73.5897 74.5568C73.5197 75.0479 73.4407 75.538 73.4017 76.032C73.3498 76.6878 73.3317 77.3475 73.2995 78.0053C73.2971 78.0555 73.3196 78.1218 73.2961 78.1539C73.0314 78.5184 73.2366 78.9533 73.1167 79.362C72.965 79.8781 73.033 80.4626 73.0063 81.0179C73.0056 81.035 73.0091 81.0521 73.0059 81.0681C72.9259 81.4567 72.8253 81.8434 72.7711 82.236C72.7275 82.5513 72.907 82.8395 72.6587 83.2061C72.4701 83.4852 72.6352 84.0054 72.609 84.4151C72.5931 84.6632 72.4972 84.9052 72.4698 85.1542C72.4617 85.2275 72.5639 85.3149 72.6156 85.4957ZM73.8852 71.738C73.8957 71.4596 73.9068 71.181 73.9157 70.9025C73.917 70.8632 73.9077 70.7893 73.9027 70.7893C73.841 70.7886 73.7283 70.7891 73.7249 70.8074C73.6754 71.0858 73.63 71.3663 73.613 71.6482C73.6105 71.6899 73.7582 71.7414 73.8852 71.738Z" fill="#00160A"/>
<path fill-rule="evenodd" clip-rule="evenodd" d="M54.8168 73.1188C54.7951 72.9263 54.7977 72.759 54.8005 72.5916C54.9338 72.631 55.0827 72.6435 55.1977 72.7143C55.8031 73.0871 56.397 73.4795 57.0023 73.8524C57.1079 73.9175 57.2473 73.9326 57.3738 73.9512C57.4709 73.9655 57.5725 73.9488 57.672 73.9459C57.5767 74.03 57.4627 74.2014 57.389 74.1843C56.9277 74.0795 56.3786 74.4655 55.9947 73.9317C55.9871 73.9215 55.9447 73.9246 55.9284 73.9361C55.756 74.0603 55.5626 74.3038 55.3697 74.0681C55.1493 73.7983 55.0136 73.4552 54.8168 73.1188Z" fill="#00160A"/>
</svg>
