<svg width="275" height="181" viewBox="0 0 275 181" fill="none" xmlns="http://www.w3.org/2000/svg">
<path d="M190.689 2.5228C220.004 -3.38306 247.037 3.64505 261.537 23.5253C268.782 33.4577 271.476 46.3374 271.951 58.5317C272.426 70.7188 270.681 82.1631 269.1 89.1693C265.951 103.132 257.953 115.948 247.993 127.1C229.492 147.814 204.484 163.672 176.523 172.232C148.554 180.795 118.18 182.552 89.0209 178.219C80.8537 177.005 63.9862 173.422 47.7914 165.659C31.5854 157.891 16.1489 145.984 10.6744 128.17C5.13672 110.151 0.64113 93.515 0.503256 79.835C0.434396 73.0026 1.45375 66.9394 3.9505 61.8231C6.44302 56.7154 10.4215 52.5227 16.3244 49.4434C28.2125 43.2416 38.2483 42.4818 46.7781 43.8322C53.5928 44.911 59.4421 47.3313 64.5619 49.4498C65.8741 49.9927 67.1384 50.5159 68.3588 50.9915C96.3207 61.8899 119.663 51.1296 139.61 37.0147C145.945 32.5322 151.968 27.6878 157.689 23.0866C160.959 20.4562 164.131 17.9052 167.205 15.5467C175.699 9.03132 183.458 3.97957 190.689 2.5228Z" fill="#7075CE" stroke="black"/>
<path fill-rule="evenodd" clip-rule="evenodd" d="M232.032 35.7733C236.753 35.4451 241.842 35.6574 245.689 38.1417C249.537 40.626 251.284 46.0812 248.125 49.2556C251.697 47.999 255.894 50.1303 257.684 53.1829C259.473 56.2355 259.379 59.8928 258.841 63.3098C257.508 71.7722 253.675 79.9051 247.84 86.6492C247.572 87.3602 247.304 88.0711 247.036 88.782C253.932 90.382 280.86 99.7936 273.584 122.995C266.308 146.197 234.533 155.028 231.281 157.805C225.612 162.645 216.959 162.976 209.149 162.753C189.945 162.204 170.8 160.008 152.058 156.203C150.464 155.88 148.446 155.682 147.527 156.898C140.879 165.695 126.976 166.482 115.185 165.716C100.039 164.732 84.9803 162.665 70.1976 159.54C61.8124 157.767 52.9082 155.299 47.6845 149.136C41.5948 141.951 42.2981 131.988 43.2862 122.995C39.2836 124.998 32.6451 126.083 23.3705 126.249C17.9099 125.247 14.5037 123.466 13.1519 120.905C6.97043 109.196 4.85066 94.1078 12.5484 82.5666C13.4731 81.1802 14.54 79.814 16.0457 78.9317C17.642 77.9964 19.5881 77.6889 21.4856 77.5376C28.9695 76.9411 36.6481 78.5132 43.1087 81.9648C43.051 63.0673 42.9934 44.1698 42.9357 25.2724C42.9324 24.1902 42.9491 23.0419 43.5902 22.1263C44.5174 20.802 46.4169 20.3916 48.1266 20.1043C63.6791 17.4915 79.408 15.7293 95.1976 14.8308C100.357 14.5372 107.417 15.8294 107.441 20.4816C107.531 38.298 107.621 56.1144 107.711 73.9308C107.732 78.1713 108.035 77.8167 110.242 76.5879C108.855 76.7173 109.164 74.5991 110.216 73.774C114.142 70.6939 119.863 70.5806 125.071 70.6286C136.72 70.7359 148.369 70.8432 160.018 70.9505C171.306 71.0544 184.841 72.3426 189.951 81.4006C189.803 78.7086 192.514 76.1682 195.509 76.1929C198.775 76.2199 201.507 73.6701 202.46 70.8587C203.413 68.0472 202.993 65.0264 202.564 62.1125C197.297 57.5233 195.919 49.7222 199.343 43.8891C202.768 38.056 210.705 34.6846 217.885 36.0134C222.523 36.8717 227.311 36.1014 232.032 35.7733ZM96.8597 123.167C96.7048 126.918 96.5407 130.72 95.314 134.307L96.8597 123.167ZM92.0334 77.132C93.1176 77.4175 94.4591 78.2828 93.8899 79.161C98.5999 79.5845 97.1935 79.3883 97.4054 74.3932C97.6204 69.3245 97.6384 63.7201 93.9512 59.8838C90.6885 56.4891 85.3675 55.4274 80.3984 55.0456C74.5983 54.6 68.7361 54.8141 62.9952 55.6813C60.1941 56.1044 57.1601 56.8334 55.5346 58.9296C54.6248 60.1027 54.2901 61.5515 54.0228 62.9617C52.9716 68.5089 52.6432 74.1668 53.0467 79.7823C65.1222 74.7261 79.2509 73.7656 92.0334 77.132ZM196.831 114.372C197.126 114.104 197.573 114.039 197.989 113.987C199.648 113.782 201.308 113.577 202.967 113.371C199.159 111.823 196.85 108.146 196.161 104.437C195.471 100.728 196.145 96.9351 196.825 93.2245C194.389 95.6643 194.564 99.3455 194.883 102.613C195.582 109.765 196.536 114.641 196.831 114.372ZM165.499 149.599C165.825 148.643 166.936 148.13 167.75 147.45C169.214 146.225 169.758 144.374 170.236 142.627C171.886 136.59 173.547 130.479 173.526 124.262C173.522 122.945 173.448 121.592 173.932 120.349C174.417 119.106 175.631 117.982 177.095 117.976C178.638 117.969 179.006 116.042 178.868 114.659C178.393 109.889 177.917 105.119 177.441 100.35C177.289 98.8263 177.134 97.2887 176.621 95.8307C174.721 90.4401 167.402 87.1808 161.488 89.0919C160.764 89.3259 160.571 90.1489 160.489 90.8372C159.579 98.4667 158.668 106.096 157.758 113.725C157.596 115.081 159.541 115.946 161.009 115.61C162.478 115.275 163.599 114.242 164.868 113.498C166.138 112.755 167.927 112.326 169.093 113.197C170.41 114.181 172.361 113.088 173.505 111.942C174.65 110.796 176.14 109.414 177.768 109.892C175.858 111.536 173.949 113.18 172.04 114.823C171.407 115.368 170.848 116.457 171.648 116.779C173.842 116.079 175.825 114.852 177.337 113.259C178.036 113.239 178.069 114.227 177.679 114.749C176.209 116.718 172.75 117.157 171.859 119.389C169.78 124.599 163.296 128.06 157.218 127.203C155.971 127.027 155.35 128.503 155.2 129.631C154.602 134.126 154.003 138.622 153.405 143.118C153.267 144.152 153.139 145.246 153.612 146.197C154.402 147.783 156.513 148.383 158.386 148.81C160.86 149.374 163.363 149.941 165.892 150.188C166.958 150.292 166.953 149.94 165.499 149.599ZM66.9116 141.356C70.4474 142.422 74.1899 142.783 77.8979 143.137C79.4704 143.288 81.145 143.422 82.5556 142.779C84.2161 142.022 85.1009 140.382 85.8151 138.835C89.7978 130.208 92.0717 120.945 92.4978 111.61C92.5584 110.284 90.6716 109.699 89.1999 109.61C77.4509 108.9 66.2149 113.548 55.5744 118.087C55.0644 118.304 54.5186 118.553 54.2666 119.007C54.0787 119.346 54.0886 119.743 54.1026 120.121C54.2932 125.278 54.5336 130.619 57.0961 135.235C57.7882 136.481 58.6685 137.681 59.9149 138.507C60.6699 139.008 61.534 139.356 62.3908 139.699C63.8778 140.295 65.3681 140.891 66.9116 141.356ZM142.916 122.271C144.482 114.692 145.586 107.035 146.221 99.3465C146.438 96.7163 146.597 94.0424 145.965 91.467C145.333 88.8916 143.809 86.3881 141.317 85C139.782 84.1447 137.984 83.7609 136.206 83.4755C132.962 82.9546 129.662 82.7183 126.367 82.771C123.46 82.8175 120.408 83.1364 118.034 84.6483C117.25 85.1483 116.537 85.8028 116.25 86.6288C115.963 87.4549 116.205 88.4698 117.001 88.9551C119.013 90.1815 119.834 92.4763 120.211 94.6371C120.588 96.798 120.678 99.0607 121.773 101.014C122.337 102.021 123.146 102.9 123.994 103.73C128.595 108.232 134.595 111.562 141.13 113.24C142.279 113.535 143.741 114.174 143.498 115.227C147.112 117.278 142.856 122.562 142.916 122.271ZM132.956 144.627C134.287 143.899 135.189 142.688 135.983 141.483C139.353 136.369 141.563 130.639 142.438 124.746C130.316 124.697 118.266 120.58 109.161 113.379C108.849 114.504 108.909 115.682 108.951 116.842C109.217 124.08 108.74 131.34 107.528 138.499C107.239 140.205 108.372 141.912 109.929 142.92C111.486 143.928 113.405 144.361 115.289 144.687C119.535 145.423 123.874 145.725 128.196 145.585C129.839 145.532 131.55 145.395 132.956 144.627ZM209.449 82.1941C208.743 80.6617 208.212 78.9339 206.747 77.9277C205.281 76.9216 202.52 77.4139 202.434 79.0712C203.885 78.8308 204.994 80.4425 204.747 81.7514C204.5 83.0602 203.442 84.1009 202.602 85.1922C201.442 86.7002 200.648 88.4072 199.863 90.1C197.994 94.1276 197.267 98.5791 197.768 102.92C198.063 105.476 198.841 108.101 200.762 110.003C202.682 111.905 205.974 112.856 208.504 111.665C210.677 110.643 211.761 108.389 212.26 106.228C212.758 104.067 212.847 101.805 213.789 99.7677C215.526 96.0083 219.81 93.7372 224.047 92.3114C217.677 91.5326 211.913 87.538 209.449 82.1941ZM191.834 86.2608C192.117 87.2463 192.509 88.2064 193.003 89.1223C193.299 87.8316 193.775 86.5744 194.415 85.3893C193.767 85.3226 193.115 85.2909 192.463 85.2944C192.305 85.2952 192.137 85.3005 192.004 85.3768C191.702 85.5487 191.744 85.9501 191.834 86.2608ZM115.05 85.2465C114.648 85.537 114.413 86.1622 114.837 86.4257C115.485 85.8414 116.134 85.2571 116.782 84.6728C116.648 84.5233 116.453 84.4189 116.243 84.3842C115.986 84.7856 115.451 84.9559 115.05 85.2465Z" fill="#F2F2F2"/>
<path d="M227.342 81.0601C228.728 81.0601 229.851 80.0494 229.851 78.8027C229.851 77.556 228.728 76.5453 227.342 76.5453C225.957 76.5453 224.834 77.556 224.834 78.8027C224.834 80.0494 225.957 81.0601 227.342 81.0601Z" fill="#FFB61D"/>
<path d="M212.977 78.8027C213.732 78.8027 214.345 78.2515 214.345 77.5714C214.345 76.8914 213.732 76.3401 212.977 76.3401C212.221 76.3401 211.609 76.8914 211.609 77.5714C211.609 78.2515 212.221 78.8027 212.977 78.8027Z" fill="#FFB61D"/>
<path fill-rule="evenodd" clip-rule="evenodd" d="M83.4239 46.4102C87.5282 46.4336 91.6326 46.457 95.737 46.4805C95.9292 46.4816 96.1357 46.4867 96.2906 46.5891C96.6073 46.7982 96.4809 47.2881 96.1549 47.4852C95.8289 47.6824 95.4063 47.6741 95.0138 47.6618C91.4018 47.549 87.779 47.7178 84.1992 48.1658C83.6548 48.2339 83.0805 48.3055 82.5713 48.1192C82.0621 47.933 81.6726 47.3843 81.907 46.9369C82.1519 46.4694 82.8496 46.4069 83.4239 46.4102ZM69.6985 46.0474C69.9586 46.2807 69.834 46.7091 69.545 46.9131C69.2561 47.117 68.8691 47.1579 68.5037 47.1911C64.865 47.5227 61.2262 47.8543 57.5875 48.1859C57.1571 48.2251 56.7122 48.263 56.3005 48.1438C55.8888 48.0245 55.5163 47.7042 55.5065 47.315C55.4965 46.9135 55.8754 46.5726 56.2983 46.4444C56.7211 46.3163 57.1806 46.3522 57.6254 46.3837C61.3538 46.6477 65.1184 46.4954 68.8054 45.9316C69.1142 45.8844 69.4767 45.8484 69.6985 46.0474ZM69.1888 39.7614C69.4607 39.9589 69.364 40.3821 69.0911 40.5785C68.8183 40.7749 68.447 40.8075 68.0987 40.8323L56.4131 41.662C55.9756 41.6931 55.5224 41.7224 55.1098 41.588C54.6971 41.4536 54.3352 41.1077 54.3589 40.7133C54.3829 40.3138 54.7928 40.004 55.2248 39.9096C55.6569 39.8153 56.1092 39.8857 56.549 39.9442C60.5151 40.4718 64.5481 39.9908 68.5407 39.6641C68.7647 39.6457 69.0138 39.6343 69.1888 39.7614ZM85.5089 37.6778C87.9472 37.9581 90.4191 38.0007 92.8676 37.8047C93.841 37.7268 95.0177 37.6902 95.5707 38.4153C94.9142 38.8929 94.0121 38.9607 93.1696 39.0084C90.3775 39.1668 87.5854 39.3252 84.7933 39.4836C84.1564 39.5197 83.3626 39.4763 83.1003 38.9527C82.8648 38.4829 83.2791 37.9179 83.8114 37.7276C84.3436 37.5373 84.9408 37.6125 85.5089 37.6778ZM64.4442 34.9912C64.4472 35.3707 63.9188 35.5345 63.5015 35.5896L57.365 36.399C56.9269 36.4568 56.4744 36.5139 56.0467 36.4112C55.619 36.3084 55.2191 36.0022 55.1791 35.6054C55.1301 35.1196 55.6368 34.7097 56.1659 34.6039C56.6949 34.4981 57.243 34.6087 57.7805 34.6711C59.6341 34.886 61.504 34.5194 63.3717 34.4616C63.8288 34.4475 64.441 34.5797 64.4442 34.9912ZM94.0539 33.6693C94.5287 33.717 95.0159 33.972 95.1428 34.3865C94.2996 34.9604 93.1851 35.0649 92.1321 35.1489C90.3295 35.2927 88.5269 35.4365 86.7243 35.5802C86.0893 35.6309 85.4543 35.6815 84.8194 35.7322C84.355 35.7692 83.8721 35.8041 83.4361 35.6558C83 35.5075 82.6275 35.1182 82.6924 34.7027C82.7947 34.0481 83.7494 33.8782 84.4838 33.8924C87.2086 33.9451 89.9676 34.3152 92.6373 33.8215C93.1053 33.735 93.5791 33.6215 94.0539 33.6693ZM96.4473 27.4769C83.091 29.0977 69.397 28.2584 56.2244 30.8225C55.4431 30.9746 54.3528 30.9821 54.1508 30.2861C54.1689 29.466 55.3475 29.1701 56.2566 29.1117C69.0709 28.2892 81.8853 27.4668 94.6996 26.6443C95.4514 26.596 96.5065 26.8007 96.4473 27.4769Z" fill="#E7EAEE"/>
<path fill-rule="evenodd" clip-rule="evenodd" d="M49.4644 152.076C49.604 153.53 47.3765 154.023 45.7547 154.029C37.3254 154.059 28.9045 155.466 21.025 158.161C19.8224 158.572 18.5355 159.09 17.9502 160.121C17.1752 161.487 18.021 163.234 19.3921 164.143C20.7631 165.053 22.5131 165.331 24.1944 165.577C67.8968 171.981 112.249 174.789 156.517 173.952L157.229 173.938C162.334 173.832 167.545 173.585 172.222 171.766C168.35 169.324 164.478 166.881 160.606 164.439C167.309 163.234 174.225 164.092 181.027 164.697C196.596 166.08 212.312 166.108 227.887 164.781C226.79 166.358 224.38 166.576 222.313 166.616C202.722 166.996 183.108 166.37 163.596 164.741C166.142 166.249 168.687 167.757 171.233 169.265C172.155 169.811 173.176 170.504 173.229 171.497C173.309 172.989 171.273 173.733 169.635 173.977C164.202 174.785 158.675 174.913 153.168 174.986C110.163 175.552 67.1043 172.782 24.6255 166.718C22.5528 166.423 20.4051 166.092 18.6769 165.021C16.9486 163.949 15.7703 161.912 16.4966 160.14C17.219 158.377 19.4168 157.55 21.4011 156.966C30.4818 154.297 39.9329 152.65 49.4644 152.076ZM107.441 20.4816C107.531 38.298 107.621 56.1144 107.711 73.9308C107.732 78.1713 108.66 83.5374 113.217 84.6171C119.513 82.0012 126.611 80.9678 133.502 81.6634C137.447 82.0616 141.545 83.135 144.215 85.7784C147.879 89.4045 147.885 94.8654 147.491 99.7536C146.694 109.662 145.123 119.52 142.795 129.231C144.645 129.126 146.532 129.794 147.806 131.005C145.843 131.813 143.505 131.846 141.514 131.096C142.882 137.765 136.844 144.345 129.613 146.256C122.382 148.167 114.536 146.365 107.737 143.441C107.099 145.676 110.421 146.989 112.957 147.326C119.396 148.183 125.834 149.039 132.272 149.895C124.321 150.11 116.344 149.525 108.536 148.153C107.099 149.985 110.354 151.835 112.815 152.193C119.341 153.144 125.867 154.094 132.393 155.045C125.022 155 117.654 154.558 110.342 153.721C114.992 157.496 121.34 159.526 127.594 159.238C124.066 160.282 120.146 160.219 116.662 159.063C121.021 164.316 129.94 165.29 136.453 162.351C142.967 159.413 147.219 153.4 149.3 147.116C151.38 140.832 151.582 134.191 151.951 127.642C152.631 115.554 153.932 103.482 156.285 91.5645C157.869 83.5395 161.761 73.9707 170.73 72.8369C154.752 72.1742 138.758 71.8168 122.763 71.765C117.903 71.7493 111.865 72.4648 110.242 76.5879C108.855 76.7173 109.164 74.5991 110.216 73.774C114.142 70.6939 119.863 70.5806 125.071 70.6286L160.018 70.9505C171.306 71.0544 184.841 72.3426 189.951 81.4006C189.803 78.7086 192.514 76.1682 195.509 76.1929C198.775 76.2199 201.507 73.6701 202.46 70.8587C203.413 68.0472 202.993 65.0264 202.564 62.1125C197.297 57.5233 195.919 49.7222 199.343 43.8891C200.312 42.2393 201.743 38.3054 209.735 35.7733C215.064 34.0852 220.331 34.2708 225.536 36.3301C235.312 34.6288 242.03 35.2327 245.689 38.1417C251.179 42.5052 251.284 46.0812 248.125 49.2556C251.697 47.999 255.894 50.1303 257.684 53.1829C259.473 56.2355 259.379 59.8928 258.841 63.3099C257.508 71.7722 253.675 79.9051 247.84 86.6492L247.036 88.782C261.149 92.0567 272.566 103.283 274.944 116.224C270.252 106.706 263.9 96.6259 252.956 93.2467C250.486 95.5779 247.947 98.0106 246.787 101.058C245.627 104.105 246.254 107.955 249.195 109.79C247.348 110.176 245.501 110.561 243.654 110.946C244.268 111.928 244.883 112.909 245.498 113.89C238.519 118.665 237.716 127.697 237.758 135.587C237.801 143.477 237.641 152.374 231.281 157.805C225.612 162.645 216.959 162.976 209.149 162.753C189.945 162.204 170.8 160.008 152.058 156.203C150.464 155.88 148.446 155.682 147.527 156.898C140.879 165.695 126.976 166.482 115.185 165.716C100.039 164.732 84.9804 162.665 70.1976 159.54C61.8124 157.767 52.9082 155.299 47.6846 149.136C41.5948 141.951 42.2981 131.988 43.2862 122.995C37.2823 125.999 30.1647 127.162 23.3705 126.249C30.5323 122.035 34.0052 113.974 34.0705 106.274C34.1357 98.5736 31.2797 91.1099 28.1023 83.9599C21.1014 87.6144 17.4179 95.3173 17.9656 102.584C18.5134 109.851 22.7976 116.596 28.5458 121.724C21.4599 117.699 16.7711 110.449 16.383 102.916C15.9949 95.3833 19.9181 87.7735 26.5598 83.1761C25.4985 79.9097 20.023 79.5106 17.1533 81.7267C14.2835 83.9428 13.3829 87.5399 12.6447 90.8776C11.2806 97.0449 9.91102 103.356 10.9021 109.581C11.8931 115.805 15.7138 122.036 22.116 124.555C19.124 126.496 15.139 123.702 13.152 120.905C5.09402 109.565 4.85067 94.1078 12.5484 82.5666C13.4731 81.1802 14.54 79.814 16.0457 78.9317C17.642 77.9964 19.5881 77.6889 21.4856 77.5376C28.9695 76.9411 36.6481 78.5132 43.1087 81.9648C43.0511 63.0673 42.9934 44.1698 42.9357 25.2724C42.9324 24.1902 42.9491 23.0419 43.5902 22.1263C44.5175 20.802 46.4169 20.3916 48.1266 20.1043C63.6791 17.4915 79.408 15.7293 95.1976 14.8308C100.357 14.5372 107.417 15.8294 107.441 20.4816ZM96.8952 15.9694C80.1546 16.6785 63.4745 18.541 47.0488 21.5349C46.3498 21.6624 45.6095 21.8112 45.1014 22.2616C44.4092 22.8752 44.3557 23.8475 44.3466 24.7219C44.1505 43.5386 44.2334 62.3577 44.5954 81.1725C46.6055 80.7214 48.6156 80.2704 50.6258 79.8193C49.84 75.9585 49.0509 72.0456 49.3869 68.1322C49.7229 64.2189 51.3186 60.239 54.6007 57.6543C58.1529 54.8568 63.11 54.0664 67.8187 53.7688C72.3467 53.4827 76.9021 53.549 81.4175 53.9667C86.0267 54.3931 90.8823 55.3142 94.2076 58.2182C99.0112 62.413 99.0888 69.2091 98.8401 75.2286C98.18 91.2082 97.5199 107.188 96.8597 123.167C96.7048 126.918 96.5407 130.72 95.314 134.307C94.0874 137.895 91.6527 141.305 87.9691 143.065C84.3545 144.793 80.0293 144.744 75.9626 144.328C72.0801 143.931 68.235 143.238 64.4818 142.26C62.202 141.665 59.9208 140.95 57.9833 139.716C51.5719 135.632 50.8139 127.485 50.6582 120.417C48.1964 120.017 45.7897 121.704 44.7733 123.761C43.7568 125.818 43.8018 128.155 43.865 130.406C44.0225 136.02 44.2655 141.914 47.4501 146.744C52.3634 154.196 62.6838 156.948 72.1066 158.728C88.8314 161.886 105.812 163.946 122.869 164.885C115.257 161.396 108.508 155.424 106.902 147.872C106.466 145.821 106.419 143.721 106.374 141.633C105.485 100.804 104.596 59.9747 103.708 19.1456C103.651 16.5636 99.7617 15.8479 96.8952 15.9694ZM161.79 83.003C161.367 83.9324 161.059 84.9635 161.341 85.9354C161.623 86.9073 162.672 87.7559 163.773 87.5909C168.705 86.8518 174.02 89.0377 176.627 92.8766C178.778 96.0442 179.077 99.9195 179.319 103.625L181.524 137.381C181.76 140.989 181.876 144.958 179.385 147.792C176.153 151.469 170.084 151.591 164.899 151.135C160.621 150.758 156.121 150.118 152.799 147.662C152.917 149.092 152.454 150.554 151.517 151.713C150.361 153.143 152.228 155.025 154.044 155.702C156.262 156.528 158.675 156.815 161.056 157.094C171.961 158.367 182.872 159.596 193.79 160.779C202.193 161.689 210.731 162.571 219.085 161.349C213.8 160.014 208.742 157.951 204.143 155.254C201.849 153.908 199.63 152.371 198.065 150.348C195.51 147.047 194.972 142.851 194.547 138.846C193.283 126.936 192.342 114.998 191.726 103.047C191.271 94.2321 188.13 85.5413 182.736 78.172C181.772 76.8543 180.592 75.4869 178.887 75.1201C172.106 73.6615 164.436 77.1984 161.79 83.003ZM130.701 159.285C131.276 159.373 131.866 159.489 132.341 159.795C132.815 160.101 133.145 160.645 132.999 161.153C132.853 161.661 132.108 161.996 131.637 161.686C131.117 161.344 130.426 161.332 129.807 161.174C129.187 161.017 128.538 160.554 128.649 159.983C128.79 159.26 129.897 159.162 130.701 159.285ZM106.823 159.5C107.537 159.633 108.372 160.091 108.226 160.734C108.097 161.301 107.318 161.489 106.681 161.566C105.967 161.652 105.205 161.731 104.556 161.449C103.908 161.166 103.488 160.369 103.913 159.846C104.2 159.493 104.737 159.399 105.222 159.382C105.758 159.362 106.297 159.402 106.823 159.5ZM149.513 152.358C148.836 152.798 148.371 153.446 147.893 154.062C145.715 156.871 142.953 159.313 139.794 161.224C139.873 161.525 140.375 161.449 140.673 161.294C144.331 159.386 146.941 156.236 149.446 153.171C149.651 152.921 149.82 152.501 149.513 152.358ZM182.22 76.4718C184.172 78.5455 186.138 80.6391 187.566 83.0337C189.114 85.6299 189.983 88.5067 190.683 91.3848C194.599 107.485 193.554 124.224 196.092 140.546C196.55 143.491 197.156 146.499 198.858 149.048C200.853 152.034 204.164 154.103 207.536 155.814C210.264 157.197 213.112 158.412 216.107 159.231C220.871 160.534 226.594 160.625 230.246 157.579C232.296 155.869 233.375 153.428 234.218 151.029C237.829 140.745 238.226 129.564 235.352 119.094C235.424 125.356 236.328 131.603 236.121 137.863C235.914 144.123 234.486 150.568 230.398 155.636C229.588 156.64 228.649 157.603 227.425 158.173C225.813 158.925 223.898 158.911 222.096 158.712C218.948 158.366 215.871 157.511 213.055 156.198C210.916 155.201 208.937 153.948 207.02 152.636C204.792 151.111 202.604 149.468 201.042 147.377C199.494 145.304 198.632 142.882 197.947 140.462C192.951 122.79 196.524 103.727 190.595 86.2904C189.198 82.1809 186.772 77.7717 182.22 76.4718ZM63.032 154.216C74.5654 155.818 86.0988 157.42 97.6322 159.022C97.34 159.709 96.2855 159.733 95.4757 159.636C85.6121 158.45 75.7486 157.264 65.885 156.078C64.7699 155.944 63.6549 155.81 62.5398 155.676C62.0105 155.612 61.3533 155.44 61.2864 154.963C61.1921 154.291 62.2882 154.113 63.032 154.216ZM196.825 93.2245C194.389 95.6643 194.564 99.3455 194.883 102.613C195.582 109.765 196.28 116.917 196.979 124.068C197.011 124.403 197.051 124.755 197.269 125.028C197.626 125.474 198.316 125.551 198.925 125.59C207.217 126.116 215.509 126.642 223.801 127.168C223.181 128.05 221.783 128.063 220.627 127.982C212.82 127.44 204.982 127.264 197.156 127.456C197.021 131.068 197.612 134.702 198.893 138.127C199.448 139.612 201.586 139.928 203.325 139.991C209.957 140.233 216.59 140.475 223.222 140.716C223.528 141.335 222.456 141.721 221.704 141.713C214.887 141.643 208.069 141.572 201.252 141.502C200.318 141.492 199.98 142.683 200.332 143.461C201.252 145.496 204.18 145.934 206.615 146.071L221.858 146.93C222.206 146.95 222.278 147.442 222.024 147.657C221.77 147.871 221.383 147.877 221.034 147.871L203.188 147.53C207.802 152.472 214.274 155.984 221.285 157.35C222.795 157.644 224.397 157.838 225.865 157.402C227.621 156.88 228.916 155.538 229.93 154.146C235.307 146.763 234.949 137.264 234.4 128.45L233.777 118.461C233.994 118.191 234.441 118.098 234.768 118.254C234.894 117.764 234.186 117.473 233.637 117.383C221.507 115.377 209.06 113.369 196.92 115.328C196.532 115.184 196.536 114.641 196.831 114.372C197.126 114.104 197.573 114.039 197.989 113.987C199.648 113.782 201.308 113.577 202.967 113.371C199.159 111.823 196.85 108.146 196.161 104.437C195.471 100.728 196.145 96.9351 196.825 93.2245ZM137.206 153.954C138.287 154.135 139.534 154.432 139.956 155.345C138.753 156.083 137.174 156.007 135.722 155.903C135.323 155.874 134.887 155.831 134.606 155.573C134.11 155.118 134.48 154.279 135.119 154.003C135.757 153.726 136.51 153.837 137.206 153.954ZM54.92 147.281C67.3459 150.794 80.2224 153.016 93.2113 153.887C94.2189 153.954 95.5731 154.386 95.3797 155.279C81.6426 153.881 67.9896 151.814 54.5 149.092C53.6391 148.918 52.5347 148.366 52.8553 147.627C53.137 146.977 54.1804 147.071 54.92 147.281ZM100.433 152.704C101.067 152.703 101.68 152.898 102.273 153.101C102.575 153.205 102.906 153.338 103.023 153.609C103.273 154.186 102.389 154.598 101.712 154.709C101.256 154.783 100.801 154.857 100.345 154.932C99.9609 154.994 99.5472 155.054 99.1936 154.905C98.619 154.663 98.4698 153.917 98.7994 153.429C99.1289 152.941 99.7984 152.705 100.433 152.704ZM158.946 151.471C164.442 152.412 170.072 152.465 175.667 152.516C176.1 152.52 176.217 153.133 175.908 153.405C175.598 153.678 175.116 153.69 174.683 153.682C169.46 153.59 164.231 153.095 159.023 153.464C158.456 153.504 157.868 153.552 157.335 153.373C156.803 153.193 156.349 152.709 156.45 152.206C156.537 151.771 157.007 151.467 157.488 151.383C157.97 151.299 158.465 151.389 158.946 151.471ZM171.363 73.9254C165.14 74.7617 159.912 79.7466 159.343 85.3863C158.811 90.6536 157.196 95.7757 156.046 100.962C152.353 117.618 153.473 134.88 150.208 151.608C151.401 149.654 151.722 147.38 152.023 145.166L159.94 86.8158C160.15 85.2632 160.366 83.6927 160.985 82.2314C162.679 78.2376 167.057 75.7289 171.363 73.9254ZM143.067 149.499C143.406 149.596 143.753 149.723 143.979 149.97C144.205 150.218 144.262 150.617 144.015 150.847C143.829 151.021 143.537 151.052 143.27 151.074C142.395 151.143 141.52 151.213 140.645 151.282C140.173 151.32 139.685 151.356 139.235 151.222C138.785 151.088 138.38 150.737 138.367 150.31C138.344 149.588 139.335 149.225 140.136 149.178C141.124 149.119 142.124 149.229 143.067 149.499ZM161.488 89.0919C160.764 89.3259 160.571 90.1489 160.489 90.8373L157.758 113.725C157.596 115.081 159.541 115.946 161.009 115.61C162.478 115.275 163.599 114.242 164.868 113.498C166.138 112.755 167.927 112.326 169.093 113.197C170.41 114.181 172.361 113.088 173.505 111.942C174.65 110.796 176.14 109.414 177.768 109.892C175.858 111.536 173.949 113.18 172.04 114.823C171.407 115.368 170.848 116.457 171.648 116.779C173.842 116.079 175.825 114.852 177.337 113.259C178.036 113.239 178.069 114.227 177.679 114.749C176.209 116.718 172.75 117.157 171.859 119.389C169.78 124.599 163.296 128.06 157.218 127.203C155.971 127.027 155.35 128.503 155.2 129.631C154.602 134.126 154.003 138.622 153.405 143.118C153.267 144.152 153.139 145.246 153.612 146.197C154.402 147.783 156.513 148.383 158.386 148.81C161.902 149.612 165.476 150.42 169.102 150.304C172.727 150.189 176.476 149.022 178.771 146.495C178.136 145.752 176.72 146.704 175.794 146.274C174.888 145.854 175.369 144.454 176.341 144.178C177.314 143.903 178.34 144.341 179.244 144.766C179.811 143.77 180.394 142.704 180.278 141.589C180.161 140.475 179.024 139.373 177.812 139.623C177.015 139.788 176.691 138.545 177.333 138.09C177.975 137.635 178.898 137.783 179.693 137.953C179.737 135.263 179.782 132.574 179.826 129.884C179.835 129.335 179.837 128.759 179.548 128.275C179.258 127.792 178.573 127.453 178.023 127.692C177.274 128.017 176.625 126.869 177.126 126.272C177.627 125.675 178.574 125.598 179.404 125.572C179.469 123.183 179.297 120.789 178.892 118.428C175.764 119.838 175.217 123.561 174.902 126.697C174.296 132.711 173.079 138.675 171.27 144.491C170.865 145.794 170.409 147.126 169.461 148.176C168.514 149.227 166.953 149.94 165.499 149.599C165.825 148.643 166.936 148.13 167.75 147.45C169.214 146.225 169.758 144.374 170.236 142.627C171.886 136.59 173.547 130.479 173.526 124.262L173.523 123.845C173.512 122.661 173.499 121.461 173.932 120.349C174.417 119.106 175.631 117.982 177.095 117.976C178.638 117.969 179.006 116.042 178.868 114.659C178.393 109.889 177.917 105.119 177.441 100.35C177.289 98.8263 177.134 97.2887 176.621 95.8307C174.721 90.4402 167.402 87.1808 161.488 89.0919ZM184.775 147.264C185.501 147.44 186.205 148.111 185.903 148.73C185.615 149.321 184.712 149.354 183.998 149.293C183.648 149.263 183.276 149.225 183.003 149.027C182.525 148.679 182.592 147.941 183.04 147.561C183.488 147.182 184.181 147.121 184.775 147.264ZM97.6097 146.603C98.0868 146.696 98.584 146.821 98.927 147.134C99.27 147.447 99.3835 148.004 99.0426 148.318C98.7641 148.575 98.3145 148.58 97.9159 148.567C97.3427 148.549 96.7694 148.531 96.1962 148.513C95.8642 148.503 95.5094 148.485 95.2429 148.307C94.6733 147.926 94.9232 147.033 95.5348 146.709C96.1464 146.384 96.916 146.468 97.6097 146.603ZM53.4412 141.923C56.6502 143.266 60.1759 143.852 63.6624 144.398C70.7204 145.505 77.7996 146.501 84.8958 147.388C85.8887 147.512 86.9885 147.687 87.5936 148.407C84.8457 148.576 82.0991 148.164 79.3828 147.753C70.4283 146.4 61.4738 145.047 52.5193 143.693C51.5807 143.552 50.3688 143.082 50.5516 142.242C50.7683 141.245 52.4182 141.495 53.4412 141.923ZM109.161 113.379C108.849 114.504 108.909 115.682 108.951 116.842C109.217 124.08 108.74 131.34 107.528 138.499C107.239 140.206 108.372 141.912 109.929 142.92C111.486 143.928 113.405 144.361 115.289 144.687C119.535 145.423 123.874 145.725 128.196 145.585C129.839 145.532 131.55 145.395 132.956 144.627C134.287 143.899 135.189 142.688 135.983 141.483C139.353 136.369 141.563 130.639 142.438 124.746C130.316 124.697 118.266 120.58 109.161 113.379ZM140.865 142.076C141.693 142.322 142.521 142.567 143.348 142.813C143.624 142.895 143.92 142.99 144.084 143.206C144.36 143.571 144.092 144.106 143.664 144.323C143.236 144.539 142.716 144.528 142.225 144.51C141.332 144.478 140.345 144.41 139.721 143.834C139.097 143.257 139.311 142.013 140.204 141.961C140.429 141.947 140.651 142.012 140.865 142.076ZM184.249 142.184C184.741 142.254 185.261 142.336 185.64 142.627C186.02 142.918 186.175 143.494 185.826 143.814C185.685 143.943 185.489 144.009 185.3 144.069C184.567 144.298 183.753 144.482 183.029 144.232C182.304 143.982 181.81 143.12 182.266 142.555C182.684 142.035 183.545 142.082 184.249 142.184ZM55.5744 118.087C55.0644 118.304 54.5186 118.553 54.2666 119.007C54.0788 119.346 54.0886 119.743 54.1026 120.121C54.2932 125.278 54.5336 130.619 57.0962 135.235C57.7882 136.481 58.6685 137.681 59.9149 138.507C60.6699 139.008 61.534 139.356 62.3908 139.699C63.8778 140.295 65.3681 140.891 66.9116 141.356C70.4474 142.422 74.1899 142.783 77.8979 143.137C79.4704 143.288 81.145 143.422 82.5556 142.779C84.2161 142.022 85.1009 140.382 85.8151 138.835C89.7978 130.208 92.0717 120.945 92.4978 111.61C92.5584 110.284 90.6716 109.699 89.1999 109.61C77.4509 108.9 66.2149 113.548 55.5744 118.087ZM94.3223 111.236C94.0209 111.593 93.9834 112.07 93.9536 112.518C93.2505 123.074 90.3312 133.507 85.3953 143.103C90.0979 140.962 93.6019 136.802 94.6236 132.149C94.9749 130.549 95.0468 128.912 95.1177 127.282C95.3412 122.144 95.5647 117.005 95.7883 111.867C95.8001 111.596 95.8023 111.298 95.6107 111.089C95.294 110.743 94.6238 110.879 94.3223 111.236ZM96.27 136.947C96.8668 136.976 97.4277 137.199 98.0076 137.329C98.5271 137.445 98.6839 138.111 98.394 138.516C98.104 138.921 97.5449 139.097 97.0148 139.164C96.4614 139.234 95.8663 139.207 95.3905 138.944C94.9146 138.68 94.6059 138.13 94.7959 137.657C94.9992 137.151 95.6733 136.918 96.27 136.947ZM184.591 135.552C185.149 135.655 185.628 135.967 186.087 136.27C186.336 136.434 186.602 136.619 186.683 136.887C186.787 137.23 186.536 137.599 186.19 137.77C185.844 137.941 185.429 137.953 185.036 137.925C184.477 137.884 183.899 137.76 183.477 137.427C183.055 137.094 182.841 136.511 183.104 136.065C183.371 135.612 184.033 135.448 184.591 135.552ZM51.8558 119.588C51.7032 119.833 51.734 120.133 51.7692 120.412L52.5982 126.981C53.0481 130.546 53.6373 134.388 56.4059 136.969C56.8675 136.772 56.607 136.148 56.3161 135.77C54.0734 132.857 53.6415 129.154 53.2777 125.625C53.0645 123.557 52.8513 121.489 52.6381 119.421C52.4237 119.217 52.0084 119.343 51.8558 119.588ZM199.492 133.045C207.099 133.214 214.705 133.383 222.312 133.552C223.476 133.577 224.644 133.604 225.795 133.759C225.555 134.508 224.461 134.649 223.596 134.641C215.968 134.577 208.315 134.152 200.728 134.865C200.079 134.926 199.379 134.986 198.816 134.69C198.253 134.393 198.001 133.58 198.518 133.223C198.787 133.038 199.154 133.037 199.492 133.045ZM178.593 131.7C178.761 131.749 178.932 131.801 179.069 131.901C179.523 132.234 179.354 132.946 178.889 133.267C178.424 133.589 177.797 133.626 177.211 133.639C176.601 133.652 175.89 133.609 175.542 133.157C175.106 132.591 175.624 131.752 176.347 131.523C177.069 131.293 177.865 131.485 178.593 131.7ZM184.155 130.316C184.864 130.385 185.554 130.609 186.15 130.963C186.605 131.233 186.514 131.913 186.1 132.232C185.686 132.552 185.095 132.597 184.55 132.579C183.999 132.561 183.424 132.485 182.978 132.193C182.533 131.901 182.267 131.337 182.506 130.89C182.779 130.38 183.529 130.255 184.155 130.316ZM107.528 114.694C107.113 120.067 106.927 125.454 106.971 130.839C106.973 131.067 107.145 131.39 107.361 131.272C107.819 126.745 108.044 122.199 108.035 117.653C108.032 116.646 108.01 115.602 107.528 114.694ZM99.396 128.477C100.049 128.521 100.624 128.863 101.156 129.206C101.32 129.312 101.489 129.424 101.58 129.586C101.77 129.921 101.542 130.351 101.186 130.547C100.83 130.743 100.389 130.758 99.9718 130.741C99.0232 130.701 97.8308 130.236 97.9369 129.387C98.01 128.802 98.7433 128.433 99.396 128.477ZM185.735 124.858C186.37 125.093 187.024 125.705 186.696 126.248C186.473 126.615 185.932 126.695 185.467 126.699C184.928 126.704 184.388 126.664 183.856 126.581C183.108 126.463 182.993 125.405 183.574 124.965C184.155 124.525 185.033 124.598 185.735 124.858ZM259.753 114.345C260.015 114.739 260.019 115.225 260.016 115.684C259.994 118.935 259.972 122.187 259.949 125.438C259.947 125.833 259.888 126.311 259.489 126.477C259.145 126.62 258.721 126.419 258.53 126.124C258.338 125.83 258.321 125.472 258.314 125.131C258.259 122.229 258.618 119.257 257.705 116.473C257.433 115.645 257.109 114.612 257.818 114.033C258.373 113.58 259.369 113.766 259.753 114.345ZM166.875 113.968C164.137 115.498 161.256 117.07 158.042 117.278C157.457 117.316 157.194 117.945 157.078 118.462C156.559 120.789 156.273 123.159 156.223 125.532C156.22 125.677 156.222 125.833 156.315 125.952C156.463 126.14 156.765 126.148 157.022 126.136C159.529 126.018 162.071 125.782 164.4 124.937C166.729 124.092 168.848 122.562 169.797 120.469C170.746 118.377 170.289 115.709 168.351 114.272C167.934 113.963 167.334 113.712 166.875 113.968ZM145.911 123.12C146.79 123.328 147.67 123.536 148.55 123.744C148.879 123.821 149.244 123.924 149.402 124.196C149.587 124.515 149.371 124.927 149.036 125.125C148.701 125.322 148.284 125.359 147.886 125.391C147.253 125.442 146.602 125.491 145.995 125.323C145.388 125.154 144.829 124.714 144.76 124.146C144.69 123.578 145.297 122.975 145.911 123.12ZM23.864 79.7945C27.1568 80.9947 29.6353 83.5909 31.1725 86.4733C32.7098 89.3557 33.4098 92.5339 34.0198 95.6836C35.0295 100.897 35.8335 106.218 35.0973 111.468C34.3611 116.718 31.9225 121.953 27.4017 125.337C30.6948 125.495 34.6267 125.378 36.4145 122.884C37.2168 121.765 38.9436 121.269 40.3176 121.764C39.4538 121.092 40.1058 119.841 40.7469 118.99C43.3736 115.506 45.1759 111.502 45.82 107.331C47.0687 99.2447 43.9291 91.0492 39.2704 84.0438C36.2478 79.4986 29.1974 77.554 23.864 79.7945ZM101.939 121.684C102.618 121.924 102.46 122.935 101.825 123.26C101.19 123.584 100.399 123.438 99.6909 123.276C99.3609 123.201 99.0105 123.112 98.7864 122.882C98.2633 122.343 98.8637 121.432 99.6384 121.271C100.413 121.11 101.199 121.422 101.939 121.684ZM126.367 82.771C123.46 82.8175 120.408 83.1364 118.034 84.6483C117.25 85.1483 116.537 85.8028 116.25 86.6288C115.963 87.4549 116.205 88.4698 117.001 88.9551C119.013 90.1816 119.834 92.4763 120.211 94.6372C120.588 96.798 120.679 99.0607 121.773 101.014C122.337 102.021 123.146 102.9 123.994 103.73C128.595 108.232 134.595 111.562 141.13 113.24C142.279 113.535 143.741 114.174 143.498 115.227C134.096 113.452 125.523 108.346 120.033 101.252C118.365 105.862 115.074 109.986 110.752 112.881C119.183 119.338 130.093 123.121 141.158 123.424C141.66 123.438 142.227 123.42 142.565 123.087C142.787 122.869 142.856 122.562 142.916 122.271C144.482 114.692 145.586 107.035 146.221 99.3465C146.438 96.7164 146.597 94.0424 145.965 91.467C145.333 88.8916 143.809 86.3881 141.317 85C139.782 84.1447 137.984 83.7609 136.206 83.4755C132.962 82.9547 129.662 82.7184 126.367 82.771ZM184.135 119.659C184.897 119.659 185.859 119.86 185.993 120.535C186.126 121.208 185.274 121.709 184.521 121.796C183.969 121.859 183.37 121.799 182.933 121.49C182.495 121.182 182.292 120.577 182.596 120.158C182.907 119.729 183.565 119.658 184.135 119.659ZM240.46 106.142C239.061 111.02 238.244 116.016 237.43 121C237.39 121.248 237.366 121.541 237.574 121.708C239.755 119.27 241.756 116.7 243.559 114.023C243.737 113.759 243.912 113.414 243.712 113.162C243.26 112.594 242.808 112.025 242.357 111.457C242.021 111.035 241.676 110.479 241.971 110.034C242.21 109.671 242.747 109.595 243.214 109.556L247.045 109.239C247.004 109.025 246.86 108.841 246.719 108.665C245.693 107.38 244.574 106.029 242.931 105.465C242.021 105.153 240.704 105.293 240.46 106.142ZM62.9952 55.6813C60.1941 56.1044 57.1601 56.8334 55.5346 58.9296C54.6248 60.1027 54.2901 61.5515 54.0229 62.9617C52.9716 68.5089 52.6432 74.1668 53.0467 79.7823C65.1223 74.7261 79.2509 73.7656 92.0334 77.132C93.1176 77.4175 94.4591 78.2828 93.8899 79.161C84.3014 75.9692 73.6213 75.4932 63.7292 77.8167C60.5283 78.5686 57.4177 79.6026 54.2351 80.4147C49.5053 81.6216 44.6203 82.3352 39.7092 82.5365C48.6536 93.4659 49.8111 109.116 42.555 121.016C47.0696 120.247 51.3116 118.54 55.4742 116.789C61.6891 114.175 67.8773 111.419 74.4792 109.741C81.0811 108.063 88.219 107.514 94.7675 109.354C95.5335 109.569 95.9556 108.574 95.9862 107.852L97.4054 74.3932C97.6204 69.3245 97.6384 63.7201 93.9512 59.8838C90.6885 56.4891 85.3675 55.4274 80.3984 55.0456C74.5983 54.6 68.7361 54.8141 62.9952 55.6813ZM149.508 117.783C149.692 117.891 149.881 118.026 149.924 118.22C150.011 118.612 149.481 118.861 149.053 118.971C148.432 119.129 147.793 119.288 147.151 119.227C146.509 119.166 145.856 118.834 145.645 118.286C145.434 117.737 145.858 117.016 146.504 117.006C147.561 116.988 148.623 117.263 149.508 117.783ZM240.591 96.7288C238.256 97.9075 235.465 98.3382 232.826 97.9272C233.163 98.7743 234.643 99.0697 234.651 99.9696C234.655 100.518 234.082 100.903 233.756 101.366C233.505 101.722 233.396 102.142 233.296 102.554C232.356 106.429 231.816 110.381 231.686 114.345C231.664 115.028 231.852 115.93 232.607 116.005C234.17 116.159 235.643 116.948 236.539 118.111C237.272 113.955 238.006 109.799 238.74 105.643C238.91 104.679 239.054 103.601 238.426 102.805C237.562 101.709 238.314 100.209 239.071 99.0509L240.591 96.7288ZM101.51 114.693C102.307 114.836 103.214 115.456 102.912 116.135C102.726 116.553 102.164 116.723 101.664 116.747C101.164 116.771 100.643 116.704 100.175 116.864C99.6237 117.052 98.9747 116.612 98.9075 116.085C98.8402 115.558 99.2473 115.046 99.7778 114.815C100.308 114.583 100.932 114.589 101.51 114.693ZM184.126 114.051C184.628 114.113 185.158 114.213 185.524 114.529C185.89 114.846 185.99 115.448 185.601 115.741C185.472 115.838 185.31 115.889 185.151 115.938C184.461 116.15 183.722 116.358 183.014 116.2C182.305 116.043 181.69 115.366 181.935 114.748C182.217 114.034 183.292 113.947 184.126 114.051ZM229.878 105.507C229.346 105.622 228.958 106.022 228.607 106.4L226.493 108.678C226.08 109.123 226.807 109.744 227.449 109.792C228.092 109.84 228.842 109.705 229.299 110.113C229.777 110.542 229.58 111.289 229.188 111.784C228.796 112.278 228.24 112.682 228.003 113.251C227.648 114.102 228.235 115.168 229.201 115.43C229.726 115.572 230.463 115.353 230.467 114.86C230.495 111.976 230.682 109.094 231.028 106.227C231.087 105.737 230.41 105.391 229.878 105.507ZM122.63 106.939C123.035 107.181 123.297 107.569 123.567 107.932C125.886 111.057 129.764 113.205 133.909 113.659C134.868 113.764 135.999 113.869 136.48 114.623C135.576 115.427 134.105 115.329 132.867 115.07C128.479 114.151 124.458 111.87 121.645 108.703C121.197 108.197 120.787 107.429 121.287 106.965C121.626 106.651 122.226 106.697 122.63 106.939ZM227.599 93.131C224.5 93.8162 221.406 94.7833 218.894 96.5548C216.382 98.3263 214.514 101.018 214.534 103.89C214.559 107.532 212.571 111.141 209.335 113.327L214.783 113.904C215.421 113.972 216.137 114.021 216.636 113.657C217.367 113.126 217.18 112.105 216.995 111.276C216.81 110.447 216.851 109.351 217.728 109.046C218.816 108.667 219.717 110.026 219.552 111.066C219.387 112.105 218.717 113.106 218.927 114.139C221.507 114.468 224.095 114.746 226.69 114.972C226.173 114.59 226.117 113.868 226.378 113.315C226.639 112.762 227.146 112.338 227.639 111.933C228.164 111.501 227.407 110.74 226.7 110.671C225.993 110.603 225.161 110.756 224.662 110.299C224.042 109.732 224.508 108.78 225.036 108.142C226.063 106.904 227.335 105.411 226.674 103.985C225.063 100.509 225.418 96.346 227.599 93.131ZM108.76 83.6312C108.328 93.1488 108.387 102.684 108.937 112.197C112.977 110.224 115.928 106.753 117.759 102.959C118.876 100.644 119.623 98.0928 119.177 95.6013C118.844 93.7435 117.867 92.0272 116.73 90.4475C114.714 87.645 112.083 85.1154 108.76 83.6312ZM202.434 79.0712C203.885 78.8308 204.994 80.4426 204.747 81.7514C204.5 83.0602 203.442 84.1009 202.602 85.1923C201.442 86.7002 200.648 88.4072 199.863 90.1C197.994 94.1276 197.267 98.5791 197.768 102.92C198.063 105.476 198.841 108.101 200.762 110.003C202.682 111.905 205.974 112.856 208.504 111.665C210.677 110.643 211.761 108.389 212.26 106.228C212.758 104.068 212.847 101.805 213.789 99.7677C215.526 96.0083 219.81 93.7372 224.047 92.3114C217.677 91.5326 211.913 87.538 209.449 82.1941C208.743 80.6617 208.212 78.9339 206.747 77.9277C205.281 76.9216 202.52 77.4139 202.434 79.0712ZM148.588 109.731C149.036 109.808 149.476 109.925 149.899 110.08C150.596 110.335 151.345 111.041 150.896 111.585C150.651 111.883 150.181 111.918 149.77 111.928C149.02 111.945 148.211 111.947 147.599 111.558C146.987 111.168 146.775 110.225 147.392 109.842C147.732 109.632 148.184 109.661 148.588 109.731ZM182.36 108.124C182.967 108.17 183.571 108.246 184.168 108.351C184.464 108.403 184.783 108.475 184.969 108.688C185.25 109.012 185.073 109.519 184.717 109.776C184.36 110.033 183.887 110.105 183.436 110.168C182.747 110.265 182.012 110.357 181.376 110.099C180.74 109.841 180.306 109.085 180.695 108.564C181.034 108.109 181.754 108.078 182.36 108.124ZM8.9834 105.188C8.46973 105.183 8.29202 105.801 8.3076 106.263C8.35238 107.591 8.65107 108.911 9.18661 110.15C9.33569 110.286 9.50878 110.001 9.48796 109.81L8.9834 105.188ZM107.692 108.607C107.371 108.764 107.249 109.179 107.442 109.457L107.449 109.467L107.442 109.474C107.434 109.484 107.425 109.495 107.415 109.508C107.286 109.683 107.467 109.962 107.7 109.947C107.858 109.516 107.855 109.038 107.692 108.607ZM101.015 106.728C101.71 106.866 102.465 107.385 102.292 108.007C102.177 108.419 101.696 108.66 101.235 108.752C100.775 108.845 100.288 108.838 99.8486 108.992C99.2893 109.188 98.6158 108.782 98.5006 108.252C98.3854 107.722 98.7461 107.169 99.2666 106.9C99.787 106.632 100.429 106.611 101.015 106.728ZM105.038 19.06C105.078 47.7112 105.81 76.3615 107.231 104.984L107.381 107.944L107.403 106.992C107.444 104.767 107.408 102.541 107.372 100.316C106.948 74.2365 106.523 48.1568 106.099 22.077C106.081 20.9851 105.985 19.7422 105.038 19.06ZM150.573 102.538C150.963 102.643 151.354 102.803 151.607 103.09C151.86 103.377 151.933 103.818 151.683 104.107C151.44 104.386 151.001 104.439 150.609 104.471L148.934 104.605C148.66 104.626 148.366 104.645 148.128 104.521C147.936 104.421 147.808 104.238 147.75 104.045C147.574 103.465 148.01 102.835 148.614 102.576C149.217 102.318 149.933 102.366 150.573 102.538ZM15.6564 80.1106C13.915 81.6505 13.0092 83.7791 12.1724 85.8432C9.84042 91.5945 7.62436 97.6992 8.77498 103.733C9.13076 103.792 9.30034 103.356 9.32673 103.032C9.79975 97.2104 11.0923 91.4434 13.1638 85.9122C13.9542 83.8018 14.9048 81.6585 16.6606 80.0891C16.6366 79.7068 15.9599 79.8423 15.6564 80.1106ZM229.741 92.6922C229.438 92.7594 229.241 93.0172 229.082 93.2596C227.584 95.5481 226.878 98.2504 227.088 100.9C227.174 101.994 227.565 103.254 228.7 103.653C229.623 102.855 230.546 102.058 231.469 101.26C231.616 101.134 231.766 101.003 231.847 100.835C232.049 100.415 231.76 99.9471 231.494 99.5573C230.179 97.6309 229.191 95.1896 230.286 93.155C230.423 92.9018 230.045 92.6249 229.741 92.6922ZM248.92 90.223C248.773 90.2922 248.659 90.4065 248.549 90.5186C245.824 93.2918 243.193 96.1392 240.659 99.0555C240.13 99.6645 239.578 100.352 239.63 101.123C239.677 101.809 240.213 102.407 240.863 102.768C241.512 103.129 242.27 103.293 243.013 103.452C243.211 103.495 243.427 103.536 243.614 103.462C243.786 103.393 243.895 103.241 243.994 103.097C245.545 100.847 247.118 98.5515 247.851 95.9864C248.007 95.4394 248.534 95.0574 248.955 94.6387C249.783 93.8162 250.268 92.7208 250.295 91.6116C250.305 91.2359 250.256 90.8397 250.014 90.5333C249.773 90.2268 249.29 90.0492 248.92 90.223ZM182.562 101.201C182.937 101.285 183.351 101.413 183.519 101.726C183.816 102.278 183.12 102.854 182.469 103.035C181.964 103.176 181.401 103.225 180.917 103.034C180.433 102.844 180.065 102.363 180.175 101.898C180.37 101.072 181.651 100.998 182.562 101.201ZM101.637 99.9951C101.814 100.138 101.978 100.306 102.045 100.512C102.181 100.925 101.86 101.381 101.42 101.551C100.98 101.72 100.466 101.655 100.023 101.492C99.5561 101.321 99.1013 100.993 99.042 100.543C98.9741 100.027 99.4928 99.5532 100.063 99.4787C100.634 99.4041 101.207 99.6489 101.637 99.9951ZM152.134 95.4648C152.589 95.6317 152.636 96.2517 152.322 96.5922C152.008 96.9326 151.485 97.0459 150.995 97.0831C150.505 97.1202 149.998 97.1039 149.54 97.2652C148.837 97.5131 148.072 96.7483 148.239 96.0854C148.407 95.4225 149.198 95.0106 149.952 94.9789C150.707 94.9472 151.434 95.2083 152.134 95.4648ZM181.781 94.4678C182.427 94.4963 183.065 94.6489 183.641 94.9123C183.891 95.0266 184.15 95.1846 184.221 95.4287C184.367 95.9313 183.667 96.2764 183.1 96.3744C182.597 96.4613 182.087 96.513 181.575 96.529C180.944 96.5487 180.182 96.4391 179.931 95.9176C179.735 95.5124 179.973 95.0155 180.373 94.7595C180.773 94.5035 181.291 94.4462 181.781 94.4678ZM223.4 57.3612C219.634 57.9081 215.851 58.3614 212.056 58.7204C209.308 58.9805 206.72 60.3837 205.179 62.4486C204.863 62.8728 204.645 63.5497 205.134 63.8098C206.517 62.374 208.394 61.3293 210.439 60.8572C211.17 60.6885 211.97 60.5965 212.659 60.8729C213.349 61.1493 213.841 61.9102 213.529 62.5287C213.05 63.4783 211.523 63.2127 210.366 63.1492C207.149 62.9726 204.368 66.2857 205.435 69.0223C206.184 66.4099 210.328 65.2757 212.651 66.9812C214.973 68.6867 214.689 72.4322 212.205 73.9421C211.384 74.441 210.33 74.7889 209.955 75.6142C209.634 76.3218 209.943 77.1208 210.251 77.8331C210.735 78.951 211.219 80.0689 211.702 81.1868C212.716 83.5305 213.793 85.9598 215.846 87.667C217.424 88.9798 219.47 89.7608 221.558 90.2188C229.086 91.87 237.561 89.2421 242.36 83.7683C242.745 83.3296 243.623 83.7458 243.691 84.3011C243.76 84.8565 243.338 85.356 242.921 85.7696C240.772 87.8985 238.063 89.5667 235.079 90.5984C233.669 91.0861 231.993 91.6136 231.56 92.916C231.201 93.9946 231.956 95.1864 233.04 95.7477C234.125 96.309 235.447 96.3565 236.691 96.2341C239.171 95.9899 241.571 95.1163 243.542 93.7399C244.14 93.3226 244.718 92.835 244.984 92.1976C245.235 91.594 245.178 90.9266 245.117 90.2843L245.064 89.7323C244.831 87.3377 244.53 84.915 243.445 82.7252C242.923 81.6718 242.225 80.6849 241.841 79.5846C241.367 78.2277 241.396 76.772 241.077 75.3789C240.759 73.9857 239.953 72.5387 238.479 72.0252C238.868 71.135 239.839 70.575 240.468 69.8038C241.097 69.0326 241.19 67.6854 240.2 67.3371C239.726 67.1705 239.187 67.314 238.736 67.5249C236.835 68.4137 235.809 70.5884 236.419 72.4367C236.817 73.6429 234.7 74.4522 233.56 73.7236C232.42 72.995 232.139 71.6076 231.914 70.3655C231.043 65.5509 229.294 60.3606 224.725 57.7361C224.325 57.5067 223.868 57.2933 223.4 57.3612ZM101.237 91.5132C101.838 91.6886 102.437 92.1742 102.312 92.7312C102.194 93.2579 101.52 93.5045 100.932 93.5951C100.097 93.7237 99.0087 93.5763 98.7741 92.844C98.5508 92.1472 99.3614 91.4795 100.163 91.4032C100.524 91.3688 100.892 91.4123 101.237 91.5132ZM197.573 81.485C197.013 81.9627 196.74 82.6446 196.485 83.3001C195.911 84.779 195.33 86.3011 195.396 87.8666C195.438 88.8743 194.789 89.7821 194.325 90.7002C193.861 91.6183 193.61 92.7941 194.337 93.5616C196.073 92.2478 196.49 90.036 196.871 88.0238C197.328 85.6179 197.948 83.1239 199.677 81.2434C199.072 80.8126 198.133 81.0073 197.573 81.485ZM151.822 88.19C152.269 88.3194 152.775 88.5778 152.78 89.0003C152.787 89.5141 152.084 89.7505 151.523 89.843C151.241 89.8894 150.959 89.9357 150.678 89.9821C149.96 90.1002 149.191 90.2135 148.524 89.9477C147.857 89.6819 147.413 88.8717 147.849 88.3449C148.13 88.0043 148.648 87.9115 149.119 87.8853C150.031 87.8345 150.953 87.9385 151.822 88.19ZM86.5752 80.7689C87.3603 81.1069 88.2386 81.7727 87.9479 82.5109C79.8596 80.9239 71.2187 81.7088 63.646 84.7184C60.2385 86.0726 57.04 87.8632 53.5134 88.9426C52.3069 89.312 50.9898 89.5954 49.771 89.2605C48.5521 88.9256 47.5357 87.7617 47.8922 86.6606C48.2268 85.627 49.5057 85.1358 50.6388 84.7906C56.2233 83.0892 61.9051 81.6463 67.6541 80.4694C73.9268 79.1853 80.7719 78.2709 86.5752 80.7689ZM202.711 80.6818C202.134 80.6797 201.648 81.061 201.268 81.4526C200.347 82.4024 199.693 83.5417 199.206 84.7237C198.6 86.1923 198.243 87.7432 198.148 89.3072C199.82 86.718 201.609 84.1893 203.507 81.7293C203.836 81.3024 203.289 80.6839 202.711 80.6818ZM192.463 85.2944C192.305 85.2952 192.137 85.3005 192.004 85.3768C191.702 85.5487 191.744 85.9501 191.834 86.2608C192.117 87.2463 192.509 88.2064 193.003 89.1223C193.299 87.8316 193.775 86.5744 194.415 85.3893C193.767 85.3226 193.115 85.2909 192.463 85.2944ZM65.7222 81.9672C60.9347 83.2915 56.1472 84.6157 51.3597 85.9399C50.7878 86.0981 50.1242 86.3423 50.0024 86.8695C50.3917 87.3806 51.1331 87.5976 51.8208 87.5676C52.5085 87.5376 53.1613 87.3 53.7987 87.0656C58.6557 85.2797 63.5127 83.4937 68.3697 81.7077C67.5023 81.4896 66.5832 81.7291 65.7222 81.9672ZM116.243 84.3842C115.986 84.7856 115.451 84.9559 115.05 85.2465C114.649 85.537 114.413 86.1622 114.837 86.4257C115.485 85.8414 116.134 85.2571 116.782 84.6728C116.648 84.5233 116.453 84.4189 116.243 84.3842ZM166.756 84.0733C170.236 84.3994 173.748 84.5661 177.234 84.2958C178.135 84.2259 179.214 84.1932 179.749 84.8502C179.074 85.4694 178.012 85.5442 177.048 85.5813C173.43 85.7208 169.812 85.8602 166.193 85.9997C165.488 86.0269 164.594 85.9461 164.365 85.3446C164.184 84.8711 164.594 84.3487 165.109 84.1587C165.623 83.9688 166.203 84.0215 166.756 84.0733ZM220.557 80.6514C221.399 81.5731 221.707 82.8699 221.356 84.0207C221.27 84.3047 221.143 84.5833 220.941 84.8151C220.412 85.4233 219.435 85.603 218.6 85.423C217.765 85.243 217.05 84.7647 216.413 84.2469C215.757 83.7132 215.141 83.1051 214.825 82.3611C214.51 81.6172 214.547 80.712 215.106 80.0949C215.567 79.5863 216.311 79.3424 217.039 79.2945C218.361 79.2074 219.715 79.7296 220.557 80.6514ZM103.245 82.7943C103.578 83.0361 103.522 83.5383 103.238 83.8259C102.954 84.1135 102.521 84.2363 102.106 84.3293C101.617 84.4392 101.101 84.5252 100.61 84.4202C100.119 84.3151 99.6589 83.9722 99.5985 83.5213C99.5108 82.867 100.272 82.355 100.995 82.2524C101.785 82.1403 102.623 82.3422 103.245 82.7943ZM216.704 80.8685C216.336 81.298 216.578 82.0731 217.176 82.1466C217.866 82.2315 218.403 82.8841 218.292 83.5032C218.204 83.9891 218.863 84.3952 219.385 84.2493C219.908 84.1034 220.21 83.5764 220.198 83.0842C220.187 82.5921 219.926 82.1333 219.63 81.7193C219.304 81.2629 218.905 80.8196 218.354 80.5974C217.804 80.3752 217.073 80.4389 216.704 80.8685ZM214.866 36.7489C209.849 37.5759 204.879 39.548 201.644 43.0961C198.408 46.6442 197.289 51.9542 199.818 55.9399C200.712 57.3484 202.077 58.5767 203.793 59.0725C205.509 59.5683 207.585 59.2034 208.73 57.9507C210.029 56.5298 212.651 57.8926 214.605 57.3532C217.309 56.6071 220.119 56.1742 222.945 56.0685C223.615 56.0434 224.305 56.0396 224.931 56.2579C225.609 56.4947 226.146 56.9694 226.661 57.4318C228.45 59.0355 230.275 60.6855 231.334 62.7481C233.013 66.0191 232.597 70.0074 234.719 73.0633C234.966 71.147 235.214 69.2307 235.462 67.3144C235.554 66.6034 235.657 65.865 236.084 65.261C236.511 64.6571 237.365 64.2333 238.112 64.4777C239.431 64.9088 240.804 65.3718 241.751 66.3041C242.697 67.2363 243.048 68.7901 242.138 69.7513C241.258 70.6802 242.256 72.0228 242.723 73.1685C243.532 75.1533 242.581 77.4213 243.217 79.4566C243.743 81.1425 245.265 82.4013 246.719 83.5653C247.144 83.9057 247.64 84.2685 248.207 84.222C248.681 84.1831 249.063 83.8648 249.387 83.5505C251.319 81.6761 252.643 79.2992 253.154 76.7841C253.361 75.7693 252.969 74.2909 251.833 74.4294C252.143 71.9948 254.63 70.3361 256.091 68.2677C257.666 66.0368 258.038 63.2937 258.11 60.6513C258.182 57.9956 257.894 55.1094 255.928 53.1283C253.565 50.7481 248.974 50.5703 246.393 52.7589C245.75 53.3045 244.902 54.0255 244.134 53.6308C244.736 52.6595 245.338 51.6883 245.939 50.7171C246.919 49.1343 247.921 47.494 248.12 45.6908C248.513 42.133 245.504 38.7644 241.782 37.5133C238.061 36.2621 233.859 36.7809 230.126 38.0045C229.19 38.3113 228.085 38.97 228.339 39.8366C228.486 40.3384 229.051 40.6414 229.34 41.0901C229.521 41.3698 229.503 41.4594 229.299 41.6858C229.175 41.8225 228.953 42.2183 228.753 42.1411C226.637 39.9352 224.348 37.6257 221.245 36.7915C219.188 36.2385 216.978 36.4008 214.866 36.7489ZM190.829 82.2441C190.565 82.103 190.058 82.0104 190.108 82.2835C190.251 82.9517 190.919 83.4486 191.64 83.6529C192.362 83.8572 193.136 83.8227 193.891 83.7862C194.186 83.772 194.501 83.7514 194.736 83.5899C194.933 83.4545 195.041 83.2416 195.142 83.0376C195.314 82.688 195.485 82.3385 195.657 81.9889C194.254 81.1671 192.27 83.0122 190.829 82.2441ZM150.308 79.9617C150.898 80.0015 151.484 80.0942 152.054 80.2379C152.548 80.3624 153.115 80.6226 153.14 81.0836C153.172 81.6905 152.295 81.9383 151.622 81.9906C150.938 82.0438 150.253 82.097 149.569 82.1503C149.07 82.189 148.506 82.2089 148.139 81.9022C147.647 81.4903 147.846 80.6913 148.379 80.323C148.912 79.9546 149.638 79.9165 150.308 79.9617ZM166.316 79.8298C169.59 80.2241 172.908 80.3191 176.203 80.113C176.589 80.0889 177.01 80.0685 177.329 80.2674C177.647 80.4662 177.726 80.979 177.379 81.1334C177.273 81.1802 177.152 81.185 177.034 81.189C173.051 81.3243 169.068 81.4596 165.084 81.5949C164.721 81.6072 164.321 81.609 164.042 81.3997C163.541 81.025 163.828 80.2237 164.402 79.947C164.975 79.6702 165.671 79.7521 166.316 79.8298ZM198.101 76.9098C196.83 76.9714 195.536 77.0775 194.361 77.5214C193.187 77.9653 192.134 78.8004 191.783 79.9023C191.712 80.126 191.685 80.4012 191.876 80.5583C192.024 80.6806 192.248 80.6824 192.449 80.6753C194.562 80.6006 196.665 80.3175 198.71 79.8326C199.726 79.5916 200.951 79.0101 200.814 78.0722C200.741 77.5785 200.268 77.1926 199.745 77.0291C199.223 76.8656 198.654 76.883 198.101 76.9098ZM51.3824 76.7718C51.1796 77.7377 51.13 78.7295 51.2356 79.7078C51.4984 79.9631 51.8442 79.4647 51.8219 79.1173C51.7712 78.3241 51.6235 77.536 51.3824 76.7718ZM119.408 75.5904C126.731 75.8883 134.054 76.1861 141.377 76.484C142.061 76.5118 142.969 76.7474 142.928 77.362C142.054 77.8671 140.927 77.7627 139.895 77.6545C133.367 76.9699 126.764 76.8753 120.215 77.3726C119.65 77.4155 119.049 77.4571 118.545 77.2237C118.04 76.9902 117.715 76.3681 118.042 75.9512C118.329 75.5865 118.913 75.5702 119.408 75.5904ZM101.651 74.8992C101.974 74.943 102.309 75.0188 102.543 75.2229C103.078 75.6895 102.748 76.5764 102.104 76.9144C101.461 77.2525 100.664 77.2051 99.9215 77.1473C99.1069 77.084 98.8425 75.9842 99.3776 75.4278C99.9127 74.8714 100.843 74.7893 101.651 74.8992ZM127.407 72.4616C139.341 73.0188 151.276 73.576 163.211 74.1332C163.85 74.163 164.696 74.3843 164.662 74.9596C162.694 75.2786 160.656 75.2431 158.703 74.8558L160.437 76.1987C159.611 76.6677 158.73 77.1522 157.753 77.1716C156.776 77.1911 155.712 76.5429 155.74 75.6637C156.234 75.4584 156.729 75.253 157.223 75.0477C147.582 74.3043 137.896 74.0331 128.222 74.2356C127.664 74.2472 127.069 74.2517 126.597 73.9824C126.126 73.713 125.887 73.0583 126.277 72.6989C126.556 72.4419 127.008 72.443 127.407 72.4616ZM204.685 73.8979C204.255 73.9191 203.89 74.1761 203.557 74.4216C203.162 74.7125 202.767 75.0035 202.372 75.2944C201.958 75.5993 201.509 75.963 201.485 76.4439C201.472 76.7048 201.693 77.0146 201.975 76.9558C202.054 76.9394 202.123 76.8965 202.189 76.8544C203.13 76.257 204.072 75.6595 205.013 75.0621C205.205 74.9402 205.41 74.8022 205.472 74.5983C205.586 74.2244 205.115 73.8767 204.685 73.8979ZM219.325 70.7684C219.363 71.6396 218.882 72.4561 218.711 73.3143C218.54 74.1725 218.866 75.2654 219.809 75.4663C220.087 75.5255 220.167 75.8837 220.01 76.0985C219.853 76.3134 219.557 76.4061 219.275 76.452C218.402 76.5948 217.368 76.3425 216.966 75.6299C216.765 75.2732 216.75 74.8581 216.738 74.4583C216.708 73.3878 216.677 72.3174 216.647 71.2469C216.626 70.515 216.717 69.6137 217.461 69.3183C218.348 68.9665 219.288 69.8971 219.325 70.7684ZM206.343 75.6246C206.171 75.6968 206.054 75.8641 206.056 76.035L206.013 76.0451C206.108 76.2359 206.452 76.2656 206.586 76.0948C206.721 75.9239 206.575 75.6422 206.343 75.6246ZM204.697 70.0296C204.302 70.0386 203.86 70.1032 203.627 70.3899C203.377 70.6965 203.478 71.1463 203.735 71.4483C203.991 71.7503 204.369 71.9446 204.722 72.1539C206.206 73.0354 207.392 74.3196 208.083 75.7947C208.553 75.2381 209.023 74.6814 209.493 74.1248C209.844 73.709 210.214 73.2336 210.14 72.7157C210.086 72.3417 209.807 72.0271 209.511 71.7604C208.255 70.6298 206.472 69.9889 204.697 70.0296ZM53.3323 61.4174C52.7803 61.458 52.4943 62.0158 52.3207 62.4891C52.0563 63.2102 51.7919 63.9314 51.5275 64.6525C51.2387 65.4404 50.9478 66.2371 50.8685 67.0637C50.816 67.6114 50.8576 68.1626 50.8992 68.7111C51.029 70.4242 51.1589 72.1373 51.2888 73.8504C51.3139 74.1816 51.5939 74.6389 51.8982 74.4513C51.7718 70.0756 52.2548 65.6858 53.3323 61.4174ZM209.448 67.7164C208.947 67.8881 208.414 68.19 208.342 68.6681C208.269 69.1462 209.051 69.5899 209.355 69.1921C209.742 68.6843 210.71 68.9494 211.03 69.4937C211.35 70.0379 211.256 70.6926 211.251 71.3083C211.246 71.9241 211.403 72.6306 212 72.9322C212.1 72.1085 212.2 71.2848 212.3 70.461C212.424 69.4441 212.416 68.1829 211.423 67.6853C210.829 67.3873 210.084 67.4985 209.448 67.7164ZM225.536 67.2511C226.349 67.2837 227.218 67.5387 227.662 68.1523C228.107 68.7659 227.871 69.7709 227.087 69.9686C225.969 70.2505 224.923 68.832 223.83 69.1842C223.146 69.4045 222.724 70.27 222.011 70.1458C221.568 70.0688 221.323 69.5921 221.411 69.1945C221.499 68.797 221.829 68.4788 222.182 68.2271C223.123 67.5562 224.337 67.203 225.536 67.2511ZM101.007 66.5265C101.791 66.6405 102.558 67.4129 102.145 68.0232C102.029 68.1945 101.84 68.3163 101.643 68.4097C101.154 68.6412 100.551 68.72 100.046 68.518C99.5416 68.316 99.1865 67.792 99.3231 67.3103C99.4948 66.7049 100.322 66.4269 101.007 66.5265ZM226.811 62.51C227.351 62.9716 227.771 63.8409 227.167 64.2326C226.528 64.647 225.763 63.9476 225.151 63.5008C224.468 63.0016 223.543 62.7812 222.675 62.9111C222.12 62.9942 221.597 63.2113 221.04 63.2841C220.483 63.3569 219.835 63.2418 219.531 62.8155C219.212 62.3684 219.415 61.7354 219.854 61.3798C220.292 61.0241 220.901 60.894 221.489 60.8456C223.417 60.6869 225.408 61.3095 226.811 62.51ZM100.98 61.0951C101.461 61.3492 101.72 61.948 101.453 62.3885C101.099 62.9706 100.171 62.9626 99.4551 62.8027C99.1973 62.745 98.9263 62.669 98.7557 62.4859C98.3485 62.0487 98.805 61.3631 99.3734 61.1108C99.8739 60.8886 100.498 60.8411 100.98 61.0951Z" fill="#00160A"/>
<path fill-rule="evenodd" clip-rule="evenodd" d="M36.3711 119.634C36.4369 119.798 36.4977 119.982 36.4225 120.143C36.2875 120.432 35.8481 120.444 35.4999 120.441C33.0503 120.423 30.773 122.317 30.599 124.516C30.5806 124.748 30.2259 124.854 29.9963 124.747C29.7668 124.639 29.6487 124.407 29.5693 124.185C29.1217 122.936 29.4101 121.535 30.1235 120.39C30.8369 119.245 31.9409 118.331 33.1402 117.583C33.6054 117.293 34.1847 117.015 34.7111 117.202C35.0589 117.326 35.2861 117.624 35.4755 117.915C35.8321 118.461 36.1324 119.038 36.3711 119.634ZM34.9483 119.384C34.7327 118.79 33.8577 118.577 33.2041 118.787C32.5504 118.997 32.0739 119.497 31.6291 119.976C31.2074 120.43 30.7663 120.926 30.7166 121.517C31.8437 120.442 33.3415 119.687 34.9483 119.384Z" fill="#FFB61D"/>
</svg>
