<svg width="209" height="163" viewBox="0 0 209 163" fill="none" xmlns="http://www.w3.org/2000/svg">
<path fill-rule="evenodd" clip-rule="evenodd" d="M129.573 14.4965C129.493 10.1895 129.06 5.29266 132.24 2.19226C131.569 9.35458 130.899 16.5169 130.229 23.6792C131.317 24.1874 129.694 25.0374 128.711 25.0545C125.187 25.1157 129.654 18.8035 129.573 14.4965Z" fill="#FFB61D"/>
<path fill-rule="evenodd" clip-rule="evenodd" d="M90.9336 158.366C81.5489 162.789 70.5465 163.149 60.1355 161.889C39.9801 159.451 19.6262 150.261 9.60446 133.635C5.28163 126.463 3.09835 118.331 1.57727 110.212C-0.454148 99.3685 -1.27476 87.7116 3.83002 77.8034C8.13346 69.4506 16.1197 63.3723 24.0765 57.8814C32.4155 52.1267 41.4492 46.5315 51.7197 45.3814C81.347 44.8296 78.3457 55.2972 109.287 38.649C118.281 33.8093 145.024 42.1168 154.059 44.8296C163.095 47.5423 180.925 55.9115 193.017 65.8535C198.071 70.0092 202.733 74.7652 205.574 80.4862C209.827 89.052 209.621 99.0306 207.636 108.298C205.635 117.646 201.289 127.369 192.462 132.06C188.474 134.18 183.876 135.089 179.31 135.437C160.243 136.889 139.96 129.233 122.512 136.608C110.566 141.657 102.642 152.849 90.9336 158.366Z" fill="#979797"/>
<path fill-rule="evenodd" clip-rule="evenodd" d="M19.4395 81.421C23.0224 78.1018 26.3898 74.6794 28.656 71.6967C31.7755 67.591 36.3494 63.6872 41.7691 62.9341C48.0894 62.0558 53.894 66.1539 58.4883 70.3295C64.8355 76.0981 70.5317 82.4999 75.4505 89.3928C73.4774 89.6345 69.2256 92.4025 63.5752 92.3146C60.2492 92.2629 56.2755 89.4751 52.4343 89.2889C49.7663 89.1596 46.8536 91.7862 44.167 91.5859C39.4697 91.2357 35.0763 87.9829 31.1137 87.3945C28.7531 87.044 25.5673 89.2509 23.7527 88.8082C18.766 87.5916 17.2881 83.4141 19.4395 81.421Z" fill="#F2F2F2"/>
<path fill-rule="evenodd" clip-rule="evenodd" d="M126.879 133.062C142.363 128.26 159.143 133.825 175.447 133.62C182.67 133.529 190.391 132.03 195.363 127.101C184.472 121.07 176.205 111.479 170.184 101.028C164.162 90.577 160.203 79.2069 156.277 67.9081C151.11 65.1375 144.46 69.823 138.789 68.1379C135.891 67.2768 132.431 64.9377 130.351 67.0219C129.096 68.2801 126.758 67.54 125.537 66.2523C124.316 64.9646 123.636 63.2528 122.259 62.1126C120.882 60.9724 118.269 60.8287 117.568 62.4233C116.355 65.1836 115.077 68.0348 112.752 70.0689C110.426 72.1029 106.739 73.0848 104.016 71.5489C101.888 70.3492 100.884 68.0147 99.6449 65.9935C98.4057 63.9724 97.9223 62.1554 95.4581 62.4233C87.1341 78.918 80.9196 95.133 70.6795 110.645C66.2791 117.31 41.6592 142.719 27.3537 139.444C13.0482 136.17 14.1095 133.62 9.27853 129.593C14.3108 139.222 23.2007 146.798 33.351 151.695C43.5014 156.592 54.8703 158.947 66.2423 159.797C70.7296 160.133 75.2809 160.239 79.6979 159.422C97.7995 156.076 109.358 138.495 126.879 133.062Z" fill="#F2F2F2"/>
<path fill-rule="evenodd" clip-rule="evenodd" d="M133.219 21.2515C132.851 21.1421 132.465 21.0177 132.211 20.7424C131.845 20.3462 131.86 19.7647 131.895 19.2435C132.239 14.0929 132.584 8.94238 132.928 3.79185C132.968 3.19503 133.581 2.75222 134.207 2.66115C134.832 2.57009 135.466 2.74633 136.074 2.92061C139.998 4.04482 143.922 5.16902 147.846 6.29323C148.803 6.5676 148.874 7.81642 148.688 8.74019C148.502 9.66397 148.371 10.8496 149.232 11.3339C154.98 14.5667 161.076 17.2421 167.391 19.3039C167.799 19.4371 167.838 20.0199 167.56 20.327C167.281 20.6342 166.83 20.735 166.41 20.8218C160.053 22.1368 153.843 24.0561 147.903 26.5416C147.072 26.8894 145.985 27.2087 145.343 26.5901C144.887 26.1498 144.919 25.4581 144.871 24.8465C144.823 24.2348 144.525 23.5035 143.88 23.4293C140.269 23.014 136.695 22.2839 133.219 21.2515ZM146.318 10.6861C147.163 9.37246 146.514 7.39635 145.027 6.76004C141.501 5.25102 137.808 4.10494 134.032 3.34834C134.673 4.26571 134.658 5.44331 134.621 6.53927C134.477 10.7476 134.327 14.9947 133.241 19.0668C133.147 19.4189 133.625 19.6453 133.999 19.7229C137.348 20.4181 140.72 21.0066 144.107 21.4868C143.779 18.3808 143.45 15.2747 143.122 12.1687C143.085 11.8234 143.051 11.4628 143.184 11.1414C143.399 10.6207 144.014 10.3352 144.603 10.3163C145.191 10.2974 145.763 10.4932 146.318 10.6861ZM145.719 13.2434C146.045 16.8787 146.372 20.5139 146.698 24.1492C146.726 24.4679 146.772 24.8195 147.025 25.0342C152.424 22.8807 158.025 21.1706 163.746 19.9291C157.499 18.2735 152.178 13.6889 145.719 13.2434Z" fill="#FFB61D"/>
<path fill-rule="evenodd" clip-rule="evenodd" d="M90.9337 158.366C81.5489 162.789 70.5465 163.149 60.1355 161.889C39.9802 159.451 19.6262 150.261 9.60447 133.635C5.28164 126.463 3.09836 118.331 1.57728 110.211C0.742788 105.757 -0.877874 99.0861 2.08969 96.0581C2.75276 95.3816 21.38 81.273 28.656 71.6967C31.7755 67.591 36.3494 63.6872 41.7691 62.934C48.0894 62.0557 53.894 66.1539 58.4883 70.3295C64.8355 76.0981 70.5317 82.4999 75.4505 89.3928C70.03 87.227 66.1288 82.7257 62.5282 78.3424C58.9276 73.9592 55.2071 69.3727 49.9358 66.9024C44.6646 64.4322 37.3443 64.8436 33.9208 69.3506C25.761 80.093 15.4389 89.3773 3.6645 96.565C2.77891 97.1056 2.69885 98.2745 2.71543 99.2673C2.90683 110.728 4.2692 123.779 14.0174 130.658C22.1594 136.404 33.9787 135.654 42.8975 131.04C51.8164 126.427 58.3391 118.622 63.9389 110.628C80.3654 87.1769 91.0316 60.3717 108.687 37.7247C112.746 32.5185 117.528 27.3121 124.067 25.3495C128.43 24.04 129.654 18.8035 129.573 14.4965C129.493 10.1895 129.06 5.29266 132.24 2.19226C131.569 9.35458 130.899 16.5169 130.229 23.6792C139.995 28.2396 145.7 37.9492 149.886 47.4185C156.103 61.4799 160.323 76.2804 166.868 90.2095C173.413 104.139 182.703 117.523 196.436 125.59C202.793 117.807 206.418 105.346 206.418 98.2256C202.793 94.5097 197.644 88.6967 191.619 86.0793C184.438 82.9591 176.559 88.4293 170.79 93.5203C173.978 88.9556 177.806 84.1506 183.448 82.8578C188.003 81.8142 192.877 83.3708 196.656 85.9799C200.435 88.5889 203.316 92.16 206.141 95.6784C208.997 96.565 209.621 99.0305 207.636 108.298C205.635 117.646 201.289 127.369 192.462 132.06C188.474 134.18 183.876 135.089 179.31 135.437C160.243 136.889 139.96 129.233 122.512 136.608C110.566 141.657 102.642 152.849 90.9337 158.366ZM126.879 133.062C142.363 128.26 159.143 133.825 175.447 133.62C182.67 133.529 190.391 132.03 195.363 127.101C184.472 121.07 176.205 111.479 170.184 101.028C164.162 90.577 160.203 79.2069 156.277 67.9081C151.11 65.1375 144.46 69.823 138.789 68.1379C135.891 67.2768 132.431 64.9377 130.351 67.0219C129.096 68.2801 126.758 67.54 125.537 66.2523C124.316 64.9646 123.636 63.2528 122.259 62.1126C120.882 60.9724 118.269 60.8288 117.568 62.4233C116.355 65.1836 115.077 68.0348 112.752 70.0689C110.426 72.1029 106.739 73.0848 104.016 71.5489C101.888 70.3492 100.884 68.0147 99.6449 65.9936C98.4057 63.9725 96.3532 61.9518 93.8889 62.2197C85.565 78.7144 76.2535 94.7682 66.0133 110.28C61.613 116.945 56.9557 123.605 50.6533 128.745C44.351 133.885 36.1209 137.401 27.8136 136.686C21.1099 136.109 15.0205 132.898 9.27854 129.593C14.3108 139.222 23.2007 146.798 33.351 151.695C43.5014 156.592 54.8703 158.947 66.2423 159.797C70.7296 160.133 75.2809 160.239 79.6979 159.422C97.7995 156.076 109.358 138.495 126.879 133.062ZM111.033 67.5164C112.62 65.5889 113.611 63.2701 115.245 61.3785C116.879 59.4869 119.534 58.0206 122.006 58.7512C124.307 59.4311 125.572 61.6889 126.598 63.7417C127.113 64.7723 128.679 64.8521 129.807 64.4388C130.936 64.0255 131.95 63.2783 133.154 63.1547C135.644 62.8991 137.52 65.3256 139.954 65.8843C143.576 66.7158 147.217 63.2396 150.796 64.2205C152.311 64.6356 153.622 65.8266 155.196 65.7249C152.169 58.9002 149.905 52.1802 146.727 45.4165C143.549 38.6528 136.645 26.6913 131.122 26.0242C125.537 25.3495 116.989 31.3642 112.983 35.4723C108.978 39.5804 105.738 44.2887 102.633 49.0365C99.975 53.1015 97.3997 57.2146 94.9094 61.3727C98.2489 60.9268 101.158 63.5059 103.047 66.1338C104.178 67.7061 105.524 69.5794 107.542 69.5724C108.965 69.5675 110.162 68.5747 111.033 67.5164Z" fill="#7075CE"/>
<path fill-rule="evenodd" clip-rule="evenodd" d="M111.355 68.7262C112.941 66.7987 113.932 64.4799 115.567 62.5883C117.201 60.6967 119.855 59.2304 122.327 59.961C124.628 60.6408 125.894 62.8987 126.92 64.9514C127.435 65.9821 129.001 66.0619 130.129 65.6486C131.257 65.2353 132.272 64.488 133.475 64.3645C135.966 64.1089 137.842 66.5354 140.276 67.0941C143.898 67.9255 147.538 64.4494 151.118 65.4303C152.632 65.8454 153.943 67.0364 155.517 66.9347C152.49 60.11 150.21 53.0031 147.032 46.2394C143.853 39.4757 139.662 32.9476 133.56 28.2844C132.932 27.8049 132.246 27.3302 131.444 27.234C130.642 27.1378 129.713 27.5661 129.572 28.3148C129.154 30.5409 128.737 32.767 128.319 34.9931C128.112 36.0951 127.566 37.4787 126.376 37.4578C125.584 37.4438 124.975 36.7129 124.866 35.9743C124.757 35.2358 125.02 34.4984 125.279 33.7938C126.092 31.586 126.904 29.3782 127.717 27.1704C122.142 29.0623 117.31 32.574 113.305 36.6821C109.299 40.7902 106.06 45.4985 102.955 50.2462C100.297 54.3113 97.7212 58.4244 95.2309 62.5825C98.5704 62.1366 101.479 64.7157 103.369 67.3435C104.499 68.9159 105.845 70.7892 107.863 70.7822C109.286 70.7773 110.484 69.7845 111.355 68.7262Z" fill="#F2F2F2"/>
<path fill-rule="evenodd" clip-rule="evenodd" d="M86.4169 12.6666C82.9084 13.0014 80.0466 15.8985 78.6011 19.8191C78.2254 20.8382 76.9918 21.3089 74.8275 21.505L74.6911 21.5169C69.8991 21.9187 66.718 23.0795 65.1842 25.7332L65.12 25.8466C64.9952 26.0723 64.8884 26.2976 64.7321 26.6538L64.6312 26.8857C64.2693 27.7223 64.0841 28.0763 63.7743 28.4446C62.8096 29.5916 61.358 29.9446 58.453 30.0267L58.1303 30.0346C51.1705 30.1804 46.2536 31.175 42.2707 33.7911C41.1313 34.5395 40.4529 35.2824 40.301 36.2345C40.1269 37.3258 40.801 38.4557 41.8772 39.076C42.7384 39.5724 43.7712 39.7684 45.0611 39.772C46.6305 39.7764 48.1998 39.5194 49.6753 39.0165L49.7983 38.9741C50.0204 38.8966 50.2313 38.8177 50.5444 38.6956L51.2077 38.4352C52.5684 37.9057 53.2287 37.718 54.0566 37.6772C55.334 37.6142 56.342 37.9313 58.4885 38.9177L58.94 39.126C59.4073 39.3411 59.7444 39.491 60.075 39.6273L60.1651 39.6641C63.7662 41.127 67.4478 41.3718 73.4274 40.9429L74.6072 40.8533L77.2201 40.6454C77.9061 40.593 78.3972 40.5594 78.9629 40.5257L79.5087 40.4954C81.8379 40.3762 84.3243 40.3742 88.3842 40.4504L91.1767 40.5053C96.7732 40.6091 99.2961 40.5811 101.986 40.3207C105.111 40.0181 107.146 37.9659 107.98 34.9257C108.657 32.4617 108.411 29.5867 107.469 28.2206C105.587 25.4929 102.779 23.8499 100.195 24.607C99.3389 24.8579 98.2615 24.2664 97.7118 23.296C97.4132 22.7689 97.2616 22.2934 97.0126 21.2281L96.8921 20.7124C96.8226 20.421 96.7716 20.226 96.7073 20.0069C95.8307 17.0237 93.4369 14.4763 90.3967 13.2914C89.0627 12.7715 87.7054 12.5436 86.4169 12.6666ZM90.0275 14.1295C92.7463 15.1891 94.9058 17.4562 95.7358 20.1109L95.7776 20.2486C95.8373 20.4521 95.8855 20.6366 95.9525 20.9173L96.1013 21.5538C96.3519 22.6108 96.5211 23.1234 96.8605 23.7225C97.5925 25.0148 99.0622 25.8392 100.402 25.4952L100.482 25.4731C102.555 24.8658 104.986 26.2881 106.659 28.7144C107.437 29.8413 107.661 32.4609 107.047 34.699C106.304 37.4029 104.563 39.1591 101.887 39.4182L101.587 39.4463C99.1237 39.6692 96.673 39.6959 91.6188 39.6059L87.9285 39.5347C84.1224 39.467 81.7214 39.4734 79.455 39.5896L78.566 39.6408C77.9314 39.6808 77.3263 39.7255 76.3379 39.804L73.613 40.0194C67.7113 40.4569 64.1229 40.2473 60.6986 38.8918L60.5476 38.8312C60.2615 38.715 59.9756 38.5902 59.6005 38.4195L58.7536 38.03C56.5653 37.0318 55.4678 36.6991 54.0061 36.7712C53.0069 36.8205 52.2597 37.0396 50.7097 37.6474L50.0242 37.916C49.753 38.0205 49.5637 38.0896 49.3467 38.1635C47.9775 38.6302 46.5203 38.8688 45.064 38.8648C43.935 38.8616 43.0648 38.6965 42.3813 38.3025C41.6141 37.8602 41.1431 37.0707 41.255 36.3691C41.3574 35.7272 41.8814 35.1534 42.823 34.5349C46.5633 32.0781 51.239 31.1097 57.8815 30.9477L58.1518 30.9416C61.5595 30.8702 63.2842 30.4898 64.5309 29.0074C64.8841 28.5875 65.092 28.2113 65.4293 27.4462L65.6903 26.8496C65.8225 26.5543 65.916 26.3667 66.0317 26.1664C67.3252 23.9286 70.1125 22.8603 74.3898 22.455L74.7768 22.4205C77.3395 22.2056 78.8986 21.6466 79.4812 20.1977L79.5125 20.1163C80.8479 16.4944 83.4485 13.8617 86.5144 13.5691C87.5841 13.467 88.7287 13.647 89.8717 14.0703L90.0275 14.1295Z" fill="#E7EAEE"/>
<path fill-rule="evenodd" clip-rule="evenodd" d="M190.964 31.4416L190.845 31.5536C190.754 31.6407 190.664 31.7311 190.553 31.8465L190.112 32.3136C189.691 32.757 189.463 32.9682 189.166 33.1796C188.517 33.6397 187.741 33.7819 187.224 33.5101C187.017 33.4007 186.862 33.2574 186.564 32.9124L186.341 32.6548C186.226 32.5229 186.143 32.4361 186.042 32.3402C184.711 31.0786 182.386 31.0175 180.616 32.0219C179.231 32.8079 178.236 34.012 177.146 35.9275C176.7 36.71 175.721 37.2512 174.557 37.4166C173.991 37.497 173.396 37.5029 172.635 37.4499L172.262 37.4207L171.093 37.3091C164.936 36.738 158.641 37.5562 152.88 39.6758C151.971 40.0103 151.465 40.3101 151.144 40.8684C150.681 41.6731 151.15 42.841 152.139 42.8925C169.026 43.7726 185.983 43.4719 202.823 41.9938L203.891 41.8995L204.671 41.8492C204.743 41.8441 204.803 41.8394 204.878 41.8331L205.077 41.8144C206.614 41.6542 207.458 41.1748 207.458 39.9735C207.458 38.813 206.863 38.4956 205.361 38.3517L205.06 38.322C204.479 38.2623 204.213 38.2175 203.855 38.1129C202.581 37.7418 201.064 36.9681 200.733 36.5817C200.244 36.0101 200.035 35.4722 199.737 34.2215L199.643 33.8258C199.331 32.5376 199.082 31.9231 198.492 31.2339C196.772 29.222 193.1 29.4681 190.964 31.4416ZM197.741 31.8025C198.229 32.3739 198.438 32.9119 198.735 34.1605L198.829 34.5564C199.142 35.8467 199.391 36.4612 199.982 37.1508C200.46 37.7085 202.129 38.5598 203.569 38.9796L203.701 39.0168C204.046 39.1102 204.335 39.1578 204.84 39.2118L205.505 39.2791C206.354 39.3735 206.493 39.4871 206.493 39.9735C206.493 40.5653 206.037 40.8137 204.889 40.9209L204.596 40.9447L203.861 40.9916C203.826 40.9942 203.793 40.9967 203.761 40.9993L203.666 41.0075C186.567 42.5529 169.343 42.8806 152.192 41.9867C151.996 41.9765 151.835 41.5746 151.993 41.2999C152.171 40.9905 152.524 40.781 153.231 40.5208C158.753 38.4889 164.782 37.6829 170.687 38.1844L171.41 38.2516L172.007 38.3092C172.146 38.322 172.262 38.3318 172.389 38.3418C173.299 38.4129 174.008 38.4121 174.701 38.3137C176.143 38.1089 177.391 37.4189 177.996 36.3556C179.011 34.572 179.914 33.4802 181.114 32.7987C182.531 31.9947 184.369 32.043 185.357 32.9793L185.415 33.0354C185.463 33.083 185.51 33.1342 185.569 33.2004L185.754 33.414C186.168 33.8978 186.389 34.1098 186.753 34.3018C187.652 34.7747 188.822 34.5604 189.747 33.9038C190.086 33.6627 190.336 33.4355 190.748 33.0052L191.262 32.4617C191.411 32.3062 191.517 32.2018 191.639 32.0889C193.404 30.4586 196.419 30.2566 197.741 31.8025Z" fill="#7075CE"/>
<path fill-rule="evenodd" clip-rule="evenodd" d="M133.219 21.2515C132.851 21.1421 132.465 21.0177 132.211 20.7424C131.845 20.3462 131.86 19.7647 131.895 19.2435C132.239 14.0929 132.584 8.94238 132.928 3.79185C132.968 3.19503 133.581 2.75222 134.207 2.66115C134.832 2.57009 135.466 2.74633 136.074 2.92061C139.998 4.04482 143.922 5.16902 147.846 6.29323C148.803 6.5676 148.874 7.81642 148.688 8.74019C148.502 9.66397 148.371 10.8496 149.232 11.3339C154.98 14.5667 161.076 17.2421 167.391 19.3039C167.799 19.4371 167.838 20.0199 167.56 20.327C167.281 20.6342 166.83 20.735 166.41 20.8218C160.053 22.1368 153.843 24.0561 147.903 26.5416C147.072 26.8894 145.985 27.2087 145.343 26.5901C144.887 26.1498 144.919 25.4581 144.871 24.8465C144.823 24.2348 144.525 23.5035 143.88 23.4293C140.269 23.014 136.695 22.2839 133.219 21.2515ZM146.318 10.6861C147.163 9.37246 146.514 7.39635 145.027 6.76004C141.501 5.25102 137.808 4.10494 134.032 3.34834C134.673 4.26571 134.658 5.44331 134.621 6.53927C134.477 10.7476 134.327 14.9947 133.241 19.0668C133.147 19.4189 133.625 19.6453 133.999 19.7229C137.348 20.4181 140.72 21.0066 144.107 21.4868C143.779 18.3808 143.45 15.2747 143.122 12.1687C143.085 11.8234 143.051 11.4628 143.184 11.1414C143.399 10.6207 144.014 10.3352 144.603 10.3163C145.191 10.2974 145.763 10.4932 146.318 10.6861ZM145.719 13.2434C146.045 16.8787 146.372 20.5139 146.698 24.1492C146.726 24.4679 146.772 24.8195 147.025 25.0342C152.424 22.8807 158.025 21.1706 163.746 19.9291C157.499 18.2735 152.178 13.6889 145.719 13.2434Z" fill="#FFB61D"/>
<path fill-rule="evenodd" clip-rule="evenodd" d="M90.9337 158.366C81.5489 162.789 70.5465 163.149 60.1355 161.889C39.9802 159.451 19.6262 150.261 9.60447 133.635C5.28164 126.463 3.09836 118.331 1.57728 110.211C0.742788 105.757 -0.877874 99.0861 2.08969 96.0581C2.75276 95.3816 21.38 81.273 28.656 71.6967C31.7755 67.591 36.3494 63.6872 41.7691 62.934C48.0894 62.0557 53.894 66.1539 58.4883 70.3295C64.8355 76.0981 70.5317 82.4999 75.4505 89.3928C70.03 87.227 66.1288 82.7257 62.5282 78.3424C58.9276 73.9592 55.2071 69.3727 49.9358 66.9024C44.6646 64.4322 37.3443 64.8436 33.9208 69.3506C25.761 80.093 15.4389 89.3773 3.6645 96.565C2.77891 97.1056 2.69885 98.2745 2.71543 99.2673C2.90683 110.728 4.2692 123.779 14.0174 130.658C22.1594 136.404 33.9787 135.654 42.8975 131.04C51.8164 126.427 58.3391 118.622 63.9389 110.628C80.3654 87.1769 91.0316 60.3717 108.687 37.7247C112.746 32.5185 117.528 27.3121 124.067 25.3495C128.43 24.04 129.654 18.8035 129.573 14.4965C129.493 10.1895 129.06 5.29266 132.24 2.19226C131.569 9.35458 130.899 16.5169 130.229 23.6792C139.995 28.2396 145.7 37.9492 149.886 47.4185C156.103 61.4799 160.323 76.2804 166.868 90.2095C173.413 104.139 182.703 117.523 196.436 125.59C202.793 117.807 206.418 105.346 206.418 98.2256C202.793 94.5097 197.644 88.6967 191.619 86.0793C184.438 82.9591 176.559 88.4293 170.79 93.5203C173.978 88.9556 177.806 84.1506 183.448 82.8578C188.003 81.8142 192.877 83.3708 196.656 85.9799C200.435 88.5889 203.316 92.16 206.141 95.6784C208.997 96.565 209.621 99.0305 207.636 108.298C205.635 117.646 201.289 127.369 192.462 132.06C188.474 134.18 183.876 135.089 179.31 135.437C160.243 136.889 139.96 129.233 122.512 136.608C110.566 141.657 102.642 152.849 90.9337 158.366ZM126.879 133.062C142.363 128.26 159.143 133.825 175.447 133.62C182.67 133.529 190.391 132.03 195.363 127.101C184.472 121.07 176.205 111.479 170.184 101.028C164.162 90.5771 160.203 79.207 156.277 67.9082C151.11 65.1376 144.46 69.8231 138.789 68.138C135.891 67.2769 132.431 64.9378 130.351 67.022C129.096 68.2802 126.758 67.5401 125.537 66.2524C124.316 64.9647 123.636 63.2529 122.259 62.1127C120.882 60.9725 118.269 60.8289 117.568 62.4234C116.355 65.1838 115.077 68.0349 112.752 70.069C110.426 72.1031 106.739 73.0849 104.016 71.549C101.888 70.3493 100.884 68.0148 99.6449 65.9937C98.4057 63.9726 96.3532 61.9519 93.8889 62.2198C85.565 78.7145 76.2535 94.7683 66.0133 110.28C61.613 116.945 56.9557 123.605 50.6533 128.745C44.351 133.885 36.1209 137.401 27.8136 136.686C21.1099 136.109 15.0205 132.898 9.27854 129.593C14.3108 139.222 23.2007 146.798 33.351 151.695C43.5014 156.592 54.8703 158.947 66.2423 159.797C70.7296 160.133 75.2809 160.239 79.6979 159.422C97.7995 156.076 109.358 138.495 126.879 133.062ZM111.033 67.5164C112.62 65.5889 113.611 63.2701 115.245 61.3785C116.879 59.4869 119.534 58.0206 122.006 58.7512C124.307 59.4311 125.572 61.6889 126.598 63.7417C127.113 64.7723 128.679 64.8521 129.807 64.4388C130.936 64.0255 131.95 63.2783 133.154 63.1547C135.644 62.8991 137.52 65.3256 139.954 65.8843C143.576 66.7158 147.217 63.2396 150.796 64.2205C152.311 64.6356 153.622 65.8266 155.196 65.7249C152.169 58.9002 149.905 52.1802 146.727 45.4165C143.549 38.6528 136.645 26.6913 131.122 26.0242C125.537 25.3495 116.989 31.3642 112.983 35.4723C108.978 39.5804 105.738 44.2887 102.633 49.0365C99.975 53.1015 97.3997 57.2146 94.9094 61.3727C98.2489 60.9268 101.158 63.5059 103.047 66.1338C104.178 67.7061 105.524 69.5794 107.542 69.5724C108.965 69.5675 110.162 68.5747 111.033 67.5164Z" fill="#7075CE"/>
</svg>
