<svg width="219" height="164" viewBox="0 0 219 164" fill="none" xmlns="http://www.w3.org/2000/svg">
<path fill-rule="evenodd" clip-rule="evenodd" d="M15.4257 78.1791C15.4257 78.1791 6.14868 71.8493 19.1637 49.9944C32.1787 28.1395 58.5366 32.9298 75.3844 24.3334C100.278 11.632 90.0745 1.69211 121.115 0.089906C160.196 -1.9274 162.41 30.6724 181.963 30.6724C183.249 30.6724 213.697 20.9005 218.153 47.6515C220.398 61.1234 181.963 81.6674 181.963 81.6674C181.963 81.6674 165.966 93.2485 165.088 98.9672C161.404 122.951 169.087 150.42 82.9897 163.066C71.8547 164.701 53.3653 158.785 43.1648 147.857C35.1733 139.296 3.11659 145.37 0.124182 117.223C-1.38405 103.036 15.4257 78.1791 15.4257 78.1791Z" fill="#7075CE"/>
<path d="M72.8547 59.1637C73.145 59.0268 73.5193 59.1039 73.6906 59.3358L74.3816 60.267C77.1257 63.9441 78.2232 65.1382 79.3897 65.6781C80.3485 66.1217 81.3398 65.984 83.1545 65.134L83.3969 65.0178C84.5382 64.4496 89.7606 61.5842 91.7798 60.5554C92.064 60.4105 92.4414 60.4772 92.6227 60.7042C92.8041 60.9312 92.7206 61.2326 92.4364 61.3775L92.1256 61.5372C89.8755 62.7023 84.8208 65.475 83.926 65.9024C81.729 66.9516 80.3046 67.1874 78.8773 66.5665L78.7777 66.5218C77.2442 65.8121 76.0514 64.4507 72.6391 59.8313C72.4678 59.5994 72.5643 59.3005 72.8547 59.1637Z" fill="#F2F2F2"/>
<path d="M82.7404 64.7994C83.0745 64.7637 83.3817 64.9511 83.4264 65.218C83.6343 66.4582 84.1323 67.7019 84.9228 68.9503C85.075 69.1906 84.9545 69.4839 84.6536 69.6055C84.3528 69.727 83.9856 69.6307 83.8334 69.3904C82.9827 68.047 82.4429 66.6989 82.2163 65.3474C82.1716 65.0805 82.4062 64.8351 82.7404 64.7994Z" fill="#F2F2F2"/>
<path fill-rule="evenodd" clip-rule="evenodd" d="M153.856 94.579C153.757 94.7781 153.541 95.0536 153.291 95.3144L153.507 95.4933L153.757 95.7064L153.813 95.7491C153.837 95.7663 153.856 95.7768 153.87 95.7796C153.951 95.789 154.008 95.8486 153.997 95.9138C153.985 95.9775 153.911 96.0235 153.83 96.014C153.756 96.0128 153.49 95.9297 153.172 95.7237C153.115 95.6864 153.058 95.6433 152.999 95.5962C152.816 95.7594 152.631 95.8996 152.471 95.9866C152.236 96.1162 152.032 96.1266 151.935 96.0741C151.84 96.023 151.748 95.8513 151.903 95.5042C151.928 95.4415 152.012 95.4083 152.089 95.4279C152.167 95.4476 152.21 95.5137 152.185 95.5765C152.162 95.6408 152.158 95.6997 152.158 95.7467L152.248 95.6976C152.28 95.6793 152.313 95.6588 152.343 95.6347C152.452 95.549 152.574 95.4448 152.696 95.3319C152.502 95.1521 152.305 94.9409 152.145 94.6972C152.067 94.5784 152.005 94.4523 151.946 94.3196C151.905 94.2456 151.947 94.1585 152.04 94.1258C152.133 94.0931 152.242 94.127 152.283 94.201C152.461 94.4986 152.688 94.7552 152.912 94.9748L152.987 95.0465C153.192 94.833 153.367 94.6169 153.447 94.4522C153.491 94.3627 153.618 94.3179 153.731 94.3523C153.844 94.3881 153.9 94.4894 153.856 94.579Z" fill="#F2F2F2"/>
<path fill-rule="evenodd" clip-rule="evenodd" d="M63.0267 33.0701L62.6546 33.0163C60.5769 32.7078 58.9838 32.329 56.0079 31.5049C55.6666 31.4104 55.4858 31.1128 55.6042 30.8402C55.7225 30.5676 56.0951 30.4232 56.4364 30.5178L57.178 30.7216C59.7886 31.4332 61.2534 31.7594 63.2538 32.0412C69.9851 32.9892 75.0252 30.2289 75.4375 24.9646C75.4601 24.6766 75.7706 24.4578 76.1311 24.4758C76.4916 24.4938 76.7656 24.7419 76.743 25.0298C76.2793 30.9503 70.4897 34.1211 63.0267 33.0701Z" fill="#00160A"/>
<path fill-rule="evenodd" clip-rule="evenodd" d="M79.8463 38.7077L80.2218 39.3744L81.078 39.5706C81.1243 39.5812 81.1511 39.6198 81.1378 39.6568C81.1337 39.6682 81.126 39.6786 81.1155 39.6869L80.465 40.2042L80.5014 40.9485C80.5033 40.987 80.4658 41.0193 80.4177 41.0208C80.4014 41.0213 80.3853 41.0182 80.3711 41.0118L79.6347 40.6768C79.6117 40.6663 79.584 40.6648 79.5594 40.6726L78.7717 40.9224C78.727 40.9366 78.6763 40.9192 78.6585 40.8834C78.6525 40.8713 78.6508 40.8581 78.6537 40.8453L78.8195 40.1123L78.2655 39.5278C78.2364 39.4971 78.244 39.4534 78.2824 39.4302C78.2942 39.423 78.3081 39.4184 78.3229 39.4168L79.2049 39.3176L79.693 38.6992C79.7187 38.6666 79.7725 38.6569 79.8132 38.6774C79.8277 38.6847 79.8392 38.6952 79.8463 38.7077Z" fill="#00160A"/>
<path d="M165.879 21.9528C166.216 21.9336 166.508 22.1358 166.532 22.4044C166.556 22.673 166.303 22.9063 165.966 22.9254C163.557 23.0627 161.666 23.8082 160.825 25.6525C160.775 25.7636 160.733 25.8707 160.699 25.9725L160.676 26.0425L160.713 25.9811C161.771 24.2554 163.812 23.0563 166.177 22.752L166.332 22.7334C166.666 22.6962 166.974 22.8822 167.021 23.1489C167.067 23.4156 166.834 23.662 166.5 23.6992C164.303 23.9442 162.424 25.1104 161.604 26.7833L161.551 26.8955C161.161 27.7505 160.226 28.1605 159.624 27.4288C159.257 26.9825 159.281 26.1899 159.678 25.319C160.685 23.11 162.995 22.1172 165.879 21.9528Z" fill="#F2F2F2"/>
<path d="M163.099 18.3204C163.435 18.3012 163.727 18.5034 163.751 18.772C163.775 19.0406 163.522 19.2739 163.186 19.2931C159.354 19.5114 155.994 21.499 154.657 24.4327C154.261 25.3024 154.187 26.0459 154.329 26.4225L154.346 26.4645L154.374 26.4334C154.442 26.3508 154.518 26.2322 154.594 26.0785L154.626 26.0104C156.038 22.9115 159.462 20.7413 163.477 20.2936C163.811 20.2564 164.12 20.4424 164.166 20.7091C164.213 20.9758 163.98 21.2222 163.646 21.2594C160.133 21.6511 157.131 23.5236 155.837 26.2068L155.773 26.3439C155.249 27.493 154.117 27.9895 153.393 27.1096C152.897 26.5066 152.932 25.3683 153.51 24.0992C155.013 20.8007 158.791 18.5659 163.099 18.3204Z" fill="#F2F2F2"/>
<path d="M159.352 13.4772C159.688 13.4581 159.98 13.6603 160.004 13.9289C160.028 14.1975 159.775 14.4307 159.439 14.4499C153.974 14.7613 149.181 17.5962 147.275 21.7805C146.626 23.2046 146.572 24.4115 146.926 24.9132L146.958 24.9557C147.011 25.0195 146.993 25.0213 147.007 25.0125L147.015 25.0083C147.194 24.9295 147.432 24.6614 147.648 24.2165L147.691 24.1252C149.639 19.8514 154.36 16.8585 159.899 16.241C160.233 16.2038 160.541 16.3898 160.588 16.6565C160.634 16.9232 160.401 17.1695 160.068 17.2068C155.039 17.7675 150.743 20.4563 148.909 24.3062L148.838 24.4587C148.161 25.9456 146.802 26.5412 145.938 25.4912C145.294 24.7083 145.341 23.1732 146.127 21.447C148.2 16.8979 153.411 13.8158 159.352 13.4772Z" fill="#F2F2F2"/>
<path d="M152.663 8.92561C152.994 8.87386 153.314 9.04612 153.379 9.31038C153.444 9.57463 153.228 9.8308 152.897 9.88255C147.95 10.6565 143.971 13.6747 142.817 17.6671C142.427 19.0183 142.545 20.1169 142.928 20.5361L142.979 20.5886L142.983 20.5959L142.99 20.5915C143.127 20.4926 143.288 20.2399 143.412 19.8481L143.438 19.762C144.625 15.656 148.544 12.4777 153.55 11.4103C153.876 11.3409 154.211 11.4955 154.297 11.7556C154.384 12.0158 154.191 12.283 153.865 12.3524C149.355 13.3141 145.811 16.1502 144.674 19.8256L144.628 19.9814C144.209 21.4295 143.007 22.1208 142.034 21.2042C141.322 20.5337 141.147 19.111 141.628 17.4477C142.891 13.0772 147.247 9.77279 152.663 8.92561Z" fill="#F2F2F2"/>
<path d="M84.9955 69.0578L85.3479 68.9553C88.6784 68.0007 91.4885 67.5795 92.2023 68.1596C92.8282 68.6683 93.3862 69.5896 93.915 70.9408C94.0156 71.1979 93.8363 71.4713 93.5145 71.5517C93.1927 71.632 92.8503 71.4888 92.7497 71.2318C92.2924 70.0632 91.8257 69.2767 91.3844 68.8879L91.3662 68.8727L91.3505 68.8733C91.2669 68.8597 91.1416 68.8528 90.982 68.8553C90.6302 68.8607 90.1494 68.9102 89.5752 69.0011C88.3939 69.1881 86.9007 69.5358 85.418 69.9726C82.9387 70.7031 80.8734 71.5613 79.7325 72.3366C79.3136 72.6213 78.5487 71.8284 79.2847 71.3742C80.6089 70.557 82.6173 69.7585 84.9955 69.0578Z" fill="#F2F2F2"/>
<path d="M83.3194 59.847C83.3194 61.4733 85.4727 63.2341 85.9309 63.3343C86.256 63.4054 80.6538 66.321 80.6538 66.321C78.6295 66.5337 77.4408 65.1671 77.4408 63.1312C77.4408 62.8619 83.3194 59.5777 83.3194 59.847Z" fill="#F2F2F2"/>
<path fill-rule="evenodd" clip-rule="evenodd" d="M76.7134 60.7016C77.4226 60.5915 77.9043 60.1196 77.7895 59.6476C77.6746 59.1756 77.0066 58.8822 76.2975 58.9923C75.5883 59.1024 75.1066 59.5743 75.2214 60.0463C75.3363 60.5183 76.0043 60.8117 76.7134 60.7016Z" fill="#FFB61D"/>
<path d="M148.97 6.22191C149.302 6.17571 149.619 6.3533 149.676 6.61858C149.734 6.88386 149.512 7.13637 149.18 7.18257C147.6 7.40234 146.007 8.16601 144.365 9.38071C142.232 10.958 140.824 13.1375 140.047 16.0434C139.421 18.3846 139.999 21.31 141.634 23.8817C143.495 26.8076 146.787 27.5307 150.625 28.0906C154.566 28.6655 155.655 28.3105 159.378 27.2532L159.721 27.1538C160.23 26.9998 162.609 26.2563 163.181 26.1181C164.385 25.8274 165.206 25.8517 165.801 26.3585C166.032 26.5548 166.019 26.8634 165.774 27.0477C165.543 27.2204 165.189 27.2226 164.956 27.0604L164.911 27.0258C164.735 26.8763 164.372 26.859 163.641 27.0263L163.534 27.0515C162.984 27.1844 160.404 27.9932 160.07 28.0906C156.048 29.2631 154.684 29.674 150.406 29.0499C146.167 28.4314 142.57 27.5055 140.546 24.3233C138.787 21.5578 138.167 18.4057 138.853 15.8398C139.682 12.7384 141.217 10.3798 143.535 8.66521C145.35 7.32305 147.158 6.47402 148.97 6.22191Z" fill="#F2F2F2"/>
<path d="M177.687 45.0174C174.207 44.8753 171.467 47.022 171.438 49.9036C171.414 52.3316 173.126 54.3308 175.478 54.7182C176.429 54.8748 178.255 54.6864 179.61 54.0797C181.666 53.1987 183.239 51.3875 183.437 49.8443C183.76 47.3301 181.212 45.1613 177.687 45.0174Z" fill="#F2F2F2"/>
<path d="M114.628 44.5097C115.74 46.3028 117.466 50.4446 116.719 50.4246C114.646 50.3693 111.871 47.8237 109.931 44.3819L109.777 44.105C108.083 40.9801 107.068 39.0168 108.247 38.6408C109.465 38.2518 112.334 40.8088 114.628 44.5097Z" fill="#F2F2F2"/>
<path fill-rule="evenodd" clip-rule="evenodd" d="M108.247 38.6017C109.465 38.2127 112.376 40.653 114.67 44.3538C115.782 46.147 116.536 47.8671 116.733 49.1006C116.733 49.1006 112.979 42.7829 110.689 40.4689C109.81 39.5801 108.247 38.6017 108.247 38.6017Z" fill="#E7EAEE"/>
<path d="M107.607 54.5124C107.697 54.2527 108.033 54.1001 108.358 54.1716C108.683 54.243 108.874 54.5113 108.784 54.771C108.669 55.1049 107.052 55.981 103.524 57.718L101.298 58.8065C96.9013 60.9441 93.968 62.3119 93.6012 62.3119C91.1739 62.3119 88.9867 60.483 87.3899 57.5972C85.9956 55.0775 85.2717 52.0783 85.5986 50.1128C85.7007 49.4993 88.2595 47.9113 92.2106 45.7837L92.7765 45.4808C96.2719 43.6209 99.2597 42.2415 100.341 42.0673C100.671 42.014 100.993 42.1848 101.06 42.4488C101.101 42.6139 91.4666 49.1006 90.5254 53.406C89.8882 56.3211 92.2973 61.2898 93.4932 61.3347L93.6012 61.3367C93.504 61.3367 93.5352 61.3186 93.5466 61.3135L93.6566 61.2682C93.7377 61.2342 93.834 61.1927 93.9448 61.1441L94.4528 60.9172C94.647 60.8293 94.8636 60.7302 95.1004 60.6209L95.7063 60.3399C96.863 59.8005 98.3061 59.1138 99.7781 58.4024L101.178 57.7225C102.881 56.8917 104.419 56.1257 105.575 55.5308L106.17 55.2218C106.539 55.0285 106.851 54.8613 107.1 54.7227L107.19 54.672C107.328 54.5947 107.442 54.5281 107.531 54.4735C107.531 54.4735 107.631 54.4417 107.607 54.5124Z" fill="#F2F2F2"/>
<path fill-rule="evenodd" clip-rule="evenodd" d="M108.817 44.7823C107.342 42.1663 106.691 39.769 107.185 38.3174C106.292 38.544 105.176 38.9511 104.069 39.4586C102.596 40.1332 101.428 40.8873 101.401 41.051C101.116 42.7621 102.208 46.091 104.023 49.0587C105.965 52.2332 108.275 54.2721 110.063 54.2721C110.234 54.2721 110.724 54.1915 111.215 54.0544C111.913 53.8595 112.568 53.5756 113.104 53.2036C113.37 53.0187 113.646 52.8096 113.934 52.5763L114.281 52.2897C114.486 52.1167 114.698 51.9305 115.027 51.6354L115.487 51.2256L115.506 51.2083C113.206 50.537 110.801 48.1707 109.001 45.102L108.817 44.7823ZM100.19 40.9226C100.38 39.7811 105.731 37.3137 108.173 37.1543C108.275 37.1031 108.384 37.0587 108.501 37.0215C110.615 36.3466 113.837 39.2376 116.422 43.3054L116.599 43.5878C117.766 45.4698 118.562 47.2857 118.779 48.6439C119.038 50.2671 118.449 51.3432 116.907 51.3983C116.865 51.5262 116.761 51.6332 116.622 51.6976L116.598 51.7073L116.538 51.7554C116.478 51.805 116.406 51.8666 116.296 51.9643L115.538 52.6405C115.263 52.8828 115.068 53.0471 114.803 53.2611C114.494 53.5112 114.196 53.7371 113.904 53.9398C112.723 54.7597 110.975 55.2473 110.063 55.2473C109.579 55.2473 109.089 55.1573 108.598 54.9857C108.075 55.4223 106.462 56.2716 103.524 57.718L101.298 58.8065C96.9013 60.9441 93.968 62.3119 93.6012 62.3119C92.7699 62.3119 91.9668 62.0973 91.2059 61.6993C91.1989 61.7032 91.1917 61.7071 91.1844 61.7108L90.8736 61.8705C89.7921 62.4305 88.0627 63.3619 86.4586 64.2258L86.4584 64.2259L86.4579 64.2261L86.4576 64.2263L86.4572 64.2265L86.3583 64.2798C86.566 65.4638 87.038 66.651 87.7766 67.8424C90.3983 67.1948 92.475 66.9761 93.0743 67.4631C93.7003 67.9718 94.2582 68.8931 94.787 70.2443C94.8876 70.5014 94.7083 70.7748 94.3865 70.8552C94.0647 70.9355 93.7223 70.7923 93.6218 70.5353C93.1644 69.3666 92.6978 68.5802 92.2564 68.1914L92.2382 68.1761L92.2225 68.1768C92.1389 68.1632 92.0137 68.1563 91.854 68.1588C91.5023 68.1642 91.0214 68.2137 90.4472 68.3046C89.2659 68.4916 87.7728 68.8393 86.29 69.2761C82.9005 70.2748 80.2846 71.5123 79.747 72.4501C79.5896 72.7245 79.6097 73.1262 79.7979 73.7413L79.8328 73.852C79.8611 73.9392 79.8906 74.0256 79.9291 74.1349L80.1496 74.7579C80.1587 74.7852 80.1678 74.8131 80.1792 74.8482C80.2639 75.1088 80.0681 75.375 79.7417 75.4426C79.4154 75.5103 79.0822 75.3539 78.9975 75.0932L78.8892 74.7779L78.7086 74.269C78.688 74.2088 78.6694 74.1532 78.651 74.0968C78.3651 73.2159 78.319 72.5986 78.6369 72.0441C79.1759 71.104 80.8619 70.1301 83.2097 69.2446L82.6991 68.1911L82.573 67.9246C82.3796 67.5092 82.1545 66.9459 82.0166 66.5349C80.1825 67.3245 78.9051 67.4565 77.6253 66.8998L77.5257 66.8551C77.2726 66.738 77.0288 66.6031 76.7827 66.4387L69.6284 69.9095C69.6948 70.024 69.762 70.1394 69.8299 70.2557C70.1508 70.8056 69.5847 71.1949 68.7163 71.4978L68.6227 71.5297C67.8762 71.7766 67.2027 71.8332 66.8017 71.4817C65.138 70.0232 63.3769 66.5343 64.3243 65.7364C64.5063 65.5832 64.9866 65.355 65.8949 64.9745L65.9674 64.9444C65.9858 64.9342 66.0052 64.9246 66.0255 64.9158L72.7132 62.0218C72.7285 62.0152 72.7441 62.0091 72.7598 62.0037C72.3467 61.4582 71.894 60.8508 71.3934 60.1732C71.3171 60.0748 71.289 59.9598 71.3083 59.8493C71.3205 59.7791 71.3519 59.7107 71.4022 59.6495C71.4299 59.6157 71.4631 59.5844 71.5015 59.5565C72.8764 58.515 74.75 57.4291 77.1001 56.2598L77.385 56.1187C78.4022 55.6178 80.4652 54.678 82.2178 53.8796L82.2179 53.8796C83.5772 53.2603 84.7498 52.7262 85.103 52.5478L85.1884 52.5025C85.3162 52.4278 85.4681 52.3986 85.6139 52.4111C85.4978 51.5654 85.4877 50.7796 85.5987 50.1128C85.7007 49.4993 88.2595 47.9113 92.2106 45.7837L92.7765 45.4808C96.0881 43.7187 98.9441 42.3879 100.154 42.1046C100.122 41.668 100.133 41.2703 100.19 40.9226ZM100.288 43.0933C99.1024 43.4396 96.1331 44.8476 92.8931 46.5923L92.3742 46.8733C90.9161 47.668 89.5691 48.4428 88.5516 49.0742L88.2689 49.2514C87.8149 49.5387 87.4474 49.7864 87.181 49.985C87.0474 50.0846 86.9421 50.1698 86.8678 50.2377L86.8158 50.2866C86.8045 50.296 86.8015 50.2924 86.8057 50.2617L86.8089 50.2412C86.8076 50.2491 86.8065 50.2558 86.8057 50.2617L86.7896 50.3663C86.2026 54.481 89.9276 61.2007 93.4932 61.3347L93.577 61.3363C93.584 61.3366 93.592 61.3367 93.6012 61.3367L93.577 61.3363C93.5097 61.3334 93.5362 61.3181 93.5466 61.3135L93.6566 61.2682C93.7377 61.2342 93.834 61.1927 93.9448 61.1441L94.4528 60.9172C94.647 60.8292 94.8636 60.7301 95.1004 60.6209L95.7063 60.3398C96.863 59.8005 98.3061 59.1137 99.7781 58.4024L101.178 57.7225C102.881 56.8917 104.419 56.1257 105.575 55.5308L106.17 55.2217C106.539 55.0285 106.851 54.8613 107.1 54.7226L107.19 54.672C107.322 54.5977 107.433 54.5334 107.52 54.48C105.948 53.5584 104.4 51.8564 103.025 49.647L102.926 49.4867C101.602 47.3208 100.644 44.9753 100.288 43.0933ZM85.7824 53.3565C85.3418 53.5779 84.0426 54.1705 82.5968 54.8298C80.8838 55.6111 78.965 56.4862 78.0257 56.9488C75.8072 58.0413 74.0179 59.054 72.6897 60.0075L73.1296 60.6003C75.0547 63.18 76.1695 64.5377 77.0662 65.3046C76.7683 64.7403 76.6139 64.0241 76.6139 63.1258C76.6139 63.0845 76.6204 63.0443 76.6325 63.0059C76.5733 62.8192 76.6567 62.6141 76.863 62.493L77.2788 62.2462C77.5282 62.0956 77.9385 61.8452 78.405 61.5604C79.426 60.9372 80.716 60.1498 81.1763 59.8865C82.624 59.0583 83.6909 58.5935 84.6625 58.4322C85.1266 58.3552 85.4871 58.5745 85.5917 58.9141L85.6088 58.9759C85.6331 59.0769 85.6376 59.1763 85.637 59.3935L85.6367 59.4622C85.6317 60.2736 85.7324 60.7418 86.1625 61.2826C86.4569 61.6527 86.8895 61.9904 87.4922 62.2928C87.5552 62.3245 87.6086 62.3638 87.6514 62.4084C88.6238 61.8868 89.5345 61.4018 90.2064 61.0539C89.1477 60.2353 88.1939 59.0502 87.3899 57.5972C86.641 56.2438 86.0855 54.7521 85.7824 53.3565ZM117.568 48.7673C117.371 47.5337 116.617 45.8136 115.505 44.0205C113.211 40.3196 110.172 37.5381 108.954 37.9271C107.775 38.3031 108.083 40.9801 109.777 44.105L109.931 44.3819C111.871 47.8237 114.646 50.3693 116.719 50.4246C117.466 50.4445 117.758 49.9576 117.568 48.7673ZM73.3905 62.828C74.4495 64.1955 75.2232 65.099 75.8972 65.7274L69.1148 69.0178C68.4201 67.8012 67.7986 66.6689 67.1956 65.5186L73.2948 62.8792C73.3293 62.8643 73.3612 62.8471 73.3905 62.828ZM86.6058 68.15C85.9477 67.0628 85.493 65.9725 85.2432 64.8799C84.3668 65.3511 83.6041 65.7589 83.1138 66.0133C83.1978 66.3497 83.5099 67.1481 83.7788 67.7158L84.2798 68.7458L84.3274 68.8463C84.8199 68.6803 85.3344 68.5183 85.8675 68.3613L86.2199 68.2588C86.3494 68.2217 86.478 68.1854 86.6058 68.15ZM86.5839 62.9821C85.9588 62.6359 85.4793 62.2421 85.1321 61.8055C84.5699 61.0988 84.4223 60.4954 84.4159 59.5837L84.4156 59.5021L84.3293 59.5279C83.7103 59.7198 82.9717 60.0669 82.0437 60.5904L81.8872 60.6793C81.4456 60.9319 80.1893 61.6987 79.1753 62.3176L79.1743 62.3182L79.174 62.3184L79.1737 62.3186L79.1734 62.3188L79.1733 62.3189C78.6095 62.663 78.1208 62.9612 77.8893 63.0997L77.8348 63.1318C77.836 64.7539 78.3429 65.4982 79.2857 65.8593L79.3611 65.887C79.5859 65.9664 79.7462 66.0064 80.2044 66.1066C80.2135 66.1086 80.2225 66.1107 80.2314 66.113C80.7069 65.9854 81.2517 65.7722 81.9025 65.4673L82.1449 65.3511C82.6823 65.0835 84.1248 64.3065 85.7116 63.4518L86.5839 62.9821ZM66.1167 65.9849L66.2103 66.1628C66.8586 67.3906 67.5323 68.6066 68.2969 69.9327L68.5943 70.4472C68.4968 70.4995 68.3686 70.555 68.2277 70.6042C68.0253 70.6748 67.8199 70.7244 67.6654 70.741L67.6162 70.7449L67.5419 70.6738C66.964 70.1055 66.2933 69.14 65.8087 68.1799C65.5505 67.6686 65.3667 67.1995 65.2838 66.8392C65.25 66.6924 65.2344 66.5691 65.2358 66.4755L65.2393 66.4138C65.2405 66.3988 65.2406 66.3911 65.2359 66.3899L65.2542 66.3801C65.3574 66.3232 65.621 66.2 66.0127 66.03L66.1167 65.9849ZM74.5372 64.9107C74.3012 64.7185 73.9147 64.7155 73.674 64.9041C73.2507 65.2358 72.6574 65.5446 71.6213 66.0041L70.5668 66.4715C70.2883 66.5983 70.0601 66.7076 69.8535 66.8146C69.6809 66.9041 69.5266 66.9904 69.388 67.076C69.1213 67.2406 69.0721 67.5468 69.2782 67.7599C69.4844 67.9729 69.8677 68.0122 70.1345 67.8476C70.2446 67.7796 70.3719 67.7084 70.518 67.6327C70.6528 67.5628 70.801 67.4904 70.9726 67.4103L71.3087 67.2567L72.3798 66.7827C73.4089 66.3213 74.029 65.9919 74.5289 65.6002C74.7696 65.4117 74.7733 65.103 74.5372 64.9107Z" fill="#00160A"/>
<path d="M60.8829 114.423C63.9355 128.017 75.3766 138.236 89.976 140.646C92.6559 141.088 97.2964 141.146 102.102 140.649C108.293 140.009 114.318 138.541 119.617 136.162C134.174 129.913 145.22 117.16 146.652 105.996C147.909 96.1891 143.219 87.1296 134.727 80.6667C134.727 80.6667 108.053 91.1311 94.9594 97.079C83.5654 102.255 60.8829 114.423 60.8829 114.423Z" fill="#F2F2F2"/>
<path d="M123.003 73.886C117.532 71.7299 110.677 70.0267 103.955 69.7522C79.3021 68.7454 59.9129 84.4756 59.7108 104.765C59.7108 104.765 87.226 90.7665 101.521 84.0126C108.633 80.6525 123.003 73.886 123.003 73.886Z" fill="#F2F2F2"/>
<path fill-rule="evenodd" clip-rule="evenodd" d="M173.711 63.5456C173.628 66.9355 169.137 72.5776 161.918 78.9624C156.688 83.5874 150.603 88.058 145.501 91.0706L145.183 91.2563L145.394 92.0049C146.635 96.3484 148.254 101.07 147.642 105.832C146.157 117.389 134.839 130.427 119.884 136.833C114.429 139.277 108.229 140.785 101.869 141.441L101.262 141.501C96.5199 141.947 91.9819 141.873 89.2086 141.416C78.4444 139.643 69.3312 133.633 63.8214 124.935C63.8029 124.906 63.7884 124.876 63.7778 124.846C63.0524 125.176 62.0765 125.545 61.6308 125.666L60.4098 125.996C47.2502 129.531 34.2041 132.489 28.8745 130.643C26.8457 129.94 26.1522 128.589 27.0007 126.773C27.8253 125.008 30.1116 122.734 33.9476 119.905L34.1583 119.75C37.7932 117.088 45.8651 112.225 58.3742 105.161L58.3774 105.031C58.9877 84.0968 79.3461 68.1382 104.936 69.441C112.763 69.8394 118.997 72.0611 122.11 73.4253L123.479 72.8385C136.321 67.3542 146.624 63.4991 154.486 61.1917C167.414 57.397 173.808 59.1712 173.711 63.5456ZM154.907 63.4403C140.45 67.6834 117.603 77.2263 85.7937 92.5768L84.8271 93.0437C60.0577 105.02 43.656 114.119 34.9833 120.469L34.5559 120.784L34.1506 121.087C27.6402 126 26.4862 128.753 29.3603 129.748C34.2802 131.452 47.4925 128.579 60.4314 125.19L61.6308 124.874C62.7847 124.568 63.5499 124.393 64.0236 124.312C64.0442 124.3 64.0668 124.29 64.0905 124.28C64.2524 124.215 64.4335 124.212 64.59 124.261C64.6239 124.267 64.6459 124.275 64.6575 124.287C64.763 124.332 64.8526 124.403 64.9108 124.495C70.2595 132.939 79.0731 138.085 89.4552 139.794C92.1502 140.238 96.697 140.303 101.428 139.836L101.712 139.807C107.926 139.166 113.978 138.361 119.296 135.978C133.911 129.718 144.985 116.961 146.428 105.732C147.045 100.933 146.258 96.2224 144.165 91.8379C143.992 91.9345 143.821 92.0291 143.651 92.1216C143.33 92.2966 143.45 92.0132 144.011 91.2715C144.04 91.1747 144.107 91.0865 144.203 91.0203L144.376 90.8017C144.437 90.7256 144.5 90.6463 144.567 90.5638L145.291 90.0764C152.11 85.4698 157.35 81.5473 161.012 78.3088L161.43 77.9372C168.205 71.8814 172.416 66.5322 172.486 63.5276C172.562 60.2316 167.118 59.8562 154.907 63.4403ZM93.6092 125.1C95.2471 129.099 92.7694 131.67 88.4076 131.803C84.3775 131.926 80.7076 129.898 80.8946 127.015C81.0563 124.524 83.1918 121.861 85.8209 120.883C89.0006 119.701 91.9849 121.135 93.6092 125.1ZM86.4652 121.988C84.3612 122.771 82.5517 125.027 82.4186 127.079C82.2861 129.121 85.1132 130.684 88.3494 130.585C91.7328 130.482 93.4697 128.68 92.1588 125.48C90.7939 122.148 88.7187 121.15 86.4652 121.988ZM126.91 116.953C129 120.107 128.452 123.206 125.239 124.595L125.149 124.632L125.102 124.67C120.793 128.078 115.41 128.491 111.899 126.021L111.779 125.935C107.735 122.976 108.698 117.893 115.133 113.908C119.274 111.343 124.332 113.063 126.91 116.953ZM115.935 114.733C110.093 118.351 109.272 122.683 112.662 125.164C115.094 126.943 118.687 127.042 122.043 125.315L122.109 125.28L122.084 125.276C121.852 125.227 121.665 125.077 121.612 124.882L121.602 124.833C121.56 124.546 121.816 124.286 122.175 124.252C122.995 124.175 123.707 124.016 124.311 123.79L124.393 123.758L124.493 123.675C124.887 123.344 125.272 122.984 125.644 122.594L125.768 122.463C125.908 122.314 126.129 122.241 126.346 122.255L126.362 122.257L126.371 122.244C127.155 121.007 126.969 119.331 125.822 117.547L125.754 117.442C123.512 114.059 119.323 112.635 115.935 114.733ZM154.834 77.2416C154.498 78.1955 153.475 79.5045 151.907 81.0547C149.173 83.7571 145.066 86.9025 141.476 89.0533L142.272 88.3539C142.264 88.3482 142.258 88.3408 142.252 88.3323L141.977 87.9292C140.181 85.3101 138.179 82.7267 134.945 80.6207C126.573 83.3778 116.973 87.1466 108.227 91.0872L105.36 92.3815C84.2494 101.933 73.1425 107.652 61.2653 114.681C61.7137 116.294 62.2785 117.867 62.955 119.392C63.0612 119.631 61.6741 120.527 61.4202 120.416C59.0508 121.684 55.3406 122.605 53.2283 122.653C51.1696 122.7 49.9803 122.034 50.593 120.707C51.1055 119.597 53.0363 118.013 56.511 115.891L56.9071 115.651L57.708 115.17C70.7852 107.351 83.7312 101.005 107.627 90.2379L108.627 89.7896C125.017 82.4825 143.996 75.8994 152.689 75.2919C154.476 75.1671 155.287 75.9569 154.834 77.2416ZM59.675 115.627L56.9351 117.279C54.491 118.759 52.7288 119.854 51.7769 120.556L51.7071 120.608C50.5452 121.478 51.8603 121.709 53.1936 121.678C55.2132 121.633 58.3072 120.409 60.9261 119.296C60.442 118.098 60.0245 116.874 59.675 115.627ZM102.533 110.333C102.859 110.4 103.057 110.665 102.974 110.926C102.891 111.187 102.559 111.345 102.232 111.278C100.591 110.946 99.6209 111.073 99.3064 111.426C99.0976 111.661 99.2132 112.06 99.6035 112.315C99.9085 112.514 100.315 112.61 100.594 112.561C100.837 112.519 100.973 112.369 100.973 111.995C100.973 111.725 101.246 111.507 101.583 111.507C101.921 111.507 102.194 111.725 102.194 111.995C102.194 112.809 101.684 113.369 100.854 113.514C100.186 113.63 99.4085 113.447 98.8305 113.07C97.9771 112.512 97.6984 111.549 98.3116 110.861C98.9838 110.107 100.457 109.912 102.533 110.333ZM75.7181 108.543C76.6596 108.769 77.065 109.346 77.1929 110.212L77.2056 110.306L77.2211 110.449C77.2233 110.472 77.2253 110.497 77.2274 110.523L77.2594 111.018L77.269 111.129C77.274 111.178 77.2794 111.218 77.2858 111.254L77.3021 111.329L77.312 111.361L77.329 111.373C77.5174 111.521 77.5674 111.752 77.4456 111.943L77.4144 111.986C77.2317 112.212 76.8539 112.277 76.5706 112.131C76.1807 111.93 76.0921 111.724 76.0448 111.131L76.0061 110.55C76.0016 110.498 75.9968 110.452 75.9905 110.401C75.921 109.833 75.7478 109.568 75.3678 109.477C74.3015 109.222 73.6895 109.483 73.4958 110.052C73.3231 110.559 73.5729 111.092 74.0104 111.24L74.1212 111.273C74.4072 111.371 74.5586 111.628 74.4622 111.87C74.3598 112.126 74.0164 112.268 73.6952 112.186C72.5328 111.89 71.9805 110.787 72.3177 109.796C72.6941 108.69 74.0033 108.133 75.7181 108.543ZM119.759 101.078C121.449 102.976 121.135 105.391 118.423 106.484C118.122 106.605 117.755 106.509 117.603 106.268C117.451 106.028 117.572 105.735 117.873 105.613C119.836 104.822 120.061 103.099 118.764 101.643C117.504 100.228 115.75 100.073 114.545 101.601C113.268 103.222 113.361 104.173 114.281 104.601C115.011 104.941 116.186 104.87 116.51 104.592L116.541 104.561C116.737 104.342 117.118 104.291 117.392 104.447C117.667 104.603 117.731 104.907 117.536 105.127C116.857 105.888 114.921 106.028 113.666 105.444C112.059 104.695 111.905 103.12 113.512 101.082C115.233 98.8988 118.04 99.1478 119.759 101.078ZM94.45 98.2819C94.7673 98.2819 95.028 98.4753 95.0576 98.7225L95.0604 98.7695C95.0604 98.8553 95.1603 98.9512 95.5185 99.1611L95.8574 99.3553C96.227 99.5706 96.4052 99.7041 96.5735 99.9167C96.9584 100.403 97.1766 100.898 97.1766 101.48C97.1766 102.97 94.3739 104.996 91.3148 105.898C87.6475 106.979 84.643 106.178 83.8254 103.172C83.7538 102.909 83.9628 102.649 84.2923 102.592C84.6217 102.535 84.9468 102.702 85.0184 102.965C85.6529 105.298 87.8436 105.882 90.8921 104.983C93.5244 104.208 95.9557 102.449 95.9557 101.48C95.9557 101.105 95.8128 100.78 95.5417 100.438L95.5049 100.397C95.4427 100.334 95.3456 100.266 95.1706 100.163L94.768 99.9308C94.0987 99.5366 93.8395 99.2708 93.8395 98.7695C93.8395 98.5002 94.1128 98.2819 94.45 98.2819ZM97.3154 71.2579L96.9299 71.2925C76.0998 73.2933 60.4734 86.6003 59.6211 104.457L61.8562 103.201C68.2712 99.6047 75.7174 95.4963 84.1948 90.8762L85.8467 90.0789C90.7782 87.7024 95.4934 85.4661 99.9946 83.368C99.9125 83.253 99.8895 83.1117 99.9451 82.976C100.26 82.2086 100.551 81.6931 101.084 81.1767C102.751 79.5606 105.036 78.7713 106.655 79.786C106.815 79.8859 106.895 80.0365 106.889 80.1868L108.327 79.5313C112.855 77.4724 117.14 75.5708 121.184 73.8239L119.605 73.465C117.262 72.9383 114.348 72.3138 111.445 71.8329C111.471 73.3758 110.026 74.6079 107.623 75.4553C105.581 76.1757 102.92 76.5633 101.028 76.4732C97.4879 76.3047 95.4955 73.8248 97.3154 71.2579ZM133.855 92.4318C135.349 95.6916 134.116 98.6558 130.387 98.6365C125.072 98.6087 119.883 94.9025 120.722 91.5822C121.096 90.101 122.49 88.7907 124.914 88.1368C128.786 87.0925 132.334 89.1135 133.855 92.4318ZM125.305 89.0607C123.301 89.6011 122.208 90.6287 121.918 91.7752C121.252 94.4104 125.771 97.6372 130.395 97.6613C133.043 97.675 133.954 95.4844 132.709 92.7669C131.391 89.8914 128.445 88.2137 125.305 89.0607ZM80.4186 77.5184L80.4621 77.5687L80.7558 77.9419C80.8997 78.1314 81.0286 78.3172 81.1514 78.5176C82.5033 80.7255 82.4684 83.6198 80.1805 87.6374C79.144 89.4575 76.5035 91.9035 74.1977 93.3632C71.2534 95.227 69.0552 95.6503 66.4313 95.4202L65.6528 95.3471L65.5578 95.3402C65.5057 95.3372 65.4725 95.3369 65.4359 95.3379L65.3825 95.3397C65.342 95.3412 65.3279 95.3396 65.3255 95.3353L65.3253 95.332L65.3057 95.3573C65.1288 95.56 64.7849 95.6268 64.5087 95.5041C64.214 95.3732 64.1081 95.0763 64.2719 94.841C64.4914 94.5259 64.8581 94.3833 65.3247 94.3657C65.4483 94.361 65.5791 94.3643 65.7348 94.3746L65.9168 94.3888L66.4204 94.4376C68.8104 94.6691 70.7119 94.3256 73.4394 92.5989C75.6052 91.2279 78.1225 88.896 79.0692 87.2337C81.2102 83.474 81.2415 80.8842 80.0546 78.946C79.9756 78.817 79.8932 78.6944 79.8038 78.5712L79.6761 78.4006L79.4201 78.0774C79.241 77.8493 79.3273 77.5484 79.6129 77.4053C79.8807 77.2712 80.2285 77.3234 80.4186 77.5184ZM152.796 76.2634C148.893 76.5361 142.776 78.0758 135.723 80.366L135.929 80.5116C137.892 81.9181 141.852 85.2533 143.092 87.6323L144.326 86.5388C147.373 83.8324 149.583 81.8001 150.957 80.4419L151.235 80.1633C152.549 78.832 153.397 77.7196 153.659 76.9775L153.696 76.8648C153.859 76.329 153.67 76.2022 152.796 76.2634ZM94.3455 77.8472C95.8647 78.4339 96.4813 79.7399 95.4818 80.9241C95.2934 81.1474 94.914 81.2064 94.6344 81.0559C94.3549 80.9054 94.2811 80.6023 94.4695 80.3791C95.0193 79.7277 94.7092 79.0708 93.814 78.7251C92.8714 78.3611 91.8386 78.5704 91.3056 79.3651C90.8144 80.0972 90.7807 81.0885 91.1729 81.7378C91.5171 82.3078 92.0182 82.417 92.7827 81.9573C93.052 81.7954 93.4348 81.8385 93.6375 82.0536C93.8403 82.2688 93.7863 82.5744 93.5169 82.7364C92.1238 83.574 90.7448 83.2734 90.0733 82.1615C89.5103 81.2295 89.5552 79.9096 90.2294 78.9046C91.0895 77.6224 92.8429 77.2669 94.3455 77.8472ZM102.026 81.797C101.741 82.0727 101.538 82.3637 101.349 82.7372C102.922 82.0074 104.469 81.2942 105.988 80.5981L105.944 80.5775L105.902 80.5531C104.97 79.9689 103.327 80.5365 102.026 81.797ZM99.4224 71.1087L98.8886 71.1387L98.8528 71.1747C96.7427 73.3047 97.5554 75.0335 100.437 75.279C102.507 75.4553 108.001 74.2289 108.646 73.7984C109.273 73.3792 110.067 72.4149 110.19 71.6339C108.325 71.3539 106.501 71.148 104.874 71.0815C103.211 71.0136 101.571 71.0153 99.9589 71.0835L99.4224 71.1087Z" fill="#00160A"/>
<path d="M154.536 63.5612C167.465 59.7665 167.168 60.8924 154.957 64.4764C140.501 68.7196 85.9316 95.3065 85.9316 95.3065C61.1622 107.283 59.3093 105.434 83.3174 93.78L84.7973 93.063C85.0761 92.9282 112.41 79.1493 131.941 71.7776C134.139 70.948 153.064 63.9932 154.536 63.5612Z" fill="#F2F2F2"/>
<path fill-rule="evenodd" clip-rule="evenodd" d="M176.859 44.67C172.853 44.5064 169.726 46.993 169.694 50.2464C169.667 52.9722 171.625 55.2867 174.43 55.7486C175.169 55.8703 177.301 55.8703 179.15 55.0418L179.303 54.9744C181.634 53.9199 183.22 51.9139 183.432 50.2637C183.808 47.338 180.866 44.8336 176.859 44.67ZM170.566 50.2519C170.566 50.231 170.567 50.2101 170.567 50.1893C170.592 50.1828 170.617 50.1744 170.641 50.164C173.782 48.8126 175.721 47.7828 176.495 47.0391C177.006 46.5482 177.256 45.9944 177.236 45.3928C177.763 45.4393 178.265 45.5318 178.736 45.664C178.733 45.6821 178.732 45.7005 178.733 45.7193C178.771 46.5852 178.482 47.2775 177.868 47.8164C177.162 48.4358 176.306 49.0253 175.334 49.5811C174.294 50.1754 173.178 50.7001 172.061 51.1494C171.801 51.2542 171.553 51.3498 171.32 51.4359L170.983 51.558C170.935 51.5751 170.89 51.5908 170.849 51.6051L170.748 51.6388C170.625 51.1996 170.561 50.7342 170.566 50.2519ZM170.994 52.3121C171.27 52.9237 171.67 53.4657 172.165 53.9071L172.425 53.7874C176.524 51.892 179.069 50.4031 180.032 49.3527C181.005 48.2907 181.353 47.4752 181.135 46.9207C181.13 46.9077 181.125 46.8945 181.122 46.8814C180.693 46.5217 180.183 46.2125 179.607 45.9685C179.583 46.889 179.218 47.6664 178.513 48.2853C177.762 48.9439 176.861 49.5648 175.841 50.1475C174.762 50.7645 173.608 51.3071 172.453 51.7714C172.117 51.9069 171.8 52.0276 171.508 52.1332L171.168 52.2535L170.994 52.3121ZM174.258 54.9963C173.743 54.8733 173.263 54.6716 172.831 54.4045C177.051 52.4552 179.676 50.9192 180.735 49.7642C181.392 49.0477 181.812 48.4034 181.983 47.8284C182.195 48.145 182.356 48.4825 182.459 48.8351C182.437 48.871 182.422 48.9106 182.417 48.9528C182.31 49.7669 181.785 50.5751 180.824 51.3799C179.902 52.1523 177.912 53.2668 174.872 54.7077L174.258 54.9963ZM175.732 55.109C176.668 55.0615 177.813 54.8423 178.738 54.428C180.458 53.691 181.84 52.3031 182.361 50.9657C182.109 51.2678 181.807 51.5661 181.455 51.8605C180.509 52.6537 178.606 53.732 175.732 55.109ZM170.821 49.2932L170.664 49.3611C171.159 47.0592 173.462 45.4074 176.361 45.36C176.392 45.8122 176.216 46.218 175.825 46.5938C175.192 47.2014 173.514 48.1107 170.821 49.2932Z" fill="#00160A"/>
<path fill-rule="evenodd" clip-rule="evenodd" d="M208.337 37.9966C208.419 38.004 208.475 38.0628 208.466 38.1273C208.466 38.2224 208.389 38.2737 208.286 38.3071C208.193 38.3369 208.045 38.3255 207.959 38.3348C207.015 38.393 206.273 37.838 205.946 37.1228C205.632 36.4356 205.716 35.614 206.285 35.1073C206.351 35.0475 206.464 35.0416 206.539 35.0939C206.614 35.1462 207.039 35.2372 206.973 35.297C206.504 35.7347 206.186 36.0003 206.629 37.0393C207.072 38.0782 208.277 37.991 208.337 37.9966Z" fill="#E7EAEE"/>
<path fill-rule="evenodd" clip-rule="evenodd" d="M57.9907 45.4354C57.7426 45.2993 57.4033 45.3497 57.2329 45.5479C57.0625 45.7461 57.1256 46.0171 57.3737 46.1532C57.6463 46.3027 57.8873 46.4407 58.0999 46.5689C57.8708 46.7145 57.6421 46.8812 57.4044 47.071L56.9224 47.462C56.7105 47.6328 56.7121 47.9084 56.9258 48.0776C57.1396 48.2469 57.4847 48.2457 57.6966 48.0749L58.2749 47.608C58.5103 47.425 58.7308 47.2719 58.9527 47.1446C59.4455 47.5348 59.5956 47.821 59.6036 48.1054L59.6037 48.1784L59.6065 48.2229C59.6344 48.4424 59.8665 48.6137 60.1487 48.6137C60.4497 48.6137 60.6937 48.4188 60.6937 48.1784L60.6936 48.0928C60.6835 47.6493 60.4875 47.2275 59.96 46.7455C60.3085 46.6626 60.7011 46.6162 61.1772 46.5963C61.4778 46.5838 61.7088 46.379 61.6931 46.1389C61.6774 45.8988 61.4209 45.7143 61.1203 45.7269C60.2937 45.7614 59.6513 45.8714 59.079 46.0805C58.8401 45.9245 58.5694 45.7607 58.2636 45.5874L57.9907 45.4354Z" fill="#00160A"/>
<path fill-rule="evenodd" clip-rule="evenodd" d="M139.658 140.825L140.036 140.827C142.149 140.842 143.8 140.994 146.91 141.393C147.267 141.439 147.509 141.707 147.452 141.992C147.395 142.277 147.059 142.47 146.703 142.425L145.683 142.297C143.11 141.981 141.627 141.87 139.658 141.87C132.822 141.87 128.459 145.287 129.197 150.529C129.238 150.816 128.98 151.074 128.621 151.106C128.262 151.139 127.938 150.932 127.898 150.646C127.067 144.751 132.079 140.825 139.658 140.825ZM144.951 142.934L144.887 142.89C144.826 142.847 144.731 142.853 144.679 142.903C144.625 142.952 144.633 143.027 144.695 143.069L144.761 143.114C144.822 143.156 144.915 143.15 144.969 143.101C145.021 143.051 145.015 142.977 144.951 142.934ZM133.099 144.027C132.865 143.876 132.522 143.906 132.333 144.094C131.572 144.85 131.017 145.588 130.671 146.307C130.334 147.007 130.219 148.184 130.306 149.866L130.327 150.221C130.343 150.461 130.6 150.645 130.9 150.633C131.201 150.62 131.432 150.415 131.416 150.175C131.3 148.418 131.399 147.221 131.688 146.62C131.991 145.99 132.488 145.329 133.183 144.639C133.371 144.452 133.334 144.178 133.099 144.027ZM139.047 142.587C139.315 142.476 139.644 142.56 139.782 142.773C139.921 142.987 139.816 143.249 139.549 143.36C138.442 143.818 137.596 144.586 137.007 145.68C136.375 146.855 135.857 147.904 135.455 148.825C135.356 149.052 135.045 149.172 134.761 149.093C134.476 149.013 134.326 148.765 134.426 148.538C134.837 147.596 135.364 146.529 136.006 145.337C136.691 144.064 137.706 143.142 139.047 142.587ZM142.216 142.564C142.018 142.383 141.673 142.365 141.447 142.523C140.537 143.16 139.838 143.739 139.349 144.264C138.863 144.785 138.295 145.565 137.636 146.608C137.501 146.823 137.609 147.085 137.878 147.193C138.146 147.301 138.474 147.215 138.61 147C139.242 145.998 139.782 145.258 140.224 144.784C140.661 144.314 141.309 143.777 142.165 143.178C142.392 143.02 142.414 142.745 142.216 142.564ZM140.226 147.48C140 147.638 139.655 147.62 139.457 147.439C139.259 147.259 139.281 146.984 139.508 146.825C140.364 146.226 141.012 145.689 141.45 145.22C141.891 144.746 142.431 144.005 143.063 143.003C143.199 142.788 143.527 142.702 143.795 142.81C144.064 142.919 144.172 143.18 144.037 143.395C143.378 144.438 142.81 145.218 142.324 145.739C141.835 146.264 141.136 146.843 140.226 147.48ZM136.1 142.942C135.852 142.805 135.512 142.855 135.341 143.053C134.123 144.462 133.345 145.515 133.001 146.23C132.656 146.948 132.417 147.916 132.279 149.139C132.251 149.378 132.473 149.59 132.772 149.612C133.072 149.633 133.337 149.457 133.364 149.217C133.494 148.068 133.715 147.174 134.018 146.543C134.302 145.954 134.962 145.045 135.994 143.833L136.238 143.547C136.409 143.349 136.347 143.078 136.1 142.942Z" fill="#00160A"/>
<path fill-rule="evenodd" clip-rule="evenodd" d="M125.753 140.374L126.129 141.041L126.985 141.237C127.031 141.248 127.058 141.286 127.044 141.323C127.04 141.335 127.033 141.345 127.022 141.354L126.372 141.871L126.408 142.615C126.41 142.654 126.373 142.686 126.324 142.688C126.308 142.688 126.292 142.685 126.278 142.678L125.541 142.343C125.518 142.333 125.491 142.331 125.466 142.339L124.678 142.589C124.634 142.603 124.583 142.586 124.565 142.55C124.559 142.538 124.558 142.525 124.56 142.512L124.726 141.779L124.172 141.194C124.143 141.164 124.151 141.12 124.189 141.097C124.201 141.09 124.215 141.085 124.23 141.083L125.112 140.984L125.6 140.366C125.625 140.333 125.679 140.324 125.72 140.344C125.734 140.351 125.746 140.362 125.753 140.374Z" fill="#00160A"/>
<path fill-rule="evenodd" clip-rule="evenodd" d="M156.081 47.0458C156.281 47.1879 156.532 47.4441 156.753 47.7214L157.037 47.6205L157.373 47.5054C157.441 47.4807 157.485 47.4614 157.498 47.4457C157.537 47.388 157.626 47.3661 157.699 47.3967C157.77 47.4272 157.799 47.4987 157.76 47.5562C157.734 47.6109 157.545 47.7824 157.194 47.9502C157.13 47.9806 157.06 48.0089 156.985 48.0365C157.114 48.2298 157.216 48.4165 157.263 48.5663C157.335 48.7871 157.278 48.9436 157.183 48.9986C157.09 49.053 156.857 49.0631 156.502 48.8276C156.436 48.7878 156.426 48.7136 156.475 48.6619C156.525 48.6105 156.618 48.601 156.683 48.6407C156.751 48.6806 156.819 48.7031 156.874 48.7194L156.847 48.6349C156.836 48.6047 156.823 48.5732 156.805 48.5424C156.742 48.4312 156.661 48.3042 156.57 48.1738C156.292 48.2577 155.976 48.3336 155.635 48.3702C155.468 48.3881 155.299 48.3916 155.122 48.3904C155.021 48.3958 154.933 48.3343 154.927 48.2533C154.92 48.1723 154.997 48.1022 155.098 48.0969C155.509 48.0653 155.889 47.9824 156.224 47.8892L156.334 47.8576C156.152 47.6312 155.958 47.4256 155.792 47.3095C155.701 47.2457 155.692 47.1348 155.771 47.0621C155.852 46.9892 155.991 46.9819 156.081 47.0458Z" fill="#00160A"/>
<path fill-rule="evenodd" clip-rule="evenodd" d="M36.0166 105.948C35.4584 105.972 34.5747 106.08 33.8551 106.308C33.2397 106.504 33.3513 111.998 35.4784 112.459C37.5961 113.058 39.8834 112.319 39.5487 109.376C39.5425 109.314 39.4785 109.146 39.4051 108.954C39.2977 108.672 39.1702 108.337 39.1748 108.207C39.194 107.746 39.0384 107.355 38.6437 107.106C38.2089 106.371 37.3764 105.891 36.0166 105.948ZM35.8156 111.123C34.7738 110.478 34.75 107.516 35.9204 107.331C36.6607 107.802 37.3413 108.479 37.5924 109.772C37.355 110.479 36.8316 110.885 36.3741 111.239C36.3251 111.277 36.2769 111.315 36.2299 111.352C36.0959 111.288 35.9577 111.211 35.8156 111.123Z" fill="#F2F2F2"/>
<path fill-rule="evenodd" clip-rule="evenodd" d="M34.5225 109.377C34.4187 108.913 34.4725 108.395 34.7451 107.845C34.8688 107.596 35.2031 107.395 35.6236 107.262C36.1153 107.108 36.7192 107.034 37.1005 107.018C38.0297 106.979 38.5982 107.304 38.895 107.802C39.1646 107.971 39.2707 108.236 39.2574 108.548C39.252 108.697 39.502 109.237 39.5123 109.34C39.7398 111.335 38.1767 111.837 36.7301 111.431C36.1881 111.653 35.6617 111.685 35.26 111.439C34.8996 111.22 34.6171 110.761 34.5382 109.957C34.5173 109.75 34.5121 109.556 34.5225 109.377ZM37.051 108.095C36.2388 108.218 36.244 110.162 36.9638 110.584C37.062 110.641 37.1576 110.691 37.2502 110.733C37.589 110.481 37.8412 110.276 37.9782 109.854C38.1152 109.431 37.5624 108.403 37.051 108.095Z" fill="#FFB61D"/>
<path fill-rule="evenodd" clip-rule="evenodd" d="M91.7228 157.705C91.4747 157.569 91.1354 157.619 90.965 157.817C90.7946 158.016 90.8577 158.287 91.1058 158.423C91.3785 158.572 91.6194 158.71 91.832 158.838C91.603 158.984 91.3742 159.151 91.1366 159.341L90.6546 159.732C90.4426 159.902 90.4442 160.178 90.658 160.347C90.8717 160.516 91.2168 160.515 91.4287 160.344L92.007 159.878C92.2424 159.695 92.463 159.541 92.6848 159.414C93.1777 159.804 93.3277 160.09 93.3357 160.375L93.3358 160.448L93.3386 160.492C93.3665 160.712 93.5986 160.883 93.8808 160.883C94.1818 160.883 94.4258 160.688 94.4258 160.448L94.4257 160.362C94.4156 159.919 94.2196 159.497 93.6921 159.015C94.0406 158.932 94.4332 158.886 94.9093 158.866C95.2099 158.853 95.4409 158.648 95.4252 158.408C95.4095 158.168 95.153 157.984 94.8524 157.996C94.0258 158.031 93.3834 158.141 92.8111 158.35C92.5722 158.194 92.3015 158.03 91.9957 157.857L91.7228 157.705Z" fill="#00160A"/>
<path fill-rule="evenodd" clip-rule="evenodd" d="M91.7228 157.705C91.4747 157.569 91.1354 157.619 90.965 157.817C90.7946 158.016 90.8577 158.287 91.1058 158.423C91.3785 158.572 91.6194 158.71 91.832 158.838C91.603 158.984 91.3742 159.151 91.1366 159.341L90.6546 159.732C90.4426 159.902 90.4442 160.178 90.658 160.347C90.8717 160.516 91.2168 160.515 91.4287 160.344L92.007 159.878C92.2424 159.695 92.463 159.541 92.6848 159.414C93.1777 159.804 93.3277 160.09 93.3357 160.375L93.3358 160.448L93.3386 160.492C93.3665 160.712 93.5986 160.883 93.8808 160.883C94.1818 160.883 94.4258 160.688 94.4258 160.448L94.4257 160.362C94.4156 159.919 94.2196 159.497 93.6921 159.015C94.0406 158.932 94.4332 158.886 94.9093 158.866C95.2099 158.853 95.4409 158.648 95.4252 158.408C95.4095 158.168 95.153 157.984 94.8524 157.996C94.0258 158.031 93.3834 158.141 92.8111 158.35C92.5722 158.194 92.3015 158.03 91.9957 157.857L91.7228 157.705Z" fill="#00160A"/>
<path fill-rule="evenodd" clip-rule="evenodd" d="M110.35 145.779L110.726 146.445L111.582 146.642C111.628 146.652 111.655 146.691 111.642 146.728C111.637 146.739 111.63 146.75 111.619 146.758L110.969 147.275L111.005 148.019C111.007 148.058 110.97 148.09 110.921 148.092C110.905 148.092 110.889 148.089 110.875 148.083L110.139 147.748C110.116 147.737 110.088 147.736 110.063 147.744L109.276 147.993C109.231 148.008 109.18 147.99 109.162 147.954C109.156 147.942 109.155 147.929 109.158 147.916L109.323 147.183L108.769 146.599C108.74 146.568 108.748 146.524 108.786 146.501C108.798 146.494 108.812 146.489 108.827 146.488L109.709 146.389L110.197 145.77C110.222 145.738 110.276 145.728 110.317 145.748C110.332 145.756 110.343 145.766 110.35 145.779Z" fill="#00160A"/>
<path fill-rule="evenodd" clip-rule="evenodd" d="M63.0996 141.198L63.738 141.722L64.6265 141.673C64.6746 141.67 64.7162 141.699 64.7196 141.737C64.7206 141.749 64.7179 141.761 64.7115 141.772L64.3218 142.435L64.6748 143.125C64.693 143.161 64.6716 143.201 64.627 143.216C64.612 143.221 64.5955 143.222 64.5794 143.22L63.7439 143.106C63.7178 143.103 63.6911 143.109 63.6713 143.123L63.0382 143.573C63.0022 143.598 62.9471 143.596 62.9151 143.567C62.9043 143.557 62.8971 143.546 62.8943 143.533L62.7362 142.799L61.9653 142.401C61.9248 142.38 61.9132 142.337 61.9394 142.304C61.9474 142.294 61.9585 142.286 61.9716 142.281L62.758 141.947L62.9519 141.232C62.9621 141.194 63.0085 141.171 63.0556 141.179C63.0723 141.182 63.0876 141.188 63.0996 141.198Z" fill="#00160A"/>
<path fill-rule="evenodd" clip-rule="evenodd" d="M53.1307 93.4597L53.5063 94.1263L54.3625 94.3226C54.4087 94.3332 54.4355 94.3718 54.4222 94.4088C54.4181 94.4202 54.4104 94.4305 54.3999 94.4389L53.7494 94.9561L53.7859 95.7005C53.7878 95.7389 53.7503 95.7713 53.7021 95.7728C53.6859 95.7733 53.6697 95.7702 53.6556 95.7637L52.9192 95.4287C52.8961 95.4183 52.8684 95.4167 52.8438 95.4245L52.0562 95.6744C52.0114 95.6886 51.9607 95.6711 51.943 95.6354C51.9369 95.6233 51.9353 95.6101 51.9382 95.5973L52.104 94.8642L51.5499 94.2797C51.5209 94.2491 51.5284 94.2054 51.5668 94.1821C51.5787 94.175 51.5926 94.1704 51.6073 94.1687L52.4893 94.0695L52.9774 93.4511C53.0031 93.4186 53.057 93.4088 53.0977 93.4293C53.1122 93.4367 53.1237 93.4472 53.1307 93.4597Z" fill="#00160A"/>
<path fill-rule="evenodd" clip-rule="evenodd" d="M53.0434 94.1237L53.203 94.4069L53.5666 94.4902C53.5863 94.4947 53.5977 94.5111 53.592 94.5268C53.5903 94.5317 53.587 94.5361 53.5825 94.5396L53.3062 94.7593L53.3217 95.0755C53.3225 95.0918 53.3066 95.1055 53.2862 95.1062C53.2792 95.1064 53.2724 95.1051 53.2664 95.1023L52.9536 94.96C52.9438 94.9556 52.932 94.9549 52.9216 94.9583L52.587 95.0644C52.568 95.0704 52.5465 95.063 52.5389 95.0478C52.5364 95.0427 52.5357 95.0371 52.5369 95.0316L52.6073 94.7203L52.372 94.472C52.3596 94.459 52.3628 94.4404 52.3792 94.4306C52.3842 94.4275 52.3901 94.4256 52.3963 94.4249L52.771 94.3827L52.9783 94.1201C52.9892 94.1063 53.0121 94.1021 53.0294 94.1108C53.0356 94.1139 53.0404 94.1184 53.0434 94.1237Z" fill="#E7EAEE"/>
<path fill-rule="evenodd" clip-rule="evenodd" d="M8.48228 122.708L8.85786 123.374L9.71402 123.571C9.76032 123.581 9.78707 123.62 9.77378 123.657C9.76969 123.668 9.76201 123.679 9.75149 123.687L9.101 124.204L9.13744 124.949C9.13932 124.987 9.10183 125.019 9.05371 125.021C9.03743 125.021 9.0213 125.018 9.00715 125.012L8.27073 124.677C8.24771 124.666 8.21999 124.665 8.19538 124.673L7.40776 124.922C7.363 124.937 7.3123 124.919 7.29452 124.883C7.28851 124.871 7.28685 124.858 7.28975 124.845L7.45554 124.112L6.9015 123.528C6.87243 123.497 6.87999 123.453 6.91839 123.43C6.93023 123.423 6.94416 123.418 6.95887 123.417L7.8409 123.318L8.32898 122.699C8.35467 122.667 8.40852 122.657 8.44926 122.677C8.46376 122.685 8.47524 122.695 8.48228 122.708Z" fill="#00160A"/>
<path fill-rule="evenodd" clip-rule="evenodd" d="M46.2182 62.8484L46.491 63.0004C46.7972 63.1739 47.9401 64.0343 48.1792 64.1904C48.7507 63.9809 49.3931 63.8708 50.2198 63.8363C50.5204 63.8238 50.7768 64.0082 50.7925 64.2483C50.8083 64.4884 50.5773 64.6932 50.2767 64.7058C49.8004 64.7257 49.4077 64.7721 49.0591 64.8551C49.5871 65.3373 49.783 65.7589 49.7931 66.2022L49.7932 66.2878C49.7932 66.5282 49.5492 66.7231 49.2482 66.7231C48.966 66.7231 48.7339 66.5518 48.706 66.3323L48.7032 66.2878L48.7031 66.2149C48.6951 65.9305 48.5451 65.6443 48.0523 65.2542C47.8304 65.3813 47.6098 65.5344 47.3744 65.7175L46.7961 66.1844C46.5842 66.3552 46.2391 66.3564 46.0253 66.1871C45.8116 66.0179 45.81 65.7422 46.0219 65.5715L46.504 65.1805C46.7416 64.9907 46.9703 64.824 47.1993 64.6784C46.7972 63.9452 45.29 63.159 45.4604 62.9608C45.6308 62.7626 45.9701 62.7123 46.2182 62.8484Z" fill="#00160A"/>
<path fill-rule="evenodd" clip-rule="evenodd" d="M151.376 113.054L152.118 113.481L152.983 113.309C153.029 113.3 153.077 113.323 153.088 113.36C153.092 113.371 153.092 113.383 153.088 113.395L152.848 114.103L153.346 114.733C153.372 114.765 153.359 114.808 153.319 114.829C153.305 114.836 153.289 114.839 153.273 114.84L152.425 114.844C152.399 114.844 152.374 114.853 152.357 114.87L151.832 115.401C151.802 115.431 151.747 115.436 151.709 115.412C151.696 115.404 151.687 115.394 151.681 115.381L151.366 114.68L150.52 114.395C150.476 114.38 150.455 114.339 150.474 114.304C150.479 114.293 150.489 114.284 150.5 114.276L151.202 113.838L151.238 113.108C151.24 113.069 151.28 113.039 151.328 113.041C151.345 113.041 151.362 113.046 151.376 113.054Z" fill="#00160A"/>
<path fill-rule="evenodd" clip-rule="evenodd" d="M159.906 85.7703L160.131 86.4789L160.931 86.791C160.974 86.8078 160.992 86.8495 160.971 86.8841C160.965 86.8948 160.955 86.9039 160.943 86.9107L160.19 87.3299L160.064 88.068C160.057 88.1061 160.013 88.1328 159.965 88.1276C159.949 88.1258 159.934 88.1205 159.922 88.1122L159.269 87.6801C159.249 87.6666 159.222 87.6613 159.196 87.6655L158.366 87.8024C158.319 87.8101 158.273 87.7859 158.263 87.7482C158.26 87.7355 158.261 87.7223 158.266 87.7101L158.589 87.0111L158.171 86.3587C158.149 86.3244 158.166 86.2825 158.208 86.2649C158.222 86.2595 158.236 86.2569 158.251 86.2573L159.141 86.2819L159.756 85.7406C159.789 85.7122 159.844 85.71 159.88 85.7359C159.892 85.7451 159.901 85.7571 159.906 85.7703Z" fill="#00160A"/>
<path fill-rule="evenodd" clip-rule="evenodd" d="M140.481 57.2523L140.706 57.9609L141.506 58.2729C141.55 58.2898 141.568 58.3315 141.546 58.366C141.54 58.3767 141.53 58.3859 141.518 58.3926L140.765 58.8118L140.639 59.5499C140.632 59.588 140.588 59.6147 140.541 59.6095C140.525 59.6077 140.509 59.6024 140.497 59.5941L139.844 59.1621C139.824 59.1486 139.797 59.1432 139.771 59.1475L138.941 59.2843C138.894 59.2921 138.848 59.2678 138.838 59.2302C138.835 59.2174 138.836 59.2042 138.842 59.192L139.164 58.4931L138.746 57.8406C138.724 57.8064 138.741 57.7644 138.784 57.7469C138.797 57.7414 138.812 57.7388 138.826 57.7392L139.717 57.7639L140.332 57.2226C140.364 57.1941 140.419 57.192 140.455 57.2178C140.468 57.227 140.477 57.239 140.481 57.2523Z" fill="#00160A"/>
<path fill-rule="evenodd" clip-rule="evenodd" d="M197.867 64.1953L198.198 64.1717C198.572 64.1474 198.912 64.1338 199.22 64.1307C199.49 63.6768 199.893 63.2626 200.499 62.8118C200.719 62.6478 201.064 62.6575 201.269 62.8333C201.474 63.0092 201.462 63.2847 201.242 63.4486C200.893 63.7084 200.63 63.9456 200.429 64.1881C201.222 64.2864 201.711 64.5088 202.076 64.8432L202.145 64.9088C202.338 65.0929 202.308 65.3675 202.078 65.5221C201.861 65.6669 201.546 65.6549 201.348 65.5011L201.31 65.4684L201.251 65.4125C201.016 65.1988 200.671 65.0566 199.979 65.0107C199.912 65.2221 199.866 65.4526 199.833 65.7137L199.766 66.3683C199.741 66.6079 199.477 66.786 199.177 66.7661C198.877 66.7462 198.654 66.5358 198.679 66.2962L198.734 65.7492C198.763 65.4818 198.804 65.2367 198.863 65.0076C198.597 65.0184 198.301 65.0364 197.972 65.0619C197.672 65.085 197.406 64.9098 197.377 64.6705C197.348 64.4312 197.567 64.2184 197.867 64.1953Z" fill="#00160A"/>
<path fill-rule="evenodd" clip-rule="evenodd" d="M153.856 94.2457C153.757 94.4448 153.541 94.7203 153.291 94.981L153.507 95.16L153.757 95.3731L153.813 95.4158C153.837 95.4329 153.856 95.4435 153.87 95.4463C153.951 95.4556 154.008 95.5152 153.997 95.5805C153.985 95.6441 153.911 95.6901 153.83 95.6807C153.756 95.6795 153.49 95.5963 153.172 95.3903C153.115 95.3531 153.058 95.31 152.999 95.2628C152.816 95.426 152.631 95.5662 152.471 95.6532C152.236 95.7829 152.032 95.7932 151.935 95.7408C151.84 95.6897 151.748 95.518 151.903 95.1708C151.928 95.1081 152.012 95.075 152.089 95.0946C152.167 95.1142 152.21 95.1804 152.185 95.2431C152.162 95.3074 152.158 95.3663 152.158 95.4133L152.248 95.3642C152.28 95.346 152.313 95.3255 152.343 95.3014C152.452 95.2156 152.574 95.1114 152.696 94.9986C152.502 94.8188 152.305 94.6076 152.145 94.3639C152.067 94.2451 152.005 94.119 151.946 93.9863C151.905 93.9122 151.947 93.8252 152.04 93.7924C152.133 93.7597 152.242 93.7936 152.283 93.8677C152.461 94.1652 152.688 94.4218 152.912 94.6415L152.987 94.7132C153.192 94.4996 153.367 94.2835 153.447 94.1189C153.491 94.0293 153.618 93.9845 153.731 94.0189C153.844 94.0548 153.9 94.1561 153.856 94.2457Z" fill="#E7EAEE"/>
<path fill-rule="evenodd" clip-rule="evenodd" d="M148.534 5.52538C148.866 5.47917 149.183 5.65677 149.24 5.92204C149.298 6.18732 149.076 6.43983 148.744 6.48604C147.164 6.70581 145.263 7.45997 143.621 8.67467C141.488 10.252 139.915 12.4781 139.138 15.384C138.512 17.7252 139.087 20.8077 140.723 23.3794C142.584 26.3053 145.575 28.2946 149.413 28.8546C153.353 29.4294 156.687 29.0724 160.41 28.0152L160.753 27.9157C160.862 27.8828 161.056 27.8229 161.3 27.7478C162.197 27.4714 163.763 26.9887 164.213 26.8801C165.417 26.5893 166.238 26.6136 166.833 27.1204C167.064 27.3168 167.052 27.6253 166.806 27.8096C166.576 27.9823 166.222 27.9845 165.988 27.8223L165.943 27.7877C165.768 27.6382 165.404 27.6209 164.674 27.7883L164.567 27.8134C164.17 27.9092 162.719 28.3561 161.815 28.6347C161.464 28.7427 161.195 28.8253 161.102 28.8525C157.081 30.0251 153.472 30.4379 149.194 29.8138C144.954 29.1953 141.658 27.0032 139.634 23.8211C137.876 21.0555 137.258 17.7464 137.944 15.1804C138.773 12.079 140.473 9.67378 142.791 7.95918C144.606 6.61701 146.722 5.77749 148.534 5.52538ZM152.663 7.88081C152.994 7.82906 153.314 8.00133 153.379 8.26558C153.444 8.52984 153.228 8.78601 152.897 8.83776C147.95 9.61167 143.971 12.63 142.817 16.6223C142.427 17.9735 142.545 19.0721 142.928 19.4913L142.979 19.5438L142.983 19.5511L142.99 19.5467C143.127 19.4478 143.288 19.1951 143.412 18.8033L143.438 18.7173C144.625 14.6112 148.544 11.4329 153.55 10.3655C153.876 10.2961 154.211 10.4507 154.298 10.7108C154.384 10.971 154.191 11.2382 153.865 11.3076C149.355 12.2693 145.811 15.1054 144.674 18.7808L144.628 18.9366C144.209 20.3848 143.007 21.0761 142.034 20.1594C141.322 19.4889 141.147 18.0662 141.628 16.403C142.891 12.0324 147.247 8.728 152.663 7.88081ZM160.004 13.2324C159.98 12.9638 159.688 12.7616 159.352 12.7807C153.411 13.1193 148.2 16.2014 146.127 20.7505C145.341 22.4767 145.294 24.0118 145.938 24.7946C146.802 25.8447 148.161 25.2491 148.838 23.7622L148.909 23.6097C150.743 19.7598 155.039 17.0709 160.068 16.5103C160.401 16.473 160.634 16.2267 160.588 15.96C160.541 15.6933 160.233 15.5073 159.899 15.5445C154.36 16.162 149.639 19.1549 147.691 23.4287L147.648 23.52C147.432 23.9648 147.194 24.233 147.015 24.3117L147.007 24.316L147.003 24.3185C147.002 24.3194 147.001 24.3199 147.001 24.3198C147 24.3197 147 24.3192 146.999 24.3182C146.999 24.3175 146.998 24.3164 146.997 24.3151C146.994 24.3079 146.985 24.2915 146.958 24.2592L146.926 24.2167C146.572 23.715 146.626 22.5081 147.275 21.084C149.182 16.8997 153.974 14.0648 159.439 13.7534C159.775 13.7342 160.028 13.501 160.004 13.2324ZM162.663 17.9721C162.999 17.953 163.291 18.1552 163.315 18.4238C163.339 18.6924 163.086 18.9256 162.75 18.9448C158.918 19.1631 155.558 21.1507 154.221 24.0845C153.825 24.9541 153.751 25.6977 153.893 26.0742L153.91 26.1163L153.938 26.0852C154.006 26.0026 154.082 25.884 154.158 25.7302L154.19 25.6621C155.602 22.5633 159.026 20.3931 163.041 19.9454C163.375 19.9081 163.684 20.0942 163.73 20.3609C163.777 20.6275 163.544 20.8739 163.21 20.9111C159.697 21.3028 156.695 23.1754 155.401 25.8585L155.337 25.9956C154.813 27.1448 153.681 27.6412 152.957 26.7613C152.461 26.1583 152.496 25.02 153.074 23.7509C154.577 20.4525 158.355 18.2176 162.663 17.9721ZM165.88 21.9005C165.856 21.6319 165.564 21.4297 165.228 21.4489C162.343 21.6133 159.813 23.11 158.806 25.319C158.409 26.1899 158.385 26.9825 158.752 27.4288C159.354 28.1605 160.289 27.7505 160.679 26.8955L160.732 26.7832C161.552 25.1104 163.431 23.9441 165.628 23.6992C165.962 23.6619 166.195 23.4156 166.149 23.1489C166.102 22.8822 165.794 22.6962 165.46 22.7334L165.305 22.752C162.94 23.0563 160.899 24.2554 159.841 25.9811L159.804 26.0425L159.827 25.9725C159.861 25.8707 159.903 25.7635 159.953 25.6525C160.794 23.8082 162.906 22.5588 165.315 22.4215C165.651 22.4024 165.904 22.1691 165.88 21.9005Z" fill="#00160A"/>
<path fill-rule="evenodd" clip-rule="evenodd" d="M162.663 17.9721C162.999 17.953 163.291 18.1552 163.315 18.4238C163.339 18.6924 163.086 18.9256 162.75 18.9448C158.918 19.1631 155.558 21.1507 154.221 24.0844C153.825 24.9541 153.751 25.6977 153.893 26.0742L153.91 26.1162L153.938 26.0851C154.006 26.0026 154.082 25.884 154.158 25.7302L154.19 25.6621C155.602 22.5633 159.026 20.3931 163.041 19.9454C163.375 19.9081 163.684 20.0942 163.73 20.3608C163.777 20.6275 163.544 20.8739 163.21 20.9111C159.697 21.3028 156.695 23.1754 155.401 25.8585L155.337 25.9956C154.813 27.1448 153.681 27.6412 152.957 26.7613C152.461 26.1583 152.496 25.02 153.074 23.7509C154.577 20.4525 158.355 18.2176 162.663 17.9721Z" fill="#00160A"/>
<path d="M124.646 81.4517C137.444 76.6705 148.143 74.1451 154.805 73.6814C156.845 73.5394 157.77 74.4377 157.254 75.8989C156.87 76.9839 155.702 78.4727 153.911 80.2359C150.79 83.3095 146.674 85.9396 142.576 88.3859C149.132 83.5522 150.805 81.5301 152.827 79.5388L153.145 79.222C154.644 77.7078 155.613 76.4426 155.912 75.5985L155.954 75.4703C156.14 74.8609 155.925 74.7167 154.926 74.7863C148.415 75.2395 137.757 77.7699 125.006 82.5446C112.235 87.3271 111.87 86.2251 124.646 81.4517Z" fill="#F2F2F2"/>
<path d="M66.1167 65.9849L66.2102 66.1628C66.8585 67.3907 67.5323 68.6066 68.2969 69.9327L68.5942 70.4472C68.4968 70.4995 68.3686 70.5551 68.2277 70.6042C68.0253 70.6748 67.8198 70.7244 67.6654 70.741L67.6161 70.7449L67.5418 70.6738C66.964 70.1055 66.2933 69.14 65.8086 68.18C65.5505 67.6686 65.3667 67.1996 65.2838 66.8392C65.25 66.6924 65.2344 66.5691 65.2357 66.4755L65.2393 66.4138C65.2405 66.3989 65.2405 66.3911 65.2359 66.39L65.2542 66.3801C65.3573 66.3232 65.621 66.2 66.0126 66.03L66.1167 65.9849Z" fill="#F2F2F2"/>
<path fill-rule="evenodd" clip-rule="evenodd" d="M82.2945 61.5371C82.6951 61.1455 83.2145 61.2038 83.8724 61.5226L84.0414 61.6077L84.5143 61.858C84.6466 61.9258 84.7039 61.9492 84.781 61.9737C84.96 62.0306 85.0473 62.1927 84.9761 62.3356C84.9048 62.4786 84.7019 62.5483 84.523 62.4914L84.4592 62.4705C84.3382 62.4291 84.2469 62.3861 84.0018 62.2562L83.6626 62.0757C83.6067 62.0465 83.5582 62.0221 83.5106 61.999C83.1171 61.8083 82.9384 61.7883 82.8348 61.8896C82.7694 61.9535 82.7856 62.0896 82.9152 62.3687L83.0576 62.6615C83.3405 63.2614 83.3422 63.5296 82.8382 63.7585C82.4043 63.9556 82.1819 63.8635 81.5588 63.3759L81.4076 63.2563C81.0086 62.938 80.7994 62.8272 80.6646 62.85C80.6199 62.8575 80.5677 62.8829 80.5039 62.9371C80.4292 63.0008 80.408 63.2043 80.4539 63.5654L80.5241 64.037C80.6061 64.6135 80.5731 64.7628 80.2752 64.9221C79.8649 65.1414 79.3189 64.8935 78.307 64.1677C78.1637 64.0649 78.1519 63.8887 78.2806 63.7743C78.4093 63.6598 78.6298 63.6503 78.7732 63.7531C79.2058 64.0634 79.5324 64.2655 79.7605 64.3691L79.8117 64.3913L79.8544 64.4083L79.8554 64.3734L79.8526 64.29C79.8481 64.2216 79.8375 64.1389 79.8161 63.9985L79.7717 63.7091C79.6869 63.1222 79.7134 62.7959 79.9951 62.5559C80.1516 62.4227 80.3273 62.3374 80.5203 62.3048C80.9684 62.2291 81.2867 62.382 81.8153 62.7947L82.0821 63.0043C82.3698 63.2253 82.4765 63.2818 82.4933 63.2742C82.5586 63.2445 82.5487 63.1522 82.3721 62.7898L82.2946 62.6328C82.0482 62.1269 82.0011 61.8239 82.2945 61.5371Z" fill="#00160A"/>
<path fill-rule="evenodd" clip-rule="evenodd" d="M120.375 16.189L120.044 16.2126C119.744 16.2357 119.525 16.4485 119.554 16.6878C119.572 16.8325 119.676 16.9537 119.822 17.0219L119.764 17.0546C119.518 17.1934 119.46 17.465 119.634 17.6614C119.807 17.8577 120.148 17.9043 120.393 17.7656L120.953 17.4487C120.937 17.5512 120.923 17.657 120.911 17.7665L120.857 18.3135C120.832 18.5531 121.055 18.7635 121.355 18.7834C121.655 18.8033 121.918 18.6252 121.943 18.3856L122.01 17.731C122.028 17.591 122.049 17.4597 122.076 17.3354C122.267 17.6254 122.305 17.8488 122.265 18.0601L122.249 18.1319L122.242 18.1762C122.222 18.3962 122.413 18.5971 122.691 18.6362C122.987 18.678 123.27 18.5199 123.322 18.2831L123.341 18.1988C123.399 17.905 123.372 17.6093 123.223 17.2809C123.301 17.3257 123.368 17.3754 123.428 17.4298L123.487 17.4857L123.525 17.5184C123.723 17.6722 124.039 17.6843 124.255 17.5394C124.485 17.3848 124.516 17.1103 124.322 16.9261L124.253 16.8606C124.229 16.8381 124.204 16.8162 124.178 16.7947C124.462 16.8079 124.715 16.6424 124.75 16.4132C124.787 16.1746 124.574 15.9574 124.276 15.928C123.762 15.8776 123.312 15.8662 122.899 15.8959C123.047 15.7565 123.219 15.6149 123.419 15.4659C123.639 15.302 123.652 15.0265 123.446 14.8507C123.241 14.6748 122.896 14.6651 122.676 14.8291C122.307 15.1041 122.012 15.3655 121.778 15.6305C121.687 15.5538 121.592 15.4752 121.492 15.3945L121.257 15.207C121.042 15.0385 120.697 15.041 120.486 15.2126C120.275 15.3842 120.278 15.6598 120.493 15.8282C120.642 15.9452 120.78 16.0559 120.907 16.1607C120.738 16.1675 120.561 16.1769 120.375 16.189Z" fill="#00160A"/>
<path fill-rule="evenodd" clip-rule="evenodd" d="M99.4338 19.1943C99.3126 19.0886 99.1076 19.0972 98.976 19.2135C98.8443 19.3299 98.8359 19.5099 98.9571 19.6156C99.0687 19.7128 99.1686 19.8033 99.258 19.8877C99.0477 19.9672 98.8357 20.0685 98.6078 20.1926L98.2623 20.3839C98.1105 20.4674 98.0706 20.6272 98.1731 20.7408C98.2756 20.8545 98.4817 20.879 98.6335 20.7955L99.0478 20.5673C99.2645 20.4523 99.459 20.3646 99.6535 20.3015C99.9221 20.627 99.9715 20.839 99.9257 21.0381L99.9136 21.0854L99.9078 21.1144C99.8876 21.2586 99.9937 21.386 100.157 21.4059C100.332 21.4272 100.505 21.3183 100.545 21.1625L100.559 21.1071C100.627 20.8179 100.583 20.5296 100.355 20.178C100.528 20.1703 100.716 20.1757 100.93 20.193C101.111 20.2077 101.279 20.1059 101.305 19.9657C101.331 19.8254 101.206 19.6999 101.024 19.6852C100.621 19.6525 100.282 19.6573 99.9701 19.7024C99.8547 19.5806 99.7208 19.451 99.5667 19.3121L99.4338 19.1943Z" fill="#E7EAEE"/>
<path fill-rule="evenodd" clip-rule="evenodd" d="M29.1332 91.7787L29.5087 92.4454L30.3649 92.6417C30.4112 92.6523 30.4379 92.6908 30.4247 92.7278C30.4206 92.7392 30.4129 92.7496 30.4024 92.758L29.7519 93.2752L29.7883 94.0195C29.7902 94.058 29.7527 94.0904 29.7046 94.0919C29.6883 94.0924 29.6722 94.0892 29.658 94.0828L28.9216 93.7478C28.8986 93.7373 28.8709 93.7358 28.8463 93.7436L28.0586 93.9935C28.0139 94.0077 27.9632 93.9902 27.9454 93.9544C27.9394 93.9423 27.9377 93.9292 27.9406 93.9163L28.1064 93.1833L27.5524 92.5988C27.5233 92.5681 27.5309 92.5244 27.5693 92.5012C27.5811 92.4941 27.595 92.4894 27.6097 92.4878L28.4918 92.3886L28.9799 91.7702C29.0055 91.7376 29.0594 91.7279 29.1001 91.7484C29.1146 91.7557 29.1261 91.7663 29.1332 91.7787Z" fill="#00160A"/>
<path fill-rule="evenodd" clip-rule="evenodd" d="M34.1411 54.7787L34.5167 55.4454L35.3729 55.6417C35.4192 55.6523 35.4459 55.6908 35.4326 55.7278C35.4285 55.7392 35.4209 55.7496 35.4103 55.758L34.7599 56.2752L34.7963 57.0195C34.7982 57.058 34.7607 57.0904 34.7126 57.0919C34.6963 57.0924 34.6802 57.0892 34.666 57.0828L33.9296 56.7478C33.9066 56.7373 33.8789 56.7358 33.8542 56.7436L33.0666 56.9935C33.0219 57.0077 32.9712 56.9902 32.9534 56.9544C32.9474 56.9423 32.9457 56.9292 32.9486 56.9163L33.1144 56.1833L32.5604 55.5988C32.5313 55.5681 32.5389 55.5244 32.5773 55.5012C32.5891 55.4941 32.603 55.4894 32.6177 55.4878L33.4998 55.3886L33.9879 54.7702C34.0135 54.7376 34.0674 54.7279 34.1081 54.7484C34.1226 54.7557 34.1341 54.7663 34.1411 54.7787Z" fill="#00160A"/>
<path d="M45.4851 113.687C45.7648 113.525 46.1563 113.574 46.3594 113.798C46.5626 114.021 37.7062 119.783 34.2705 122.423L33.8712 122.733C31.9089 124.266 30.462 125.594 29.6465 126.644C28.7823 127.757 28.7269 128.361 29.2848 128.608C31.4016 129.545 34.4451 130.001 38.8039 129.425L39.2518 129.364C40.911 129.131 53.392 126.957 53.1944 127.015L53.1176 127.033C52.7241 127.117 47.6421 128.52 45.8881 128.877L45.676 128.92C42.9946 129.459 40.8962 129.828 39.0085 130.078C34.3959 130.688 31.1003 130.555 28.6779 129.482C27.2801 128.864 27.3914 127.65 28.5826 126.117C29.5196 124.911 31.1676 123.42 33.4024 121.703C36.884 119.027 41.7809 115.835 45.4851 113.687Z" fill="#F2F2F2"/>
</svg>
